MulatAbay-Thin.ufo
<glyph name="quotedbl" format="2">
  <advance width="521"/>
  <unicode hex="0022"/>
  <note>
uni0022
</note>
  <outline>
    <contour>
      <point x="351" y="1122" type="line"/>
      <point x="381" y="1122" type="line"/>
      <point x="411" y="1393" type="line"/>
      <point x="411" y="1536" type="line"/>
      <point x="351" y="1536" type="line"/>
    </contour>
    <contour>
      <point x="150" y="1122" type="line"/>
      <point x="180" y="1122" type="line"/>
      <point x="210" y="1393" type="line"/>
      <point x="210" y="1536" type="line"/>
      <point x="150" y="1536" type="line"/>
    </contour>
  </outline>
</glyph>
<glyph name="numbersign" format="2">
  <advance width="1261"/>
  <unicode hex="0023"/>
  <note>
uni0023
</note>
  <outline>
    <contour>
      <point x="248" y="0" type="line"/>
      <point x="304" y="0" type="line"/>
      <point x="378" y="410" type="line"/>
      <point x="742" y="410" type="line"/>
      <point x="667" y="0" type="line"/>
      <point x="723" y="0" type="line"/>
      <point x="798" y="410" type="line"/>
      <point x="1092" y="410" type="line"/>
      <point x="1092" y="462" type="line"/>
      <point x="807" y="462" type="line"/>
      <point x="903" y="986" type="line"/>
      <point x="1167" y="986" type="line"/>
      <point x="1167" y="1040" type="line"/>
      <point x="913" y="1040" type="line"/>
      <point x="989" y="1456" type="line"/>
      <point x="933" y="1456" type="line"/>
      <point x="857" y="1040" type="line"/>
      <point x="492" y="1040" type="line"/>
      <point x="568" y="1456" type="line"/>
      <point x="512" y="1456" type="line"/>
      <point x="437" y="1040" type="line"/>
      <point x="127" y="1040" type="line"/>
      <point x="127" y="986" type="line"/>
      <point x="427" y="986" type="line"/>
      <point x="332" y="462" type="line"/>
      <point x="51" y="462" type="line"/>
      <point x="51" y="410" type="line"/>
      <point x="322" y="410" type="line"/>
    </contour>
    <contour>
      <point x="388" y="462" type="line"/>
      <point x="482" y="986" type="line"/>
      <point x="847" y="986" type="line"/>
      <point x="751" y="462" type="line"/>
    </contour>
  </outline>
</glyph>
<glyph name="percent" format="2">
  <advance width="1500"/>
  <unicode hex="0025"/>
  <note>
uni0025
</note>
  <outline>
    <contour>
      <point x="422" y="131" type="line"/>
      <point x="1133" y="1269" type="line"/>
      <point x="1088" y="1300" type="line"/>
      <point x="377" y="162" type="line"/>
    </contour>
    <contour>
      <point x="1143" y="-21" type="curve" smooth="yes"/>
      <point x="1296.333" y="-21"/>
      <point x="1413" y="107"/>
      <point x="1413" y="279" type="curve" smooth="yes"/>
      <point x="1413" y="350" type="line" smooth="yes"/>
      <point x="1413" y="531.333"/>
      <point x="1297" y="657"/>
      <point x="1141" y="657" type="curve" smooth="yes"/>
      <point x="986.333" y="657"/>
      <point x="870" y="529"/>
      <point x="870" y="357" type="curve" smooth="yes"/>
      <point x="870" y="284" type="line" smooth="yes"/>
      <point x="870" y="104"/>
      <point x="988.333" y="-21"/>
    </contour>
    <contour>
      <point x="1143" y="34" type="curve" smooth="yes"/>
      <point x="1011" y="34"/>
      <point x="925" y="136.333"/>
      <point x="925" y="279" type="curve" smooth="yes"/>
      <point x="925" y="353" type="line" smooth="yes"/>
      <point x="925" y="505"/>
      <point x="1009" y="602"/>
      <point x="1141" y="602" type="curve" smooth="yes"/>
      <point x="1274.333" y="602"/>
      <point x="1358" y="507.667"/>
      <point x="1358" y="357" type="curve" smooth="yes"/>
      <point x="1358" y="284" type="line" smooth="yes"/>
      <point x="1358" y="136"/>
      <point x="1273.667" y="34"/>
    </contour>
    <contour>
      <point x="388" y="800" type="curve" smooth="yes"/>
      <point x="542.667" y="800"/>
      <point x="657" y="929.667"/>
      <point x="657" y="1099" type="curve" smooth="yes"/>
      <point x="657" y="1171" type="line" smooth="yes"/>
      <point x="657" y="1348.333"/>
      <point x="542" y="1477"/>
      <point x="386" y="1477" type="curve" smooth="yes"/>
      <point x="231.333" y="1477"/>
      <point x="114" y="1348"/>
      <point x="114" y="1176" type="curve" smooth="yes"/>
      <point x="114" y="1105" type="line" smooth="yes"/>
      <point x="114" y="925"/>
      <point x="232" y="800"/>
    </contour>
    <contour>
      <point x="388" y="855" type="curve" smooth="yes"/>
      <point x="254.667" y="855"/>
      <point x="169" y="960.333"/>
      <point x="169" y="1099" type="curve" smooth="yes"/>
      <point x="169" y="1169" type="line" smooth="yes"/>
      <point x="169" y="1322.333"/>
      <point x="259.333" y="1422"/>
      <point x="386" y="1422" type="curve" smooth="yes"/>
      <point x="515.333" y="1422"/>
      <point x="602" y="1320"/>
      <point x="602" y="1176" type="curve" smooth="yes"/>
      <point x="602" y="1104" type="line" smooth="yes"/>
      <point x="602" y="956"/>
      <point x="516" y="855"/>
    </contour>
  </outline>
</glyph>
<glyph name="ampersand" format="2">
  <advance width="1273"/>
  <unicode hex="0026"/>
  <note>
uni0026
</note>
  <outline>
    <contour>
      <point x="549" y="-20" type="curve" smooth="yes"/>
      <point x="700.333" y="-20"/>
      <point x="841.333" y="45.333"/>
      <point x="972" y="176" type="curve"/>
      <point x="1129" y="0" type="line"/>
      <point x="1196" y="0" type="line"/>
      <point x="1006" y="216" type="line"/>
      <point x="1094.667" y="335.333"/>
      <point x="1139" y="474"/>
      <point x="1139" y="632" type="curve"/>
      <point x="1084" y="632" type="line"/>
      <point x="1084" y="489.333"/>
      <point x="1045.667" y="364.667"/>
      <point x="969" y="258" type="curve"/>
      <point x="494" y="797" type="line"/>
      <point x="650" y="921" type="line" smooth="yes"/>
      <point x="775.333" y="1025"/>
      <point x="838" y="1122.333"/>
      <point x="838" y="1213" type="curve" smooth="yes"/>
      <point x="838" y="1369"/>
      <point x="728.667" y="1477"/>
      <point x="562" y="1477" type="curve" smooth="yes"/>
      <point x="380.667" y="1477"/>
      <point x="257" y="1355"/>
      <point x="257" y="1167" type="curve" smooth="yes"/>
      <point x="257" y="1053.667"/>
      <point x="304.667" y="946"/>
      <point x="422" y="802" type="curve"/>
      <point x="180.333" y="600.667"/>
      <point x="115" y="482.667"/>
      <point x="115" y="352" type="curve" smooth="yes"/>
      <point x="115" y="124"/>
      <point x="281" y="-20"/>
    </contour>
    <contour>
      <point x="549" y="34" type="curve" smooth="yes"/>
      <point x="318.333" y="34"/>
      <point x="169" y="162.667"/>
      <point x="169" y="352" type="curve" smooth="yes"/>
      <point x="169" y="473.333"/>
      <point x="244.667" y="587"/>
      <point x="402" y="723" type="curve"/>
      <point x="454" y="764" type="line"/>
      <point x="937" y="217" type="line"/>
      <point x="835.667" y="99.667"/>
      <point x="697" y="34"/>
    </contour>
    <contour>
      <point x="462" y="834" type="line"/>
      <point x="362" y="952"/>
      <point x="312" y="1063.667"/>
      <point x="312" y="1169" type="curve" smooth="yes"/>
      <point x="312" y="1319.667"/>
      <point x="411.333" y="1423"/>
      <point x="562" y="1423" type="curve" smooth="yes"/>
      <point x="691.333" y="1423"/>
      <point x="782" y="1335.667"/>
      <point x="782" y="1213" type="curve" smooth="yes"/>
      <point x="782" y="1133.667"/>
      <point x="733.667" y="1053.667"/>
      <point x="637" y="973" type="curve" smooth="yes"/>
    </contour>
  </outline>
</glyph>
<glyph name="parenleft" format="2">
  <advance width="700"/>
  <unicode hex="0028"/>
  <note>
uni0028
</note>
  <outline>
    <contour>
      <point x="562" y="-470" type="curve"/>
      <point x="581" y="-427" type="line"/>
      <point x="446.333" y="-337.667"/>
      <point x="318.667" y="-108.833"/>
      <point x="252" y="162.5" type="curve" smooth="yes"/>
      <point x="218.667" y="298.167"/>
      <point x="202" y="432"/>
      <point x="202" y="564" type="curve" smooth="yes"/>
      <point x="202" y="616" type="line" smooth="yes"/>
      <point x="207" y="933"/>
      <point x="342" y="1422"/>
      <point x="581" y="1580" type="curve"/>
      <point x="562" y="1623" type="line"/>
      <point x="411.333" y="1528.333"/>
      <point x="271.667" y="1289.667"/>
      <point x="201" y="1011" type="curve" smooth="yes"/>
      <point x="165.667" y="871.667"/>
      <point x="148" y="730"/>
      <point x="148" y="586" type="curve" smooth="yes"/>
      <point x="148" y="259.333"/>
      <point x="223.167" y="-27.167"/>
      <point x="350.5" y="-238.5" type="curve" smooth="yes"/>
      <point x="414.167" y="-344.167"/>
      <point x="484.667" y="-421.333"/>
    </contour>
  </outline>
</glyph>
<glyph name="asterisk" format="2">
  <advance width="856"/>
  <unicode hex="002A"/>
  <note>
uni002A
</note>
  <outline>
    <contour>
      <point x="204" y="661" type="line"/>
      <point x="432" y="986" type="line"/>
      <point x="674" y="664" type="line"/>
      <point x="721" y="697" type="line"/>
      <point x="472" y="1014" type="line"/>
      <point x="832" y="1151" type="line"/>
      <point x="812" y="1204" type="line"/>
      <point x="460" y="1061" type="line"/>
      <point x="467" y="1456" type="line"/>
      <point x="411" y="1456" type="line"/>
      <point x="410" y="1062" type="line"/>
      <point x="48" y="1195" type="line"/>
      <point x="30" y="1141" type="line"/>
      <point x="393" y="1017" type="line"/>
      <point x="159" y="693" type="line"/>
    </contour>
  </outline>
</glyph>
<glyph name="period" format="2">
  <advance width="439"/>
  <unicode hex="002E"/>
  <note>
uni002E
</note>
  <outline>
    <contour>
      <point x="202" y="-6" type="curve" smooth="yes"/>
      <point x="232.667" y="-6"/>
      <point x="258" y="18.333"/>
      <point x="258" y="49" type="curve" smooth="yes"/>
      <point x="258" y="79.667"/>
      <point x="232.667" y="105"/>
      <point x="202" y="105" type="curve" smooth="yes"/>
      <point x="171.333" y="105"/>
      <point x="147" y="79.667"/>
      <point x="147" y="49" type="curve" smooth="yes"/>
      <point x="147" y="18.333"/>
      <point x="171.333" y="-6"/>
    </contour>
  </outline>
</glyph>
<glyph name="two" format="2">
  <advance width="1121"/>
  <unicode hex="0032"/>
  <note>
uni0032
</note>
  <outline>
    <contour>
      <point x="153" y="0" type="line"/>
      <point x="1024" y="0" type="line"/>
      <point x="1024" y="54" type="line"/>
      <point x="224" y="54" type="line"/>
      <point x="755" y="678" type="line"/>
      <point x="882.333" y="836"/>
      <point x="946" y="971.667"/>
      <point x="946" y="1085" type="curve" smooth="yes"/>
      <point x="946" y="1331.667"/>
      <point x="794.667" y="1476"/>
      <point x="536" y="1476" type="curve" smooth="yes"/>
      <point x="289" y="1476"/>
      <point x="117" y="1282"/>
      <point x="117" y="1045" type="curve"/>
      <point x="171" y="1045" type="line"/>
      <point x="171" y="1261"/>
      <point x="328" y="1422"/>
      <point x="536" y="1422" type="curve" smooth="yes"/>
      <point x="761.333" y="1422"/>
      <point x="891" y="1298.333"/>
      <point x="891" y="1085" type="curve" smooth="yes"/>
      <point x="891" y="961"/>
      <point x="812.667" y="817.667"/>
      <point x="650" y="627" type="curve" smooth="yes"/>
      <point x="153" y="54" type="line"/>
    </contour>
  </outline>
</glyph>
<glyph name="three" format="2">
  <advance width="1121"/>
  <unicode hex="0033"/>
  <note>
uni0033
</note>
  <outline>
    <contour>
      <point x="573" y="-20" type="curve" smooth="yes"/>
      <point x="834.333" y="-20"/>
      <point x="1007" y="138"/>
      <point x="1007" y="386" type="curve" smooth="yes"/>
      <point x="1007" y="578"/>
      <point x="893.667" y="701"/>
      <point x="703" y="745" type="curve"/>
      <point x="869.667" y="795.667"/>
      <point x="975" y="926.333"/>
      <point x="975" y="1081" type="curve" smooth="yes"/>
      <point x="975" y="1323.667"/>
      <point x="816" y="1476"/>
      <point x="564" y="1476" type="curve" smooth="yes"/>
      <point x="186.364" y="1472.953"/>
      <point x="88.42" y="1100.684"/>
      <point x="134" y="1074" type="curve"/>
      <point x="188" y="1074" type="line"/>
      <point x="188" y="1282"/>
      <point x="345.333" y="1422"/>
      <point x="564" y="1422" type="curve" smooth="yes"/>
      <point x="788" y="1422"/>
      <point x="921" y="1291.667"/>
      <point x="921" y="1085" type="curve" smooth="yes"/>
      <point x="921" y="903.667"/>
      <point x="767" y="774"/>
      <point x="539" y="770" type="curve" smooth="yes"/>
      <point x="417" y="770" type="line"/>
      <point x="417" y="714" type="line"/>
      <point x="531" y="714" type="line" smooth="yes"/>
      <point x="807" y="712.667"/>
      <point x="953" y="596.667"/>
      <point x="953" y="382" type="curve" smooth="yes"/>
      <point x="953" y="164.667"/>
      <point x="811.667" y="34"/>
      <point x="573" y="34" type="curve" smooth="yes"/>
      <point x="333" y="34"/>
      <point x="157" y="192"/>
      <point x="157" y="405" type="curve"/>
      <point x="103" y="405" type="line"/>
      <point x="103" y="138"/>
      <point x="322" y="-20"/>
    </contour>
  </outline>
</glyph>
<glyph name="five" format="2">
  <advance width="1121"/>
  <unicode hex="0035"/>
  <note>
uni0035
</note>
  <outline>
    <contour>
      <point x="614" y="-20" type="curve" smooth="yes"/>
      <point x="878" y="-20"/>
      <point x="1024" y="148"/>
      <point x="1024" y="464" type="curve" smooth="yes"/>
      <point x="1024" y="736"/>
      <point x="855.333" y="916"/>
      <point x="594" y="916" type="curve" smooth="yes"/>
      <point x="484.667" y="916"/>
      <point x="358.333" y="876.333"/>
      <point x="289" y="819" type="curve"/>
      <point x="348" y="1403" type="line"/>
      <point x="1009" y="1403" type="line"/>
      <point x="1009" y="1456" type="line"/>
      <point x="299" y="1456" type="line"/>
      <point x="231" y="762" type="line"/>
      <point x="272" y="746" type="line"/>
      <point x="354.667" y="826"/>
      <point x="455" y="862"/>
      <point x="595" y="862" type="curve" smooth="yes"/>
      <point x="823" y="862"/>
      <point x="969" y="704.667"/>
      <point x="969" y="462" type="curve" smooth="yes"/>
      <point x="969" y="180.667"/>
      <point x="854" y="34"/>
      <point x="614" y="34" type="curve" smooth="yes"/>
      <point x="388.667" y="34"/>
      <point x="258.333" y="155"/>
      <point x="237" y="383" type="curve"/>
      <point x="182" y="383" type="line"/>
      <point x="202" y="131"/>
      <point x="364.667" y="-20"/>
    </contour>
  </outline>
</glyph>
<glyph name="six" format="2">
  <advance width="1150"/>
  <unicode hex="0036"/>
  <note>
uni0036
</note>
  <outline>
    <contour>
      <point x="602" y="-20" type="curve" smooth="yes"/>
      <point x="860" y="-20"/>
      <point x="1013" y="217"/>
      <point x="1013" y="480" type="curve" smooth="yes"/>
      <point x="1013" y="766.667"/>
      <point x="848" y="957"/>
      <point x="592" y="957" type="curve" smooth="yes"/>
      <point x="417.333" y="957"/>
      <point x="260.333" y="870.333"/>
      <point x="183" y="733" type="curve"/>
      <point x="200.333" y="1169"/>
      <point x="432" y="1422"/>
      <point x="840" y="1422" type="curve"/>
      <point x="840" y="1476" type="line"/>
      <point x="378.667" y="1476"/>
      <point x="128" y="1177.333"/>
      <point x="128" y="660" type="curve" smooth="yes"/>
      <point x="128" y="481" type="line" smooth="yes"/>
      <point x="128" y="47"/>
      <point x="464" y="-20"/>
    </contour>
    <contour>
      <point x="602" y="33" type="curve" smooth="yes"/>
      <point x="354" y="33"/>
      <point x="182" y="218.333"/>
      <point x="182" y="493" type="curve" smooth="yes"/>
      <point x="182" y="621" type="line"/>
      <point x="222" y="782.333"/>
      <point x="398.333" y="903"/>
      <point x="585" y="903" type="curve" smooth="yes"/>
      <point x="817" y="903"/>
      <point x="959" y="738.667"/>
      <point x="959" y="480" type="curve" smooth="yes"/>
      <point x="959" y="255"/>
      <point x="809" y="33"/>
    </contour>
  </outline>
</glyph>
<glyph name="nine" format="2">
  <advance width="1121"/>
  <unicode hex="0039"/>
  <note>
uni0039
</note>
  <outline>
    <contour>
      <point x="298" y="-20" type="line"/>
      <point x="346" y="-20" type="line" smooth="yes"/>
      <point x="771.333" y="-14.667"/>
      <point x="993" y="248"/>
      <point x="993" y="740" type="curve" smooth="yes"/>
      <point x="993" y="907" type="line" smooth="yes"/>
      <point x="991.667" y="1275"/>
      <point x="831" y="1476"/>
      <point x="531" y="1476" type="curve" smooth="yes"/>
      <point x="371" y="1476"/>
      <point x="231.333" y="1379.833"/>
      <point x="158" y="1220.5" type="curve" smooth="yes"/>
      <point x="121.333" y="1140.833"/>
      <point x="103" y="1053.333"/>
      <point x="103" y="958" type="curve" smooth="yes"/>
      <point x="103" y="700"/>
      <point x="265" y="468"/>
      <point x="523" y="468" type="curve" smooth="yes"/>
      <point x="709.667" y="468"/>
      <point x="868.333" y="570.667"/>
      <point x="939" y="724" type="curve"/>
      <point x="939" y="274.667"/>
      <point x="732.333" y="38"/>
      <point x="343" y="34" type="curve" smooth="yes"/>
      <point x="300" y="34" type="line"/>
    </contour>
    <contour>
      <point x="523" y="522" type="curve" smooth="yes"/>
      <point x="292" y="522"/>
      <point x="157" y="732"/>
      <point x="157" y="958" type="curve" smooth="yes"/>
      <point x="157" y="1192"/>
      <point x="303" y="1422"/>
      <point x="535" y="1422" type="curve" smooth="yes"/>
      <point x="795" y="1422"/>
      <point x="939" y="1239.333"/>
      <point x="939" y="902" type="curve" smooth="yes"/>
      <point x="939" y="840" type="line"/>
      <point x="885.667" y="648"/>
      <point x="720.333" y="522"/>
    </contour>
  </outline>
</glyph>
<glyph name="equal" format="2">
  <advance width="1124"/>
  <unicode hex="003D"/>
  <note>
uni003D
</note>
  <outline>
    <contour>
      <point x="147" y="843" type="line"/>
      <point x="981" y="843" type="line"/>
      <point x="981" y="897" type="line"/>
      <point x="147" y="897" type="line"/>
    </contour>
    <contour>
      <point x="147" y="436" type="line"/>
      <point x="981" y="436" type="line"/>
      <point x="981" y="490" type="line"/>
      <point x="147" y="490" type="line"/>
    </contour>
  </outline>
</glyph>
<glyph name="greater" format="2">
  <advance width="1070"/>
  <unicode hex="003E"/>
  <note>
uni003E
</note>
  <outline>
    <contour>
      <point x="114" y="265" type="line"/>
      <point x="950" y="644" type="line"/>
      <point x="950" y="694" type="line"/>
      <point x="114" y="1072" type="line"/>
      <point x="114" y="1013" type="line"/>
      <point x="872" y="668" type="line"/>
      <point x="114" y="324" type="line"/>
    </contour>
  </outline>
</glyph>
<glyph name="question" format="2">
  <advance width="967"/>
  <unicode hex="003F"/>
  <note>
uni003F
</note>
  <outline>
    <contour>
      <point x="395" y="400" type="curve"/>
      <point x="449" y="400" type="line"/>
      <point x="449" y="530"/>
      <point x="493" y="629"/>
      <point x="581" y="698" type="curve"/>
      <point x="754" y="855"/>
      <point x="801" y="957"/>
      <point x="801" y="1110" type="curve" smooth="yes"/>
      <point x="801" y="1334"/>
      <point x="667.333" y="1476"/>
      <point x="458" y="1476" type="curve" smooth="yes"/>
      <point x="248.667" y="1476"/>
      <point x="95.667" y="1332"/>
      <point x="93" y="1116" type="curve"/>
      <point x="147" y="1116" type="line"/>
      <point x="149.667" y="1296"/>
      <point x="266" y="1423"/>
      <point x="458" y="1423" type="curve" smooth="yes"/>
      <point x="638" y="1423"/>
      <point x="747" y="1305.333"/>
      <point x="747" y="1112" type="curve" smooth="yes"/>
      <point x="747" y="933"/>
      <point x="676" y="854"/>
      <point x="552" y="739" type="curve" smooth="yes"/>
      <point x="432" y="627"/>
      <point x="398" y="549"/>
    </contour>
    <contour>
      <point x="426" y="-6" type="curve" smooth="yes"/>
      <point x="456.667" y="-6"/>
      <point x="482" y="18.333"/>
      <point x="482" y="49" type="curve" smooth="yes"/>
      <point x="482" y="79.667"/>
      <point x="456.667" y="105"/>
      <point x="426" y="105" type="curve" smooth="yes"/>
      <point x="395.333" y="105"/>
      <point x="371" y="79.667"/>
      <point x="371" y="49" type="curve" smooth="yes"/>
      <point x="371" y="18.333"/>
      <point x="395.333" y="-6"/>
    </contour>
  </outline>
</glyph>
<glyph name="at" format="2">
  <advance width="1902"/>
  <unicode hex="0040"/>
  <note>
uni0040
</note>
  <outline>
    <contour>
      <point x="909" y="-453" type="curve" smooth="yes"/>
      <point x="1030.333" y="-453"/>
      <point x="1181.667" y="-420"/>
      <point x="1267" y="-364" type="curve"/>
      <point x="1243" y="-318" type="line"/>
      <point x="1157.667" y="-367.333"/>
      <point x="1033" y="-398"/>
      <point x="913" y="-398" type="curve" smooth="yes"/>
      <point x="419" y="-398"/>
      <point x="164" y="-10"/>
      <point x="187" y="478" type="curve" smooth="yes"/>
      <point x="204.333" y="814"/>
      <point x="349" y="1092.667"/>
      <point x="593" y="1242" type="curve" smooth="yes"/>
      <point x="715" y="1316.667"/>
      <point x="850.667" y="1354"/>
      <point x="1000" y="1354" type="curve" smooth="yes"/>
      <point x="1494.667" y="1354"/>
      <point x="1742.333" y="1071"/>
      <point x="1713" y="523" type="curve" smooth="yes"/>
      <point x="1698.333" y="216.333"/>
      <point x="1581.667" y="35"/>
      <point x="1403" y="35" type="curve" smooth="yes"/>
      <point x="1272.333" y="35"/>
      <point x="1204.333" y="129"/>
      <point x="1219" y="293" type="curve" smooth="yes"/>
      <point x="1268" y="878" type="line"/>
      <point x="1160.667" y="966"/>
      <point x="1094.667" y="988"/>
      <point x="1018" y="988" type="curve" smooth="yes"/>
      <point x="945" y="988"/>
      <point x="878" y="966"/>
      <point x="819" y="925" type="curve" smooth="yes"/>
      <point x="692" y="838"/>
      <point x="603" y="664"/>
      <point x="581" y="436" type="curve" smooth="yes"/>
      <point x="557" y="160"/>
      <point x="650.667" y="-20"/>
      <point x="832" y="-20" type="curve" smooth="yes"/>
      <point x="980.667" y="-20"/>
      <point x="1091.667" y="56.667"/>
      <point x="1165" y="210" type="curve"/>
      <point x="1179.667" y="66"/>
      <point x="1266.667" y="-20"/>
      <point x="1400" y="-20" type="curve" smooth="yes"/>
      <point x="1654" y="-20"/>
      <point x="1762" y="277"/>
      <point x="1770" y="523" type="curve" smooth="yes"/>
      <point x="1795.333" y="1095"/>
      <point x="1526.667" y="1411"/>
      <point x="1004" y="1411" type="curve" smooth="yes"/>
      <point x="672" y="1411"/>
      <point x="403" y="1252.667"/>
      <point x="255" y="970" type="curve" smooth="yes"/>
      <point x="181" y="828.667"/>
      <point x="140" y="664.667"/>
      <point x="132" y="478" type="curve" smooth="yes"/>
      <point x="116" y="100.667"/>
      <point x="239" y="-190.5"/>
      <point x="479" y="-340.5" type="curve" smooth="yes"/>
      <point x="599" y="-415.5"/>
      <point x="742.333" y="-453"/>
    </contour>
    <contour>
      <point x="830" y="34" type="curve" smooth="yes"/>
      <point x="616" y="34"/>
      <point x="608" y="346"/>
      <point x="655" y="557" type="curve" smooth="yes"/>
      <point x="708.333" y="791.667"/>
      <point x="845.667" y="933"/>
      <point x="1015" y="933" type="curve" smooth="yes"/>
      <point x="1099.667" y="933"/>
      <point x="1165" y="905.667"/>
      <point x="1211" y="851" type="curve"/>
      <point x="1168" y="344" type="line"/>
      <point x="1100" y="137.333"/>
      <point x="996.667" y="34"/>
    </contour>
  </outline>
</glyph>
<glyph name="A" format="2">
  <advance width="1336"/>
  <unicode hex="0041"/>
  <note>
uni0041
</note>
  <outline>
    <contour>
      <point x="33" y="0" type="line"/>
      <point x="92" y="0" type="line"/>
      <point x="254" y="435" type="line"/>
      <point x="967" y="435" type="line"/>
      <point x="1130" y="0" type="line"/>
      <point x="1189" y="0" type="line"/>
      <point x="644" y="1456" type="line"/>
      <point x="578" y="1456" type="line"/>
    </contour>
    <contour>
      <point x="274" y="489" type="line"/>
      <point x="611" y="1391" type="line"/>
      <point x="947" y="489" type="line"/>
    </contour>
  </outline>
</glyph>
<glyph name="B" format="2">
  <advance width="1235"/>
  <unicode hex="0042"/>
  <note>
uni0042
</note>
  <outline>
    <contour>
      <point x="200" y="0" type="line"/>
      <point x="669" y="0" type="line" smooth="yes"/>
      <point x="955.667" y="0"/>
      <point x="1125" y="153"/>
      <point x="1125" y="401" type="curve" smooth="yes"/>
      <point x="1125" y="575.667"/>
      <point x="987" y="729"/>
      <point x="803" y="753" type="curve"/>
      <point x="965.667" y="785"/>
      <point x="1059" y="907"/>
      <point x="1059" y="1083" type="curve" smooth="yes"/>
      <point x="1059" y="1325.667"/>
      <point x="896.333" y="1456"/>
      <point x="583" y="1456" type="curve" smooth="yes"/>
      <point x="200" y="1456" type="line"/>
    </contour>
    <contour>
      <point x="254" y="54" type="line"/>
      <point x="254" y="719" type="line"/>
      <point x="696" y="719" type="line" smooth="yes"/>
      <point x="924" y="715"/>
      <point x="1071" y="583"/>
      <point x="1071" y="399" type="curve" smooth="yes"/>
      <point x="1071" y="183"/>
      <point x="921.667" y="54"/>
      <point x="675" y="54" type="curve" smooth="yes"/>
    </contour>
    <contour>
      <point x="254" y="773" type="line"/>
      <point x="254" y="1402" type="line"/>
      <point x="595" y="1402" type="line" smooth="yes"/>
      <point x="867.667" y="1398.667"/>
      <point x="1004" y="1293.667"/>
      <point x="1004" y="1087" type="curve" smooth="yes"/>
      <point x="1004" y="872.333"/>
      <point x="868.333" y="773"/>
      <point x="603" y="773" type="curve" smooth="yes"/>
    </contour>
  </outline>
</glyph>
<glyph name="C" format="2">
  <advance width="1333"/>
  <unicode hex="0043"/>
  <note>
uni0043
</note>
  <outline>
    <contour>
      <point x="663" y="-20" type="curve" smooth="yes"/>
      <point x="970" y="-20"/>
      <point x="1154" y="146"/>
      <point x="1182" y="446" type="curve"/>
      <point x="1128" y="446" type="line"/>
      <point x="1100" y="171"/>
      <point x="941" y="34"/>
      <point x="663" y="34" type="curve" smooth="yes"/>
      <point x="238" y="34"/>
      <point x="191" y="482"/>
      <point x="191" y="649" type="curve" smooth="yes"/>
      <point x="191" y="833" type="line" smooth="yes"/>
      <point x="191" y="1192"/>
      <point x="380" y="1422"/>
      <point x="663" y="1422" type="curve" smooth="yes"/>
      <point x="940" y="1422"/>
      <point x="1097" y="1280"/>
      <point x="1128" y="1012" type="curve"/>
      <point x="1182" y="1012" type="line"/>
      <point x="1154" y="1311"/>
      <point x="967" y="1476"/>
      <point x="663" y="1476" type="curve" smooth="yes"/>
      <point x="314" y="1476"/>
      <point x="136" y="1178"/>
      <point x="136" y="837" type="curve" smooth="yes"/>
      <point x="136" y="263"/>
      <point x="239" y="-20"/>
    </contour>
  </outline>
</glyph>
<glyph name="D" format="2">
  <advance width="1340"/>
  <unicode hex="0044"/>
  <note>
uni0044
</note>
  <outline>
    <contour>
      <point x="200" y="0" type="line"/>
      <point x="608" y="0" type="line" smooth="yes"/>
      <point x="950" y="0"/>
      <point x="1204" y="265"/>
      <point x="1204" y="639" type="curve" smooth="yes"/>
      <point x="1204" y="828" type="line" smooth="yes"/>
      <point x="1204" y="1294"/>
      <point x="929" y="1476"/>
      <point x="520" y="1456" type="curve"/>
      <point x="200" y="1456" type="line"/>
    </contour>
    <contour>
      <point x="254" y="54" type="line"/>
      <point x="254" y="1402" type="line"/>
      <point x="611" y="1402" type="line" smooth="yes"/>
      <point x="1094" y="1402"/>
      <point x="1150" y="1057"/>
      <point x="1150" y="820" type="curve" smooth="yes"/>
      <point x="1150" y="633" type="line" smooth="yes"/>
      <point x="1150" y="226"/>
      <point x="829" y="54"/>
      <point x="543" y="54" type="curve" smooth="yes"/>
    </contour>
  </outline>
</glyph>
<glyph name="G" format="2">
  <advance width="1395"/>
  <unicode hex="0047"/>
  <note>
uni0047
</note>
  <outline>
    <contour>
      <point x="702" y="-20" type="curve" smooth="yes"/>
      <point x="923" y="-20"/>
      <point x="1126" y="55"/>
      <point x="1199" y="156" type="curve"/>
      <point x="1199" y="660" type="line"/>
      <point x="700" y="660" type="line"/>
      <point x="700" y="605" type="line"/>
      <point x="1145" y="605" type="line"/>
      <point x="1145" y="181" type="line"/>
      <point x="1082" y="100"/>
      <point x="897" y="34"/>
      <point x="702" y="34" type="curve" smooth="yes"/>
      <point x="378" y="34"/>
      <point x="195" y="298"/>
      <point x="195" y="620" type="curve" smooth="yes"/>
      <point x="195" y="852" type="line" smooth="yes"/>
      <point x="195" y="1193"/>
      <point x="392" y="1422"/>
      <point x="685" y="1422" type="curve" smooth="yes"/>
      <point x="945" y="1422"/>
      <point x="1107" y="1294"/>
      <point x="1143" y="1062" type="curve"/>
      <point x="1197" y="1062" type="line"/>
      <point x="1168" y="1318"/>
      <point x="974" y="1476"/>
      <point x="685" y="1476" type="curve" smooth="yes"/>
      <point x="294" y="1474"/>
      <point x="141" y="1225"/>
      <point x="141" y="858" type="curve" smooth="yes"/>
      <point x="141" y="608" type="line" smooth="yes"/>
      <point x="141" y="259"/>
      <point x="356" y="-20"/>
    </contour>
  </outline>
</glyph>
<glyph name="J" format="2">
  <advance width="1130"/>
  <unicode hex="004A"/>
  <note>
uni004A
</note>
  <outline>
    <contour>
      <point x="510" y="-20" type="curve" smooth="yes"/>
      <point x="763.333" y="-20"/>
      <point x="930" y="160.667"/>
      <point x="930" y="442" type="curve" smooth="yes"/>
      <point x="930" y="1456" type="line"/>
      <point x="876" y="1456" type="line"/>
      <point x="876" y="432" type="line" smooth="yes"/>
      <point x="872" y="186.667"/>
      <point x="723.333" y="34"/>
      <point x="510" y="34" type="curve" smooth="yes"/>
      <point x="266" y="34"/>
      <point x="144" y="163.667"/>
      <point x="144" y="401" type="curve"/>
      <point x="90" y="401" type="line"/>
      <point x="90" y="130.333"/>
      <point x="238" y="-20"/>
    </contour>
  </outline>
</glyph>
<glyph name="K" format="2">
  <advance width="1284"/>
  <unicode hex="004B"/>
  <note>
uni004B
</note>
  <outline>
    <contour>
      <point x="200" y="0" type="line"/>
      <point x="254" y="0" type="line"/>
      <point x="254" y="551" type="line"/>
      <point x="487" y="766" type="line"/>
      <point x="1156" y="0" type="line"/>
      <point x="1226" y="0" type="line"/>
      <point x="527" y="803" type="line"/>
      <point x="1176" y="1456" type="line"/>
      <point x="1098" y="1456" type="line"/>
      <point x="254" y="614" type="line"/>
      <point x="254" y="1456" type="line"/>
      <point x="200" y="1456" type="line"/>
    </contour>
  </outline>
</glyph>
<glyph name="N" format="2">
  <advance width="1449"/>
  <unicode hex="004E"/>
  <note>
uni004E
</note>
  <outline>
    <contour>
      <point x="200" y="0" type="line"/>
      <point x="255" y="0" type="line"/>
      <point x="255" y="1364" type="line"/>
      <point x="1195" y="0" type="line"/>
      <point x="1249" y="0" type="line"/>
      <point x="1249" y="1456" type="line"/>
      <point x="1195" y="1456" type="line"/>
      <point x="1195" y="95" type="line"/>
      <point x="255" y="1456" type="line"/>
      <point x="200" y="1456" type="line"/>
    </contour>
  </outline>
</glyph>
<glyph name="O" format="2">
  <advance width="1408"/>
  <unicode hex="004F"/>
  <note>
uni004F
</note>
  <outline>
    <contour>
      <point x="683" y="-20" type="curve" smooth="yes"/>
      <point x="900" y="-20"/>
      <point x="1074" y="91"/>
      <point x="1164" y="285" type="curve" smooth="yes"/>
      <point x="1209" y="382"/>
      <point x="1231" y="493"/>
      <point x="1231" y="619" type="curve" smooth="yes"/>
      <point x="1231" y="837" type="line" smooth="yes"/>
      <point x="1231" y="1086"/>
      <point x="1137" y="1291"/>
      <point x="970" y="1397" type="curve" smooth="yes"/>
      <point x="886" y="1450"/>
      <point x="790" y="1476"/>
      <point x="681" y="1476" type="curve" smooth="yes"/>
      <point x="465" y="1476"/>
      <point x="291" y="1366"/>
      <point x="201" y="1171" type="curve" smooth="yes"/>
      <point x="156" y="1074"/>
      <point x="133" y="962"/>
      <point x="133" y="837" type="curve" smooth="yes"/>
      <point x="133" y="627" type="line" smooth="yes"/>
      <point x="133" y="231"/>
      <point x="355" y="-20"/>
    </contour>
    <contour>
      <point x="683" y="34" type="curve" smooth="yes"/>
      <point x="355" y="34"/>
      <point x="188" y="297"/>
      <point x="188" y="619" type="curve" smooth="yes"/>
      <point x="188" y="832" type="line" smooth="yes"/>
      <point x="188" y="1196"/>
      <point x="381" y="1422"/>
      <point x="681" y="1422" type="curve" smooth="yes"/>
      <point x="985" y="1422"/>
      <point x="1177" y="1191"/>
      <point x="1177" y="839" type="curve" smooth="yes"/>
      <point x="1177" y="627" type="line" smooth="yes"/>
      <point x="1177" y="260"/>
      <point x="987" y="34"/>
    </contour>
  </outline>
</glyph>
<glyph name="Q" format="2">
  <advance width="1408"/>
  <unicode hex="0051"/>
  <note>
uni0051
</note>
  <outline>
    <contour>
      <point x="1152" y="-263" type="line"/>
      <point x="1191" y="-228" type="line"/>
      <point x="924" y="33" type="line"/>
      <point x="1121" y="132"/>
      <point x="1231" y="347"/>
      <point x="1231" y="619" type="curve" smooth="yes"/>
      <point x="1231" y="837" type="line" smooth="yes"/>
      <point x="1231" y="1086"/>
      <point x="1137" y="1291"/>
      <point x="970" y="1397" type="curve" smooth="yes"/>
      <point x="886" y="1450"/>
      <point x="790" y="1476"/>
      <point x="681" y="1476" type="curve" smooth="yes"/>
      <point x="465" y="1476"/>
      <point x="291" y="1366"/>
      <point x="201" y="1171" type="curve" smooth="yes"/>
      <point x="156" y="1074"/>
      <point x="133" y="962"/>
      <point x="133" y="837" type="curve" smooth="yes"/>
      <point x="133" y="627" type="line" smooth="yes"/>
      <point x="133" y="231"/>
      <point x="355" y="-20"/>
      <point x="683" y="-20" type="curve" smooth="yes"/>
      <point x="746" y="-20"/>
      <point x="808" y="-10"/>
      <point x="868" y="10" type="curve"/>
    </contour>
    <contour>
      <point x="683" y="34" type="curve" smooth="yes"/>
      <point x="355" y="34"/>
      <point x="188" y="297"/>
      <point x="188" y="619" type="curve" smooth="yes"/>
      <point x="188" y="832" type="line" smooth="yes"/>
      <point x="188" y="1196"/>
      <point x="381" y="1422"/>
      <point x="681" y="1422" type="curve" smooth="yes"/>
      <point x="985" y="1422"/>
      <point x="1177" y="1191"/>
      <point x="1177" y="839" type="curve" smooth="yes"/>
      <point x="1177" y="627" type="line" smooth="yes"/>
      <point x="1177" y="260"/>
      <point x="987" y="34"/>
    </contour>
  </outline>
</glyph>
<glyph name="S" format="2">
  <advance width="1215"/>
  <unicode hex="0053"/>
  <note>
uni0053
</note>
  <outline>
    <contour>
      <point x="633" y="-20" type="curve" smooth="yes"/>
      <point x="886" y="-20"/>
      <point x="1127" y="102"/>
      <point x="1127" y="351" type="curve" smooth="yes"/>
      <point x="1127" y="466"/>
      <point x="1080" y="558"/>
      <point x="987" y="627" type="curve" smooth="yes"/>
      <point x="807" y="760"/>
      <point x="471" y="778"/>
      <point x="300" y="911" type="curve" smooth="yes"/>
      <point x="231" y="965"/>
      <point x="197" y="1035"/>
      <point x="197" y="1122" type="curve" smooth="yes"/>
      <point x="197" y="1294"/>
      <point x="370" y="1422"/>
      <point x="626" y="1422" type="curve" smooth="yes"/>
      <point x="881" y="1422"/>
      <point x="1057" y="1263"/>
      <point x="1057" y="1046" type="curve"/>
      <point x="1111" y="1046" type="line"/>
      <point x="1111" y="1211"/>
      <point x="1026" y="1349"/>
      <point x="878" y="1422" type="curve" smooth="yes"/>
      <point x="803" y="1458"/>
      <point x="719" y="1476"/>
      <point x="626" y="1476" type="curve" smooth="yes"/>
      <point x="339" y="1476"/>
      <point x="143" y="1332"/>
      <point x="143" y="1120" type="curve" smooth="yes"/>
      <point x="143" y="866"/>
      <point x="376" y="787"/>
      <point x="609" y="722" type="curve" smooth="yes"/>
      <point x="840" y="659"/>
      <point x="1072" y="589"/>
      <point x="1072" y="349" type="curve" smooth="yes"/>
      <point x="1072" y="162"/>
      <point x="888" y="34"/>
      <point x="633" y="34" type="curve" smooth="yes"/>
      <point x="346" y="34"/>
      <point x="150" y="172"/>
      <point x="150" y="411" type="curve"/>
      <point x="96" y="411" type="line"/>
      <point x="96" y="235"/>
      <point x="181" y="103"/>
      <point x="349" y="33" type="curve" smooth="yes"/>
      <point x="433" y="-3"/>
      <point x="528" y="-20"/>
    </contour>
  </outline>
</glyph>
<glyph name="X" format="2">
  <advance width="1284"/>
  <unicode hex="0058"/>
  <note>
uni0058
</note>
  <outline>
    <contour>
      <point x="54" y="0" type="line"/>
      <point x="119" y="0" type="line"/>
      <point x="611" y="701" type="line"/>
      <point x="1101" y="0" type="line"/>
      <point x="1168" y="0" type="line"/>
      <point x="645" y="743" type="line"/>
      <point x="1149" y="1456" type="line"/>
      <point x="1081" y="1456" type="line"/>
      <point x="611" y="785" type="line"/>
      <point x="141" y="1456" type="line"/>
      <point x="73" y="1456" type="line"/>
      <point x="577" y="743" type="line"/>
    </contour>
  </outline>
</glyph>
<glyph name="Y" format="2">
  <advance width="1230"/>
  <unicode hex="0059"/>
  <note>
uni0059
</note>
  <outline>
    <contour>
      <point x="582" y="0" type="line"/>
      <point x="636" y="0" type="line"/>
      <point x="636" y="553" type="line"/>
      <point x="1185" y="1456" type="line"/>
      <point x="1119" y="1456" type="line"/>
      <point x="609" y="602" type="line"/>
      <point x="105" y="1456" type="line"/>
      <point x="33" y="1456" type="line"/>
      <point x="582" y="553" type="line"/>
    </contour>
  </outline>
</glyph>
<glyph name="bracketright" format="2">
  <advance width="543"/>
  <unicode hex="005D"/>
  <note>
uni005D
</note>
  <outline>
    <contour>
      <point x="-8" y="-312" type="line"/>
      <point x="275" y="-312" type="line"/>
      <point x="275" y="1664" type="line"/>
      <point x="-8" y="1664" type="line"/>
      <point x="-8" y="1610" type="line"/>
      <point x="220" y="1610" type="line"/>
      <point x="220" y="-258" type="line"/>
      <point x="-8" y="-258" type="line"/>
    </contour>
  </outline>
</glyph>
<glyph name="asciicircum" format="2">
  <advance width="856"/>
  <unicode hex="005E"/>
  <note>
uni005E
</note>
  <outline>
    <contour>
      <point x="91" y="729" type="line"/>
      <point x="150" y="729" type="line"/>
      <point x="416" y="1382" type="line"/>
      <point x="680" y="729" type="line"/>
      <point x="741" y="729" type="line"/>
      <point x="442" y="1456" type="line"/>
      <point x="390" y="1456" type="line"/>
    </contour>
  </outline>
</glyph>
<glyph name="e" format="2">
  <advance width="1085"/>
  <unicode hex="0065"/>
  <note>
uni0065
</note>
  <outline>
    <contour>
      <point x="591" y="-20" type="curve" smooth="yes"/>
      <point x="750" y="-20"/>
      <point x="869" y="38"/>
      <point x="950" y="155" type="curve"/>
      <point x="912" y="182" type="line"/>
      <point x="833" y="81"/>
      <point x="736" y="33"/>
      <point x="591" y="33" type="curve" smooth="yes"/>
      <point x="344" y="33"/>
      <point x="171" y="262"/>
      <point x="171" y="577" type="curve"/>
      <point x="982" y="577" type="line"/>
      <point x="982" y="634" type="line" smooth="yes"/>
      <point x="982" y="914"/>
      <point x="812" y="1102"/>
      <point x="571" y="1102" type="curve" smooth="yes"/>
      <point x="406" y="1102"/>
      <point x="257" y="1004"/>
      <point x="177" y="837" type="curve" smooth="yes"/>
      <point x="137" y="754"/>
      <point x="117" y="662"/>
      <point x="117" y="517" type="curve" smooth="yes"/>
      <point x="117" y="228"/>
      <point x="312" y="-20"/>
    </contour>
    <contour>
      <point x="174" y="631" type="line"/>
      <point x="199" y="874"/>
      <point x="360" y="1048"/>
      <point x="571" y="1048" type="curve" smooth="yes"/>
      <point x="788" y="1048"/>
      <point x="928" y="861"/>
      <point x="928" y="644" type="curve" smooth="yes"/>
      <point x="928" y="631" type="line"/>
    </contour>
  </outline>
</glyph>
<glyph name="i" format="2">
  <advance width="422"/>
  <unicode hex="0069"/>
  <note>
uni0069
</note>
  <outline>
    <contour>
      <point x="185" y="0" type="line"/>
      <point x="239" y="0" type="line"/>
      <point x="239" y="1082" type="line"/>
      <point x="185" y="1082" type="line"/>
    </contour>
    <contour>
      <point x="212" y="1365" type="curve" smooth="yes"/>
      <point x="242.667" y="1365"/>
      <point x="268" y="1389.333"/>
      <point x="268" y="1420" type="curve" smooth="yes"/>
      <point x="268" y="1450.667"/>
      <point x="242.667" y="1476"/>
      <point x="212" y="1476" type="curve" smooth="yes"/>
      <point x="181.333" y="1476"/>
      <point x="157" y="1450.667"/>
      <point x="157" y="1420" type="curve" smooth="yes"/>
      <point x="157" y="1389.333"/>
      <point x="181.333" y="1365"/>
    </contour>
  </outline>
</glyph>
<glyph name="m" format="2">
  <advance width="1795"/>
  <unicode hex="006D"/>
  <note>
uni006D
</note>
  <outline>
    <contour>
      <point x="170" y="0" type="line"/>
      <point x="225" y="0" type="line"/>
      <point x="225" y="684" type="line"/>
      <point x="264" y="880"/>
      <point x="401" y="1049"/>
      <point x="605" y="1049" type="curve" smooth="yes"/>
      <point x="810" y="1049"/>
      <point x="900" y="944"/>
      <point x="901" y="727" type="curve" smooth="yes"/>
      <point x="901" y="0" type="line"/>
      <point x="955" y="0" type="line"/>
      <point x="955" y="720" type="line"/>
      <point x="964" y="846"/>
      <point x="1093" y="1045"/>
      <point x="1339" y="1049" type="curve" smooth="yes"/>
      <point x="1543" y="1052"/>
      <point x="1635" y="939"/>
      <point x="1635" y="702" type="curve" smooth="yes"/>
      <point x="1635" y="0" type="line"/>
      <point x="1689" y="0" type="line"/>
      <point x="1689" y="706" type="line" smooth="yes"/>
      <point x="1688" y="970"/>
      <point x="1575" y="1102"/>
      <point x="1342" y="1102" type="curve" smooth="yes"/>
      <point x="1163" y="1102"/>
      <point x="1008" y="1002"/>
      <point x="944" y="846" type="curve"/>
      <point x="908" y="1027"/>
      <point x="789" y="1102"/>
      <point x="608" y="1102" type="curve" smooth="yes"/>
      <point x="443" y="1102"/>
      <point x="298" y="1002"/>
      <point x="225" y="826" type="curve"/>
      <point x="225" y="1082" type="line"/>
      <point x="170" y="1082" type="line"/>
    </contour>
  </outline>
</glyph>
<glyph name="n" format="2">
  <advance width="1121"/>
  <unicode hex="006E"/>
  <note>
uni006E
</note>
  <outline>
    <contour>
      <point x="172" y="0" type="line"/>
      <point x="226" y="0" type="line"/>
      <point x="226" y="693" type="line"/>
      <point x="274" y="902.333"/>
      <point x="420.333" y="1049"/>
      <point x="607" y="1049" type="curve" smooth="yes"/>
      <point x="809.667" y="1049"/>
      <point x="898.667" y="940"/>
      <point x="900" y="708" type="curve" smooth="yes"/>
      <point x="900" y="0" type="line"/>
      <point x="954" y="0" type="line"/>
      <point x="954" y="706" type="line" smooth="yes"/>
      <point x="952.667" y="971.333"/>
      <point x="842" y="1102"/>
      <point x="610" y="1102" type="curve" smooth="yes"/>
      <point x="443.333" y="1102"/>
      <point x="296.667" y="998"/>
      <point x="226" y="830" type="curve"/>
      <point x="226" y="1082" type="line"/>
      <point x="172" y="1082" type="line"/>
    </contour>
  </outline>
</glyph>
<glyph name="o" format="2">
  <advance width="1168"/>
  <unicode hex="006F"/>
  <note>
uni006F
</note>
  <outline>
    <contour>
      <point x="565" y="-20" type="curve" smooth="yes"/>
      <point x="749" y="-20"/>
      <point x="899.333" y="77"/>
      <point x="978" y="241" type="curve" smooth="yes"/>
      <point x="1017.333" y="323"/>
      <point x="1037" y="416"/>
      <point x="1037" y="520" type="curve" smooth="yes"/>
      <point x="1037" y="568" type="line" smooth="yes"/>
      <point x="1037" y="868"/>
      <point x="853" y="1102"/>
      <point x="563" y="1102" type="curve" smooth="yes"/>
      <point x="380.333" y="1102"/>
      <point x="228.833" y="1005.167"/>
      <point x="149.5" y="840.5" type="curve" smooth="yes"/>
      <point x="109.833" y="758.167"/>
      <point x="90" y="665.333"/>
      <point x="90" y="562" type="curve" smooth="yes"/>
      <point x="90" y="514" type="line" smooth="yes"/>
      <point x="90" y="140"/>
      <point x="340" y="-20"/>
    </contour>
    <contour>
      <point x="565" y="34" type="curve" smooth="yes"/>
      <point x="301" y="34"/>
      <point x="144" y="261"/>
      <point x="144" y="520" type="curve" smooth="yes"/>
      <point x="144" y="837.333"/>
      <point x="316.333" y="1048"/>
      <point x="563" y="1048" type="curve" smooth="yes"/>
      <point x="824" y="1048"/>
      <point x="983" y="818"/>
      <point x="983" y="531" type="curve" smooth="yes"/>
      <point x="983" y="239"/>
      <point x="811.667" y="34"/>
    </contour>
  </outline>
</glyph>
<glyph name="s" format="2">
  <advance width="1019"/>
  <unicode hex="0073"/>
  <note>
uni0073
</note>
  <outline>
    <contour>
      <point x="513" y="-20" type="curve" smooth="yes"/>
      <point x="739.667" y="-20"/>
      <point x="893" y="93.333"/>
      <point x="893" y="264" type="curve" smooth="yes"/>
      <point x="893" y="469"/>
      <point x="720" y="534"/>
      <point x="533" y="577" type="curve" smooth="yes"/>
      <point x="364" y="616"/>
      <point x="197" y="658"/>
      <point x="197" y="831" type="curve" smooth="yes"/>
      <point x="197" y="955"/>
      <point x="315.667" y="1048"/>
      <point x="505" y="1048" type="curve" smooth="yes"/>
      <point x="702.333" y="1048"/>
      <point x="837" y="938.333"/>
      <point x="837" y="793" type="curve"/>
      <point x="892" y="793" type="line"/>
      <point x="892" y="982.333"/>
      <point x="738.333" y="1102"/>
      <point x="505" y="1102" type="curve" smooth="yes"/>
      <point x="290.333" y="1102"/>
      <point x="143" y="987.667"/>
      <point x="143" y="829" type="curve" smooth="yes"/>
      <point x="143" y="671.667"/>
      <point x="233.667" y="590.333"/>
      <point x="503" y="533" type="curve" smooth="yes"/>
      <point x="727" y="485.667"/>
      <point x="839" y="396.333"/>
      <point x="839" y="265" type="curve" smooth="yes"/>
      <point x="839" y="137"/>
      <point x="706.333" y="34"/>
      <point x="513" y="34" type="curve" smooth="yes"/>
      <point x="302.333" y="34"/>
      <point x="172.667" y="123"/>
      <point x="162" y="275" type="curve"/>
      <point x="108" y="275" type="line"/>
      <point x="108" y="101.667"/>
      <point x="270.333" y="-20"/>
    </contour>
  </outline>
</glyph>
<glyph name="t" format="2">
  <advance width="669"/>
  <unicode hex="0074"/>
  <note>
uni0074
</note>
  <outline>
    <contour>
      <point x="459" y="-20" type="curve" smooth="yes"/>
      <point x="512.333" y="-20"/>
      <point x="550" y="-16"/>
      <point x="572" y="-8" type="curve"/>
      <point x="563" y="43" type="line"/>
      <point x="521" y="37"/>
      <point x="485.333" y="34"/>
      <point x="456" y="34" type="curve" smooth="yes"/>
      <point x="338.667" y="34"/>
      <point x="293" y="105.667"/>
      <point x="293" y="259" type="curve" smooth="yes"/>
      <point x="293" y="1027" type="line"/>
      <point x="539" y="1027" type="line"/>
      <point x="539" y="1082" type="line"/>
      <point x="293" y="1082" type="line"/>
      <point x="293" y="1374" type="line"/>
      <point x="238" y="1374" type="line"/>
      <point x="238" y="1082" type="line"/>
      <point x="38" y="1082" type="line"/>
      <point x="38" y="1027" type="line"/>
      <point x="238" y="1027" type="line"/>
      <point x="238" y="252" type="line" smooth="yes"/>
      <point x="239.333" y="64"/>
      <point x="301.667" y="-20"/>
    </contour>
  </outline>
</glyph>
<glyph name="u" format="2">
  <advance width="1129"/>
  <unicode hex="0075"/>
  <note>
uni0075
</note>
  <outline>
    <contour>
      <point x="524" y="-20" type="curve" smooth="yes"/>
      <point x="712" y="-20"/>
      <point x="833" y="55"/>
      <point x="897" y="175" type="curve"/>
      <point x="897" y="0" type="line"/>
      <point x="952" y="0" type="line"/>
      <point x="952" y="1082" type="line"/>
      <point x="897" y="1082" type="line"/>
      <point x="897" y="321" type="line"/>
      <point x="862.333" y="133"/>
      <point x="728.667" y="34"/>
      <point x="522" y="34" type="curve" smooth="yes"/>
      <point x="327.333" y="34"/>
      <point x="224.667" y="153.667"/>
      <point x="222" y="383" type="curve" smooth="yes"/>
      <point x="222" y="1082" type="line"/>
      <point x="168" y="1082" type="line"/>
      <point x="168" y="385" type="line" smooth="yes"/>
      <point x="170.667" y="121"/>
      <point x="288" y="-20"/>
    </contour>
  </outline>
</glyph>
<glyph name="y" format="2">
  <advance width="969"/>
  <unicode hex="0079"/>
  <note>
uni0079
</note>
  <outline>
    <contour>
      <point x="168" y="-437" type="curve" smooth="yes"/>
      <point x="288" y="-437"/>
      <point x="378" y="-376"/>
      <point x="450" y="-188" type="curve" smooth="yes"/>
      <point x="934" y="1082" type="line"/>
      <point x="874" y="1082" type="line"/>
      <point x="493" y="84" type="line"/>
      <point x="92" y="1082" type="line"/>
      <point x="33" y="1082" type="line"/>
      <point x="464" y="6" type="line"/>
      <point x="398" y="-173" type="line" smooth="yes"/>
      <point x="343" y="-322"/>
      <point x="264" y="-399"/>
      <point x="152" y="-384" type="curve" smooth="yes"/>
      <point x="87" y="-375" type="line"/>
      <point x="88" y="-426" type="line"/>
      <point x="103" y="-433"/>
      <point x="129" y="-437"/>
    </contour>
  </outline>
</glyph>
<glyph name="braceleft" format="2">
  <advance width="660"/>
  <unicode hex="007B"/>
  <note>
uni007B
</note>
  <outline>
    <contour>
      <point x="642" y="-441" type="curve"/>
      <point x="662" y="-395" type="line"/>
      <point x="472" y="-331"/>
      <point x="377" y="-190.667"/>
      <point x="377" y="26" type="curve" smooth="yes"/>
      <point x="377" y="255" type="line" smooth="yes"/>
      <point x="377" y="433.667"/>
      <point x="306.667" y="540.667"/>
      <point x="166" y="576" type="curve"/>
      <point x="306.667" y="608.667"/>
      <point x="377" y="715.667"/>
      <point x="377" y="897" type="curve" smooth="yes"/>
      <point x="377" y="1125" type="line" smooth="yes"/>
      <point x="377" y="1349"/>
      <point x="470.333" y="1491.333"/>
      <point x="657" y="1552" type="curve"/>
      <point x="642" y="1597" type="line"/>
      <point x="430" y="1530.333"/>
      <point x="324.333" y="1382.667"/>
      <point x="323" y="1136" type="curve" smooth="yes"/>
      <point x="323" y="889" type="line" smooth="yes"/>
      <point x="323" y="702.333"/>
      <point x="239.667" y="609"/>
      <point x="73" y="609" type="curve"/>
      <point x="73" y="543" type="line"/>
      <point x="239.667" y="543"/>
      <point x="323" y="449"/>
      <point x="323" y="261" type="curve" smooth="yes"/>
      <point x="323" y="20" type="line" smooth="yes"/>
      <point x="323" y="-226.667"/>
      <point x="428.667" y="-374.333"/>
    </contour>
  </outline>
</glyph>
<glyph name="bar" format="2">
  <advance width="499"/>
  <unicode hex="007C"/>
  <note>
uni007C
</note>
  <outline>
    <contour>
      <point x="181" y="-270" type="line"/>
      <point x="235" y="-270" type="line"/>
      <point x="235" y="1456" type="line"/>
      <point x="181" y="1456" type="line"/>
    </contour>
  </outline>
</glyph>
<glyph name="braceright" format="2">
  <advance width="660"/>
  <unicode hex="007D"/>
  <note>
uni007D
</note>
  <outline>
    <contour>
      <point x="19" y="-441" type="line"/>
      <point x="235" y="-373"/>
      <point x="338" y="-227"/>
      <point x="338" y="21" type="curve" smooth="yes"/>
      <point x="338" y="258" type="line" smooth="yes"/>
      <point x="338" y="448"/>
      <point x="421.333" y="543"/>
      <point x="588" y="543" type="curve"/>
      <point x="588" y="609" type="line"/>
      <point x="421.333" y="609"/>
      <point x="338" y="703.333"/>
      <point x="338" y="892" type="curve" smooth="yes"/>
      <point x="338" y="1141" type="line" smooth="yes"/>
      <point x="335.333" y="1382.333"/>
      <point x="232.333" y="1530.333"/>
      <point x="19" y="1597" type="curve"/>
      <point x="5" y="1552" type="line"/>
      <point x="191" y="1492"/>
      <point x="284" y="1349.333"/>
      <point x="284" y="1124" type="curve" smooth="yes"/>
      <point x="284" y="897" type="line" smooth="yes"/>
      <point x="284" y="715.667"/>
      <point x="354.333" y="608.667"/>
      <point x="495" y="576" type="curve"/>
      <point x="354.333" y="540.667"/>
      <point x="284" y="433.667"/>
      <point x="284" y="255" type="curve" smooth="yes"/>
      <point x="284" y="22" type="line" smooth="yes"/>
      <point x="284" y="-191.333"/>
      <point x="189.333" y="-330.333"/>
      <point x="0" y="-395" type="curve"/>
    </contour>
  </outline>
</glyph>
<glyph name="exclamdown" format="2">
  <advance width="499"/>
  <unicode hex="00A1"/>
  <note>
uni00A1
</note>
  <outline>
    <contour>
      <point x="179" y="-359" type="line"/>
      <point x="233" y="-359" type="line"/>
      <point x="233" y="696" type="line"/>
      <point x="179" y="696" type="line"/>
    </contour>
    <contour>
      <point x="198" y="992" type="curve" smooth="yes"/>
      <point x="228.667" y="992"/>
      <point x="253" y="1017.333"/>
      <point x="253" y="1048" type="curve" smooth="yes"/>
      <point x="253" y="1078.667"/>
      <point x="228.667" y="1103"/>
      <point x="198" y="1103" type="curve" smooth="yes"/>
      <point x="167.333" y="1103"/>
      <point x="142" y="1078.667"/>
      <point x="142" y="1048" type="curve" smooth="yes"/>
      <point x="142" y="1017.333"/>
      <point x="167.333" y="992"/>
    </contour>
  </outline>
</glyph>
<glyph name="sterling" format="2">
  <advance width="1190"/>
  <unicode hex="00A3"/>
  <note>
uni00A3
</note>
  <outline>
    <contour>
      <point x="99" y="0" type="line"/>
      <point x="1061" y="0" type="line"/>
      <point x="1060" y="54" type="line"/>
      <point x="303" y="54" type="line"/>
      <point x="350.333" y="112.667"/>
      <point x="372.667" y="206.667"/>
      <point x="370" y="336" type="curve" smooth="yes"/>
      <point x="360" y="667" type="line"/>
      <point x="728" y="667" type="line"/>
      <point x="728" y="721" type="line"/>
      <point x="358" y="721" type="line"/>
      <point x="349" y="1039" type="line"/>
      <point x="349" y="1283"/>
      <point x="465" y="1422"/>
      <point x="661" y="1422" type="curve" smooth="yes"/>
      <point x="859.667" y="1422"/>
      <point x="981" y="1301"/>
      <point x="981" y="1089" type="curve"/>
      <point x="1035" y="1089" type="line"/>
      <point x="1035" y="1327.667"/>
      <point x="891.667" y="1476"/>
      <point x="661" y="1476" type="curve" smooth="yes"/>
      <point x="437" y="1476"/>
      <point x="295" y="1311"/>
      <point x="295" y="1039" type="curve"/>
      <point x="304" y="721" type="line"/>
      <point x="95" y="721" type="line"/>
      <point x="95" y="667" type="line"/>
      <point x="306" y="667" type="line"/>
      <point x="316" y="336" type="line" smooth="yes"/>
      <point x="318.667" y="193.333"/>
      <point x="283" y="72.667"/>
      <point x="219" y="54" type="curve"/>
      <point x="99" y="54" type="line"/>
    </contour>
  </outline>
</glyph>
<glyph name="currency" format="2">
  <advance width="1460"/>
  <unicode hex="00A4"/>
  <note>
uni00A4
</note>
  <outline>
    <contour>
      <point x="1231" y="-117" type="line"/>
      <point x="1283" y="-81" type="line"/>
      <point x="1140" y="63" type="line"/>
      <point x="1297" y="254"/>
      <point x="1311" y="387"/>
      <point x="1311" y="518" type="curve" smooth="yes"/>
      <point x="1311" y="708"/>
      <point x="1220" y="859"/>
      <point x="1132" y="974" type="curve"/>
      <point x="1283" y="1128" type="line"/>
      <point x="1231" y="1175" type="line"/>
      <point x="1082" y="1023" type="line"/>
      <point x="976" y="1104"/>
      <point x="858" y="1144"/>
      <point x="727" y="1144" type="curve" smooth="yes"/>
      <point x="597" y="1144"/>
      <point x="389" y="1082"/>
      <point x="284" y="944" type="curve"/>
      <point x="137" y="1094" type="line"/>
      <point x="97" y="1038" type="line"/>
      <point x="244" y="887" type="line"/>
      <point x="169" y="778"/>
      <point x="132" y="655"/>
      <point x="132" y="518" type="curve" smooth="yes"/>
      <point x="132" y="383"/>
      <point x="167" y="264"/>
      <point x="236" y="160" type="curve"/>
      <point x="97" y="19" type="line"/>
      <point x="147" y="-26" type="line"/>
      <point x="281" y="110" type="line"/>
      <point x="380" y="-35"/>
      <point x="589" y="-110"/>
      <point x="727" y="-110" type="curve" smooth="yes"/>
      <point x="866" y="-110"/>
      <point x="989" y="-66"/>
      <point x="1095" y="22" type="curve"/>
    </contour>
    <contour>
      <point x="716" y="-52" type="curve" smooth="yes"/>
      <point x="429" y="-52"/>
      <point x="191" y="200"/>
      <point x="191" y="513" type="curve" smooth="yes"/>
      <point x="191" y="819"/>
      <point x="423" y="1075"/>
      <point x="716" y="1075" type="curve" smooth="yes"/>
      <point x="1156" y="1070"/>
      <point x="1239" y="670"/>
      <point x="1239" y="529" type="curve" smooth="yes"/>
      <point x="1239" y="228"/>
      <point x="1022" y="-52"/>
    </contour>
  </outline>
</glyph>
<glyph name="section" format="2">
  <advance width="1223"/>
  <unicode hex="00A7"/>
  <outline>
    <contour>
      <point x="600" y="-495" type="curve" smooth="yes"/>
      <point x="876" y="-495"/>
      <point x="1050" y="-362.333"/>
      <point x="1050" y="-149" type="curve" smooth="yes"/>
      <point x="1050" y="0.333"/>
      <point x="979.333" y="92"/>
      <point x="790" y="164" type="curve"/>
      <point x="976.667" y="190.667"/>
      <point x="1094" y="291"/>
      <point x="1094" y="431" type="curve" smooth="yes"/>
      <point x="1094" y="682"/>
      <point x="847" y="746"/>
      <point x="616" y="804" type="curve" smooth="yes"/>
      <point x="406" y="864"/>
      <point x="220" y="913"/>
      <point x="220" y="1132" type="curve" smooth="yes"/>
      <point x="220" y="1313.333"/>
      <point x="372.667" y="1422"/>
      <point x="618" y="1422" type="curve" smooth="yes"/>
      <point x="860.667" y="1422"/>
      <point x="1018" y="1267.667"/>
      <point x="1018" y="1045" type="curve"/>
      <point x="1072" y="1045" type="line"/>
      <point x="1072" y="1319.667"/>
      <point x="904.667" y="1476"/>
      <point x="618" y="1476" type="curve" smooth="yes"/>
      <point x="342" y="1476"/>
      <point x="166" y="1338.333"/>
      <point x="166" y="1129" type="curve" smooth="yes"/>
      <point x="166" y="985"/>
      <point x="235" y="890"/>
      <point x="407" y="822" type="curve"/>
      <point x="231" y="795.333"/>
      <point x="121" y="696.333"/>
      <point x="121" y="551" type="curve" smooth="yes"/>
      <point x="121" y="361.667"/>
      <point x="245.667" y="251.333"/>
      <point x="607" y="166" type="curve" smooth="yes"/>
      <point x="810" y="112"/>
      <point x="995" y="59"/>
      <point x="995" y="-151" type="curve" smooth="yes"/>
      <point x="995" y="-326"/>
      <point x="844" y="-441"/>
      <point x="600" y="-441" type="curve" smooth="yes"/>
      <point x="334.667" y="-441"/>
      <point x="169" y="-302"/>
      <point x="169" y="-62" type="curve"/>
      <point x="115" y="-64" type="line"/>
      <point x="115" y="-338.667"/>
      <point x="298.667" y="-495"/>
    </contour>
    <contour>
      <point x="693" y="196" type="curve"/>
      <point x="525.667" y="242"/>
      <point x="410.5" y="279.5"/>
      <point x="347.5" y="308.5" type="curve" smooth="yes"/>
      <point x="221.5" y="366.5"/>
      <point x="175" y="429"/>
      <point x="175" y="553" type="curve" smooth="yes"/>
      <point x="175" y="695.667"/>
      <point x="291.333" y="789.333"/>
      <point x="482" y="796" type="curve"/>
      <point x="590" y="766" type="line" smooth="yes"/>
      <point x="769" y="716"/>
      <point x="1040" y="656"/>
      <point x="1040" y="428" type="curve" smooth="yes"/>
      <point x="1040" y="293.333"/>
      <point x="902.333" y="198.667"/>
    </contour>
  </outline>
</glyph>
<glyph name="dieresis" format="2">
  <advance width="906"/>
  <unicode hex="00A8"/>
  <note>
uni00A8
</note>
  <outline>
    <contour>
      <point x="674" y="1366" type="curve" smooth="yes"/>
      <point x="704.667" y="1366"/>
      <point x="730" y="1390.333"/>
      <point x="730" y="1421" type="curve" smooth="yes"/>
      <point x="730" y="1451.667"/>
      <point x="704.667" y="1477"/>
      <point x="674" y="1477" type="curve" smooth="yes"/>
      <point x="643.333" y="1477"/>
      <point x="619" y="1451.667"/>
      <point x="619" y="1421" type="curve" smooth="yes"/>
      <point x="619" y="1390.333"/>
      <point x="643.333" y="1366"/>
    </contour>
    <contour>
      <point x="229" y="1366" type="curve" smooth="yes"/>
      <point x="259.667" y="1366"/>
      <point x="285" y="1390.333"/>
      <point x="285" y="1421" type="curve" smooth="yes"/>
      <point x="285" y="1451.667"/>
      <point x="259.667" y="1477"/>
      <point x="229" y="1477" type="curve" smooth="yes"/>
      <point x="198.333" y="1477"/>
      <point x="174" y="1451.667"/>
      <point x="174" y="1421" type="curve" smooth="yes"/>
      <point x="174" y="1390.333"/>
      <point x="198.333" y="1366"/>
    </contour>
  </outline>
</glyph>
<glyph name="copyright" format="2">
  <advance width="1609"/>
  <unicode hex="00A9"/>
  <note>
uni00A9
</note>
  <outline>
    <contour>
      <point x="833" y="-21" type="curve" smooth="yes"/>
      <point x="1095.667" y="-21"/>
      <point x="1330.667" y="128.667"/>
      <point x="1452" y="358" type="curve" smooth="yes"/>
      <point x="1512.667" y="472.667"/>
      <point x="1543" y="596.333"/>
      <point x="1543" y="729" type="curve" smooth="yes"/>
      <point x="1543" y="998.333"/>
      <point x="1411.167" y="1243.833"/>
      <point x="1190.5" y="1376.5" type="curve" smooth="yes"/>
      <point x="1080.167" y="1442.833"/>
      <point x="961" y="1476"/>
      <point x="833" y="1476" type="curve" smooth="yes"/>
      <point x="577" y="1476"/>
      <point x="341.167" y="1334.667"/>
      <point x="216.5" y="1104" type="curve" smooth="yes"/>
      <point x="154.167" y="988.667"/>
      <point x="123" y="863.667"/>
      <point x="123" y="729" type="curve" smooth="yes"/>
      <point x="123" y="463.667"/>
      <point x="249.833" y="220.5"/>
      <point x="470.5" y="82.5" type="curve" smooth="yes"/>
      <point x="580.833" y="13.5"/>
      <point x="701.667" y="-21"/>
    </contour>
    <contour>
      <point x="826" y="302" type="curve" smooth="yes"/>
      <point x="1014" y="302"/>
      <point x="1124" y="413.333"/>
      <point x="1124" y="616" type="curve"/>
      <point x="1072" y="616" type="line"/>
      <point x="1072" y="443.333"/>
      <point x="990" y="357"/>
      <point x="826" y="357" type="curve" smooth="yes"/>
      <point x="666" y="357"/>
      <point x="561" y="490.333"/>
      <point x="561" y="689" type="curve" smooth="yes"/>
      <point x="561" y="763" type="line" smooth="yes"/>
      <point x="561" y="969.667"/>
      <point x="667.333" y="1102"/>
      <point x="826" y="1102" type="curve" smooth="yes"/>
      <point x="984.667" y="1102"/>
      <point x="1073" y="1016.667"/>
      <point x="1073" y="842" type="curve"/>
      <point x="1125" y="842" type="line"/>
      <point x="1125" y="1039.333"/>
      <point x="1016.667" y="1155"/>
      <point x="826" y="1155" type="curve" smooth="yes"/>
      <point x="636.667" y="1155"/>
      <point x="506" y="998.667"/>
      <point x="506" y="768" type="curve" smooth="yes"/>
      <point x="506" y="693" type="line" smooth="yes"/>
      <point x="506" y="458.333"/>
      <point x="634" y="302"/>
    </contour>
    <contour>
      <point x="833" y="34" type="curve" smooth="yes"/>
      <point x="601" y="34"/>
      <point x="385.5" y="164.167"/>
      <point x="267.5" y="379.5" type="curve" smooth="yes"/>
      <point x="208.5" y="487.167"/>
      <point x="179" y="603.667"/>
      <point x="179" y="729" type="curve" smooth="yes"/>
      <point x="179" y="981"/>
      <point x="305.333" y="1208.667"/>
      <point x="508" y="1330" type="curve" smooth="yes"/>
      <point x="609.333" y="1390.667"/>
      <point x="717.667" y="1421"/>
      <point x="833" y="1421" type="curve" smooth="yes"/>
      <point x="1066.333" y="1421"/>
      <point x="1284" y="1288.167"/>
      <point x="1400" y="1075.5" type="curve" smooth="yes"/>
      <point x="1458" y="969.167"/>
      <point x="1487" y="853.667"/>
      <point x="1487" y="729" type="curve" smooth="yes"/>
      <point x="1487" y="481"/>
      <point x="1363.667" y="253.333"/>
      <point x="1161" y="128" type="curve" smooth="yes"/>
      <point x="1059.667" y="65.333"/>
      <point x="950.333" y="34"/>
    </contour>
  </outline>
</glyph>
<glyph name="ordfeminine" format="2">
  <advance width="915"/>
  <unicode hex="00AA"/>
  <note>
uni00AA
</note>
  <outline>
    <contour>
      <point x="417" y="691" type="curve" smooth="yes"/>
      <point x="511.667" y="691"/>
      <point x="606" y="743"/>
      <point x="658" y="823" type="curve"/>
      <point x="660.667" y="780.333"/>
      <point x="668" y="741"/>
      <point x="680" y="705" type="curve"/>
      <point x="738" y="705" type="line"/>
      <point x="720.667" y="763"/>
      <point x="712" y="822.667"/>
      <point x="712" y="884" type="curve" smooth="yes"/>
      <point x="712" y="1200" type="line" smooth="yes"/>
      <point x="712" y="1376"/>
      <point x="612.667" y="1476"/>
      <point x="458" y="1476" type="curve" smooth="yes"/>
      <point x="286" y="1476"/>
      <point x="167" y="1379"/>
      <point x="167" y="1243" type="curve"/>
      <point x="221" y="1243" type="line"/>
      <point x="221" y="1364.333"/>
      <point x="312.667" y="1422"/>
      <point x="458" y="1422" type="curve" smooth="yes"/>
      <point x="591.333" y="1422"/>
      <point x="657" y="1339.667"/>
      <point x="657" y="1201" type="curve" smooth="yes"/>
      <point x="657" y="1132" type="line"/>
      <point x="487" y="1132" type="line" smooth="yes"/>
      <point x="284.333" y="1132"/>
      <point x="168" y="1045.333"/>
      <point x="168" y="900" type="curve" smooth="yes"/>
      <point x="168" y="773.333"/>
      <point x="255.667" y="691"/>
    </contour>
    <contour>
      <point x="418" y="746" type="curve" smooth="yes"/>
      <point x="287.333" y="746"/>
      <point x="222" y="798.667"/>
      <point x="222" y="904" type="curve" smooth="yes"/>
      <point x="222" y="1020"/>
      <point x="311.333" y="1078"/>
      <point x="490" y="1078" type="curve" smooth="yes"/>
      <point x="657" y="1078" type="line"/>
      <point x="657" y="899" type="line"/>
      <point x="630.333" y="820.333"/>
      <point x="511.333" y="746"/>
    </contour>
  </outline>
</glyph>
<glyph name="degree" format="2">
  <advance width="765"/>
  <unicode hex="00B0"/>
  <note>
uni00B0
</note>
  <outline>
    <contour>
      <point x="392" y="999" type="curve" smooth="yes"/>
      <point x="520" y="999"/>
      <point x="624" y="1105.333"/>
      <point x="624" y="1236" type="curve" smooth="yes"/>
      <point x="624" y="1365.333"/>
      <point x="520" y="1476"/>
      <point x="392" y="1476" type="curve" smooth="yes"/>
      <point x="261.333" y="1476"/>
      <point x="156" y="1365.333"/>
      <point x="156" y="1236" type="curve" smooth="yes"/>
      <point x="156" y="1104"/>
      <point x="261.333" y="999"/>
    </contour>
    <contour>
      <point x="392" y="1055" type="curve" smooth="yes"/>
      <point x="286.667" y="1055"/>
      <point x="211" y="1133.333"/>
      <point x="211" y="1236" type="curve" smooth="yes"/>
      <point x="211" y="1341.333"/>
      <point x="288" y="1421"/>
      <point x="392" y="1421" type="curve" smooth="yes"/>
      <point x="492" y="1421"/>
      <point x="568" y="1345.333"/>
      <point x="568" y="1236" type="curve" smooth="yes"/>
      <point x="568" y="1129.333"/>
      <point x="493.333" y="1055"/>
    </contour>
  </outline>
</glyph>
<glyph name="threesuperior" format="2">
  <advance width="751"/>
  <unicode hex="00B3"/>
  <note>
uni00B3
</note>
  <outline>
    <contour>
      <point x="367" y="653" type="curve" smooth="yes"/>
      <point x="529.667" y="653"/>
      <point x="637" y="741.667"/>
      <point x="637" y="875" type="curve" smooth="yes"/>
      <point x="637" y="971"/>
      <point x="577.667" y="1040.333"/>
      <point x="463" y="1067" type="curve"/>
      <point x="563" y="1097.667"/>
      <point x="618" y="1170"/>
      <point x="618" y="1246" type="curve" smooth="yes"/>
      <point x="618" y="1382"/>
      <point x="520.667" y="1464"/>
      <point x="362" y="1464" type="curve" smooth="yes"/>
      <point x="210" y="1464"/>
      <point x="97" y="1374"/>
      <point x="97" y="1246" type="curve"/>
      <point x="150" y="1246" type="line"/>
      <point x="150" y="1347.333"/>
      <point x="240.667" y="1415"/>
      <point x="362" y="1415" type="curve" smooth="yes"/>
      <point x="488.667" y="1415"/>
      <point x="564" y="1351.667"/>
      <point x="564" y="1249" type="curve" smooth="yes"/>
      <point x="564" y="1157"/>
      <point x="479.667" y="1091.333"/>
      <point x="345" y="1090" type="curve" smooth="yes"/>
      <point x="270" y="1090" type="line"/>
      <point x="270" y="1041" type="line"/>
      <point x="330" y="1041" type="line" smooth="yes"/>
      <point x="498.667" y="1041"/>
      <point x="583" y="985.333"/>
      <point x="583" y="874" type="curve" smooth="yes"/>
      <point x="583" y="766"/>
      <point x="504.333" y="701"/>
      <point x="367" y="701" type="curve" smooth="yes"/>
      <point x="229.667" y="701"/>
      <point x="134" y="777"/>
      <point x="134" y="881" type="curve"/>
      <point x="80" y="881" type="line"/>
      <point x="80" y="746.333"/>
      <point x="201.667" y="653"/>
    </contour>
  </outline>
</glyph>
<glyph name="micro" format="2">
  <advance width="1160"/>
  <unicode hex="00B5"/>
  <note>
uni00B5
</note>
  <outline>
    <contour>
      <point x="171" y="-416" type="line"/>
      <point x="223" y="-416" type="line"/>
      <point x="223" y="171" type="line"/>
      <point x="279" y="49.667"/>
      <point x="386" y="-20"/>
      <point x="538" y="-20" type="curve" smooth="yes"/>
      <point x="714.667" y="-20"/>
      <point x="835" y="54.333"/>
      <point x="899" y="203" type="curve"/>
      <point x="902" y="0" type="line"/>
      <point x="953" y="0" type="line"/>
      <point x="953" y="1082" type="line"/>
      <point x="899" y="1082" type="line"/>
      <point x="899" y="414" type="line"/>
      <point x="879" y="148.667"/>
      <point x="763.667" y="34"/>
      <point x="529" y="34" type="curve" smooth="yes"/>
      <point x="329" y="34"/>
      <point x="227" y="169"/>
      <point x="223" y="421" type="curve" smooth="yes"/>
      <point x="223" y="1082" type="line"/>
      <point x="171" y="1082" type="line"/>
    </contour>
  </outline>
</glyph>
<glyph name="paragraph" format="2">
  <advance width="946"/>
  <unicode hex="00B6"/>
  <note>
uni00B6
</note>
  <outline>
    <contour>
      <point x="716" y="0" type="line"/>
      <point x="770" y="0" type="line"/>
      <point x="770" y="1456" type="line"/>
      <point x="593" y="1456" type="line" smooth="yes"/>
      <point x="289" y="1456"/>
      <point x="99" y="1272"/>
      <point x="99" y="988" type="curve" smooth="yes"/>
      <point x="100.298" y="644.682"/>
      <point x="441" y="520"/>
      <point x="589" y="520" type="curve" smooth="yes"/>
      <point x="716" y="520" type="line"/>
    </contour>
  </outline>
</glyph>
<glyph name="cedilla" format="2">
  <advance width="490"/>
  <unicode hex="00B8"/>
  <note>
uni00B8
</note>
  <outline>
    <contour>
      <point x="88" y="-435" type="line"/>
      <point x="265.333" y="-435"/>
      <point x="373" y="-358.333"/>
      <point x="373" y="-245" type="curve" smooth="yes"/>
      <point x="373" y="-143"/>
      <point x="314" y="-86.667"/>
      <point x="196" y="-76" type="curve"/>
      <point x="207" y="0" type="line"/>
      <point x="154" y="0" type="line"/>
      <point x="129" y="-121" type="line"/>
      <point x="278.333" y="-137"/>
      <point x="318" y="-170.333"/>
      <point x="318" y="-245" type="curve" smooth="yes"/>
      <point x="318" y="-327.667"/>
      <point x="215.667" y="-386"/>
      <point x="81" y="-386" type="curve"/>
    </contour>
  </outline>
</glyph>
<glyph name="onesuperior" format="2">
  <advance width="751"/>
  <unicode hex="00B9"/>
  <note>
uni00B9
</note>
  <outline>
    <contour>
      <point x="379" y="664" type="line"/>
      <point x="433" y="664" type="line"/>
      <point x="433" y="1455" type="line"/>
      <point x="424" y="1455" type="line"/>
      <point x="131" y="1358" type="line"/>
      <point x="131" y="1305" type="line"/>
      <point x="379" y="1386" type="line"/>
    </contour>
  </outline>
</glyph>
<glyph name="ordmasculine" format="2">
  <advance width="931"/>
  <unicode hex="00BA"/>
  <note>
uni00BA
</note>
  <outline>
    <contour>
      <point x="454" y="690" type="curve" smooth="yes"/>
      <point x="635.333" y="690"/>
      <point x="757" y="822.667"/>
      <point x="757" y="1024" type="curve" smooth="yes"/>
      <point x="757" y="1136" type="line" smooth="yes"/>
      <point x="757" y="1344"/>
      <point x="634.667" y="1476"/>
      <point x="452" y="1476" type="curve" smooth="yes"/>
      <point x="269.333" y="1476"/>
      <point x="148" y="1341"/>
      <point x="148" y="1141" type="curve" smooth="yes"/>
      <point x="148" y="1029" type="line" smooth="yes"/>
      <point x="148" y="819.667"/>
      <point x="271.333" y="690"/>
    </contour>
    <contour>
      <point x="454" y="744" type="curve" smooth="yes"/>
      <point x="295.333" y="744"/>
      <point x="202" y="849.333"/>
      <point x="202" y="1024" type="curve" smooth="yes"/>
      <point x="202" y="1135" type="line" smooth="yes"/>
      <point x="202" y="1315"/>
      <point x="300" y="1422"/>
      <point x="452" y="1422" type="curve" smooth="yes"/>
      <point x="605.333" y="1422"/>
      <point x="704" y="1311.667"/>
      <point x="704" y="1141" type="curve" smooth="yes"/>
      <point x="704" y="1028" type="line" smooth="yes"/>
      <point x="704" y="853.333"/>
      <point x="608.667" y="744"/>
    </contour>
  </outline>
</glyph>
<glyph name="questiondown" format="2">
  <advance width="969"/>
  <unicode hex="00BF"/>
  <note>
uni00BF
</note>
  <outline>
    <contour>
      <point x="461" y="-381" type="curve" smooth="yes"/>
      <point x="677" y="-381"/>
      <point x="813.333" y="-243.667"/>
      <point x="816" y="-21" type="curve"/>
      <point x="762" y="-21" type="line"/>
      <point x="756.667" y="-210.333"/>
      <point x="645" y="-328"/>
      <point x="461" y="-328" type="curve" smooth="yes"/>
      <point x="273" y="-328"/>
      <point x="162" y="-215.667"/>
      <point x="162" y="-17" type="curve" smooth="yes"/>
      <point x="162" y="117.667"/>
      <point x="205.667" y="221.667"/>
      <point x="311" y="327" type="curve"/>
      <point x="504" y="508"/>
      <point x="511" y="539"/>
      <point x="514" y="695" type="curve"/>
      <point x="460" y="695" type="line"/>
      <point x="456.333" y="547.333"/>
      <point x="429" y="498.333"/>
      <point x="361" y="445" type="curve"/>
      <point x="162.333" y="263.667"/>
      <point x="108" y="146.333"/>
      <point x="108" y="-15" type="curve" smooth="yes"/>
      <point x="108" y="-235"/>
      <point x="241" y="-381"/>
    </contour>
    <contour>
      <point x="483" y="990" type="curve" smooth="yes"/>
      <point x="513.667" y="990"/>
      <point x="538" y="1015.333"/>
      <point x="538" y="1046" type="curve" smooth="yes"/>
      <point x="538" y="1076.667"/>
      <point x="513.667" y="1101"/>
      <point x="483" y="1101" type="curve" smooth="yes"/>
      <point x="452.333" y="1101"/>
      <point x="427" y="1076.667"/>
      <point x="427" y="1046" type="curve" smooth="yes"/>
      <point x="427" y="1015.333"/>
      <point x="452.333" y="990"/>
    </contour>
  </outline>
</glyph>
<glyph name="multiply" format="2">
  <advance width="1092"/>
  <unicode hex="00D7"/>
  <note>
uni00D7
</note>
  <outline>
    <contour>
      <point x="137" y="-1" type="line"/>
      <point x="521" y="390" type="line"/>
      <point x="905" y="-1" type="line"/>
      <point x="944" y="36" type="line"/>
      <point x="559" y="429" type="line"/>
      <point x="916" y="793" type="line"/>
      <point x="877" y="832" type="line"/>
      <point x="520" y="468" type="line"/>
      <point x="164" y="832" type="line"/>
      <point x="125" y="793" type="line"/>
      <point x="482" y="429" type="line"/>
      <point x="98" y="36" type="line"/>
    </contour>
  </outline>
</glyph>
<glyph name="Oslash" format="2">
  <advance width="1408"/>
  <unicode hex="00D8"/>
  <note>
uni00D8
</note>
  <outline>
    <contour>
      <point x="177" y="-75" type="line"/>
      <point x="243" y="-75" type="line"/>
      <point x="349" y="92" type="line"/>
      <point x="441.667" y="17.333"/>
      <point x="553" y="-20"/>
      <point x="683" y="-20" type="curve" smooth="yes"/>
      <point x="900.333" y="-20"/>
      <point x="1073.5" y="90.5"/>
      <point x="1163.5" y="284.5" type="curve" smooth="yes"/>
      <point x="1208.5" y="381.5"/>
      <point x="1231" y="493"/>
      <point x="1231" y="619" type="curve" smooth="yes"/>
      <point x="1231" y="839" type="line" smooth="yes"/>
      <point x="1230.333" y="1015"/>
      <point x="1186.667" y="1160.333"/>
      <point x="1100" y="1275" type="curve"/>
      <point x="1240" y="1495" type="line"/>
      <point x="1174" y="1495" type="line"/>
      <point x="1063" y="1319" type="line"/>
      <point x="962.333" y="1423.667"/>
      <point x="835" y="1476"/>
      <point x="681" y="1476" type="curve" smooth="yes"/>
      <point x="465" y="1476"/>
      <point x="290.5" y="1365.667"/>
      <point x="200.5" y="1171" type="curve" smooth="yes"/>
      <point x="155.5" y="1073.667"/>
      <point x="133" y="962.333"/>
      <point x="133" y="837" type="curve" smooth="yes"/>
      <point x="133" y="629" type="line" smooth="yes"/>
      <point x="133" y="413.667"/>
      <point x="191" y="247.333"/>
      <point x="307" y="130" type="curve"/>
    </contour>
    <contour>
      <point x="683" y="34" type="curve" smooth="yes"/>
      <point x="562.333" y="34"/>
      <point x="460.667" y="68.333"/>
      <point x="378" y="137" type="curve"/>
      <point x="1070" y="1227" type="line"/>
      <point x="1141.333" y="1126.333"/>
      <point x="1177" y="997"/>
      <point x="1177" y="839" type="curve" smooth="yes"/>
      <point x="1177" y="627" type="line" smooth="yes"/>
      <point x="1177" y="260.333"/>
      <point x="987" y="34"/>
    </contour>
    <contour>
      <point x="337" y="176" type="line"/>
      <point x="237.667" y="282"/>
      <point x="188" y="429.667"/>
      <point x="188" y="619" type="curve" smooth="yes"/>
      <point x="188" y="832" type="line" smooth="yes"/>
      <point x="188" y="1196"/>
      <point x="381" y="1422"/>
      <point x="681" y="1422" type="curve" smooth="yes"/>
      <point x="827.667" y="1422"/>
      <point x="945" y="1372.333"/>
      <point x="1033" y="1273" type="curve"/>
    </contour>
  </outline>
</glyph>
<glyph name="ae" format="2">
  <advance width="1729"/>
  <unicode hex="00E6"/>
  <note>
uni00E6
</note>
  <outline>
    <contour>
      <point x="448" y="-20" type="curve" smooth="yes"/>
      <point x="640" y="-20"/>
      <point x="805" y="75.333"/>
      <point x="868" y="230" type="curve"/>
      <point x="937.333" y="76.667"/>
      <point x="1072" y="-20"/>
      <point x="1268" y="-20" type="curve" smooth="yes"/>
      <point x="1414.667" y="-20"/>
      <point x="1524.667" y="16.667"/>
      <point x="1630" y="122" type="curve"/>
      <point x="1600" y="164" type="line"/>
      <point x="1514.667" y="77.333"/>
      <point x="1404" y="34"/>
      <point x="1268" y="34" type="curve" smooth="yes"/>
      <point x="1016" y="34"/>
      <point x="870" y="209.333"/>
      <point x="870" y="577" type="curve"/>
      <point x="1657" y="577" type="line"/>
      <point x="1657" y="656" type="line" smooth="yes"/>
      <point x="1657" y="940"/>
      <point x="1501" y="1102"/>
      <point x="1253" y="1102" type="curve" smooth="yes"/>
      <point x="1079.667" y="1102"/>
      <point x="934.667" y="996.667"/>
      <point x="860" y="814" type="curve"/>
      <point x="829.333" y="1000.667"/>
      <point x="709" y="1102"/>
      <point x="521" y="1102" type="curve" smooth="yes"/>
      <point x="285" y="1102"/>
      <point x="121" y="971.333"/>
      <point x="121" y="778" type="curve"/>
      <point x="174" y="771" type="line"/>
      <point x="174" y="937.667"/>
      <point x="310.333" y="1048"/>
      <point x="521" y="1048" type="curve" smooth="yes"/>
      <point x="718.333" y="1048"/>
      <point x="813" y="928"/>
      <point x="813" y="720" type="curve" smooth="yes"/>
      <point x="813" y="630" type="line"/>
      <point x="516" y="630" type="line" smooth="yes"/>
      <point x="247" y="630"/>
      <point x="93" y="494.667"/>
      <point x="93" y="284" type="curve" smooth="yes"/>
      <point x="93" y="97.333"/>
      <point x="224" y="-20"/>
    </contour>
    <contour>
      <point x="447" y="32" type="curve" smooth="yes"/>
      <point x="252.333" y="32"/>
      <point x="148" y="125.333"/>
      <point x="148" y="280" type="curve" smooth="yes"/>
      <point x="148" y="456"/>
      <point x="289" y="575"/>
      <point x="512" y="575" type="curve" smooth="yes"/>
      <point x="813" y="575" type="line"/>
      <point x="813" y="225" type="line"/>
      <point x="742" y="126"/>
      <point x="579" y="32"/>
    </contour>
    <contour>
      <point x="873" y="632" type="line"/>
      <point x="898.333" y="884"/>
      <point x="1049" y="1048"/>
      <point x="1253" y="1048" type="curve" smooth="yes"/>
      <point x="1470.333" y="1048"/>
      <point x="1603" y="896"/>
      <point x="1603" y="664" type="curve" smooth="yes"/>
      <point x="1603" y="632" type="line"/>
    </contour>
  </outline>
</glyph>
<glyph name="eth" format="2">
  <advance width="1183"/>
  <unicode hex="00F0"/>
  <note>
uni00F0
</note>
  <outline>
    <contour>
      <point x="629" y="-20" type="curve" smooth="yes"/>
      <point x="787.667" y="-20"/>
      <point x="920.833" y="80.833"/>
      <point x="989.5" y="249.5" type="curve" smooth="yes"/>
      <point x="1023.833" y="333.833"/>
      <point x="1041" y="429"/>
      <point x="1041" y="535" type="curve" smooth="yes"/>
      <point x="1041" y="615" type="line" smooth="yes"/>
      <point x="1041" y="920.333"/>
      <point x="963.333" y="1141.333"/>
      <point x="802" y="1308" type="curve"/>
      <point x="991" y="1413" type="line"/>
      <point x="962" y="1461" type="line"/>
      <point x="760" y="1348" type="line"/>
      <point x="660" y="1439.333"/>
      <point x="526" y="1515.667"/>
      <point x="358" y="1577" type="curve"/>
      <point x="338" y="1527" type="line"/>
      <point x="493.333" y="1469.667"/>
      <point x="617" y="1400.667"/>
      <point x="709" y="1320" type="curve"/>
      <point x="489" y="1197" type="line"/>
      <point x="517" y="1149" type="line"/>
      <point x="752" y="1280" type="line"/>
      <point x="870.667" y="1160"/>
      <point x="950.333" y="1004"/>
      <point x="977" y="780" type="curve"/>
      <point x="897" y="892"/>
      <point x="751.667" y="953"/>
      <point x="601" y="953" type="curve" smooth="yes"/>
      <point x="331.667" y="953"/>
      <point x="173" y="773"/>
      <point x="173" y="465" type="curve" smooth="yes"/>
      <point x="173" y="285"/>
      <point x="256.167" y="127"/>
      <point x="395.5" y="43" type="curve" smooth="yes"/>
      <point x="465.167" y="1"/>
      <point x="543" y="-20"/>
    </contour>
    <contour>
      <point x="633" y="38" type="curve" smooth="yes"/>
      <point x="381" y="38"/>
      <point x="228" y="240"/>
      <point x="228" y="465" type="curve" smooth="yes"/>
      <point x="228" y="735.667"/>
      <point x="365" y="895"/>
      <point x="601" y="895" type="curve" smooth="yes"/>
      <point x="778.333" y="895"/>
      <point x="924.667" y="812"/>
      <point x="986" y="672" type="curve"/>
      <point x="987" y="520" type="line" smooth="yes"/>
      <point x="981.667" y="233.333"/>
      <point x="841" y="38"/>
    </contour>
  </outline>
</glyph>
<glyph name="divide" format="2">
  <advance width="1169"/>
  <unicode hex="00F7"/>
  <note>
uni00F7
</note>
  <outline>
    <contour>
      <point x="73" y="686" type="line"/>
      <point x="1071" y="686" type="line"/>
      <point x="1071" y="738" type="line"/>
      <point x="73" y="738" type="line"/>
    </contour>
    <contour>
      <point x="584" y="246" type="curve" smooth="yes"/>
      <point x="614.667" y="246"/>
      <point x="640" y="270.333"/>
      <point x="640" y="301" type="curve" smooth="yes"/>
      <point x="640" y="331.667"/>
      <point x="614.667" y="357"/>
      <point x="584" y="357" type="curve" smooth="yes"/>
      <point x="553.333" y="357"/>
      <point x="529" y="331.667"/>
      <point x="529" y="301" type="curve" smooth="yes"/>
      <point x="529" y="270.333"/>
      <point x="553.333" y="246"/>
    </contour>
    <contour>
      <point x="584" y="1024" type="curve" smooth="yes"/>
      <point x="614.667" y="1024"/>
      <point x="640" y="1048.333"/>
      <point x="640" y="1079" type="curve" smooth="yes"/>
      <point x="640" y="1109.667"/>
      <point x="614.667" y="1135"/>
      <point x="584" y="1135" type="curve" smooth="yes"/>
      <point x="553.333" y="1135"/>
      <point x="529" y="1109.667"/>
      <point x="529" y="1079" type="curve" smooth="yes"/>
      <point x="529" y="1048.333"/>
      <point x="553.333" y="1024"/>
    </contour>
  </outline>
</glyph>
<glyph name="oslash" format="2">
  <advance width="1160"/>
  <unicode hex="00F8"/>
  <note>
uni00F8
</note>
  <outline>
    <contour>
      <point x="205" y="-145" type="line"/>
      <point x="268" y="-145" type="line"/>
      <point x="352" y="28" type="line"/>
      <point x="417.333" y="-4"/>
      <point x="487.333" y="-20"/>
      <point x="562" y="-20" type="curve" smooth="yes"/>
      <point x="862" y="-20"/>
      <point x="1034" y="226"/>
      <point x="1034" y="520" type="curve" smooth="yes"/>
      <point x="1034" y="762"/>
      <point x="958.667" y="922.667"/>
      <point x="832" y="1016" type="curve"/>
      <point x="931" y="1219" type="line"/>
      <point x="868" y="1219" type="line"/>
      <point x="784" y="1047" type="line"/>
      <point x="714.667" y="1083.667"/>
      <point x="640" y="1102"/>
      <point x="560" y="1102" type="curve" smooth="yes"/>
      <point x="248" y="1102"/>
      <point x="87" y="854"/>
      <point x="87" y="522" type="curve" smooth="yes"/>
      <point x="87" y="319.333"/>
      <point x="165.667" y="148"/>
      <point x="303" y="56" type="curve"/>
    </contour>
    <contour>
      <point x="327" y="107" type="line"/>
      <point x="211" y="192.333"/>
      <point x="141" y="344"/>
      <point x="141" y="520" type="curve" smooth="yes"/>
      <point x="141" y="837"/>
      <point x="313" y="1048"/>
      <point x="560" y="1048" type="curve" smooth="yes"/>
      <point x="634" y="1048"/>
      <point x="700.333" y="1030.333"/>
      <point x="759" y="995" type="curve"/>
    </contour>
    <contour>
      <point x="562" y="34" type="curve" smooth="yes"/>
      <point x="493.333" y="34"/>
      <point x="431.333" y="48.333"/>
      <point x="376" y="77" type="curve"/>
      <point x="806" y="963" type="line"/>
      <point x="916.667" y="873.667"/>
      <point x="980" y="724.667"/>
      <point x="980" y="531" type="curve" smooth="yes"/>
      <point x="980" y="239"/>
      <point x="809" y="34"/>
    </contour>
  </outline>
</glyph>
<glyph name="dcroat" format="2">
  <advance width="1223"/>
  <unicode hex="0111"/>
  <note>
uni0111
</note>
  <outline>
    <contour>
      <point x="528" y="-20" type="curve" smooth="yes"/>
      <point x="690.667" y="-20"/>
      <point x="823.667" y="50.333"/>
      <point x="897" y="173" type="curve"/>
      <point x="897" y="0" type="line"/>
      <point x="951" y="0" type="line"/>
      <point x="951" y="1281" type="line"/>
      <point x="1111" y="1281" type="line"/>
      <point x="1111" y="1335" type="line"/>
      <point x="951" y="1335" type="line"/>
      <point x="951" y="1536" type="line"/>
      <point x="897" y="1536" type="line"/>
      <point x="897" y="1335" type="line"/>
      <point x="524" y="1335" type="line"/>
      <point x="524" y="1281" type="line"/>
      <point x="897" y="1281" type="line"/>
      <point x="897" y="883" type="line"/>
      <point x="819.667" y="1028.333"/>
      <point x="692.667" y="1102"/>
      <point x="530" y="1102" type="curve" smooth="yes"/>
      <point x="276.667" y="1102"/>
      <point x="122" y="897.333"/>
      <point x="122" y="538" type="curve" smooth="yes"/>
      <point x="122" y="191.333"/>
      <point x="277.333" y="-20"/>
    </contour>
    <contour>
      <point x="527" y="34" type="curve" smooth="yes"/>
      <point x="304.333" y="34"/>
      <point x="178" y="224.333"/>
      <point x="178" y="531" type="curve" smooth="yes"/>
      <point x="178" y="871"/>
      <point x="307.667" y="1048"/>
      <point x="529" y="1048" type="curve" smooth="yes"/>
      <point x="712.333" y="1048"/>
      <point x="835" y="957"/>
      <point x="897" y="775" type="curve"/>
      <point x="897" y="268" type="line"/>
      <point x="835.667" y="114.667"/>
      <point x="705.667" y="34"/>
    </contour>
  </outline>
</glyph>
<glyph name="Eng" format="2">
  <advance width="1419"/>
  <unicode hex="014A"/>
  <note>
uni014A
</note>
  <outline>
    <contour>
      <point x="965" y="-437" type="curve" smooth="yes"/>
      <point x="1143.667" y="-437"/>
      <point x="1250" y="-315.667"/>
      <point x="1250" y="-89" type="curve" smooth="yes"/>
      <point x="1250" y="1456" type="line"/>
      <point x="1196" y="1456" type="line"/>
      <point x="1196" y="93" type="line"/>
      <point x="254" y="1456" type="line"/>
      <point x="200" y="1456" type="line"/>
      <point x="200" y="0" type="line"/>
      <point x="254" y="0" type="line"/>
      <point x="254" y="1364" type="line"/>
      <point x="1196" y="0" type="line"/>
      <point x="1196" y="-89" type="line" smooth="yes"/>
      <point x="1196" y="-278.333"/>
      <point x="1113" y="-383"/>
      <point x="965" y="-383" type="curve" smooth="yes"/>
      <point x="931" y="-383"/>
      <point x="898" y="-377"/>
      <point x="866" y="-365" type="curve"/>
      <point x="853" y="-417" type="line"/>
      <point x="891.667" y="-430.333"/>
      <point x="929" y="-437"/>
    </contour>
  </outline>
</glyph>
<glyph name="eng" format="2">
  <advance width="1160"/>
  <unicode hex="014B"/>
  <note>
uni014B
</note>
  <outline>
    <contour>
      <point x="669" y="-437" type="curve" smooth="yes"/>
      <point x="847.667" y="-437"/>
      <point x="954" y="-315.667"/>
      <point x="954" y="-89" type="curve" smooth="yes"/>
      <point x="954" y="649" type="line" smooth="yes"/>
      <point x="951.333" y="961"/>
      <point x="836" y="1102"/>
      <point x="600" y="1102" type="curve" smooth="yes"/>
      <point x="410.667" y="1102"/>
      <point x="288" y="1008.667"/>
      <point x="224" y="858" type="curve"/>
      <point x="218" y="1082" type="line"/>
      <point x="170" y="1082" type="line"/>
      <point x="170" y="0" type="line"/>
      <point x="224" y="0" type="line"/>
      <point x="224" y="680" type="line"/>
      <point x="257.333" y="917.333"/>
      <point x="390.333" y="1048"/>
      <point x="601" y="1048" type="curve" smooth="yes"/>
      <point x="807.667" y="1048"/>
      <point x="900" y="913.667"/>
      <point x="900" y="639" type="curve" smooth="yes"/>
      <point x="900" y="-89" type="line" smooth="yes"/>
      <point x="900" y="-278.333"/>
      <point x="817" y="-384"/>
      <point x="669" y="-384" type="curve" smooth="yes"/>
      <point x="627" y="-384"/>
      <point x="587" y="-377.667"/>
      <point x="549" y="-365" type="curve"/>
      <point x="536" y="-417" type="line"/>
      <point x="581.333" y="-430.333"/>
      <point x="625.667" y="-437"/>
    </contour>
  </outline>
</glyph>
<glyph name="OE" format="2">
  <advance width="1953"/>
  <unicode hex="0152"/>
  <note>
uni0152
</note>
  <outline>
    <contour>
      <point x="663" y="-21" type="curve"/>
      <point x="750" y="-21"/>
      <point x="860" y="-14"/>
      <point x="993" y="0" type="curve"/>
      <point x="1833" y="0" type="line"/>
      <point x="1833" y="54" type="line"/>
      <point x="1001" y="54" type="line"/>
      <point x="1001" y="722" type="line"/>
      <point x="1731" y="722" type="line"/>
      <point x="1731" y="776" type="line"/>
      <point x="1001" y="776" type="line"/>
      <point x="1001" y="1402" type="line"/>
      <point x="1833" y="1402" type="line"/>
      <point x="1833" y="1456" type="line"/>
      <point x="993" y="1456" type="line"/>
      <point x="866" y="1469"/>
      <point x="756" y="1476"/>
      <point x="661" y="1476" type="curve" smooth="yes"/>
      <point x="179" y="1472"/>
      <point x="144" y="1019"/>
      <point x="144" y="880" type="curve" smooth="yes"/>
      <point x="144" y="565" type="line" smooth="yes"/>
      <point x="144" y="150"/>
      <point x="384" y="0"/>
    </contour>
    <contour>
      <point x="663" y="33" type="curve" smooth="yes"/>
      <point x="366" y="33"/>
      <point x="198" y="281"/>
      <point x="198" y="576" type="curve" smooth="yes"/>
      <point x="198" y="875" type="line" smooth="yes"/>
      <point x="198" y="1211"/>
      <point x="382" y="1422"/>
      <point x="661" y="1422" type="curve" smooth="yes"/>
      <point x="780" y="1422"/>
      <point x="876" y="1418"/>
      <point x="947" y="1409" type="curve"/>
      <point x="947" y="46" type="line"/>
      <point x="876" y="37"/>
      <point x="782" y="33"/>
    </contour>
  </outline>
</glyph>
<glyph name="longs" format="2">
  <advance width="508"/>
  <unicode hex="017F"/>
  <note>
uni017F
</note>
  <outline>
    <contour>
      <point x="174" y="0" type="line"/>
      <point x="228" y="0" type="line"/>
      <point x="228" y="1236" type="line" smooth="yes"/>
      <point x="228" y="1406.667"/>
      <point x="314.333" y="1503"/>
      <point x="457" y="1503" type="curve" smooth="yes"/>
      <point x="501.667" y="1503"/>
      <point x="541.333" y="1498"/>
      <point x="576" y="1488" type="curve"/>
      <point x="584" y="1540" type="line"/>
      <point x="548.667" y="1551.333"/>
      <point x="506" y="1557"/>
      <point x="456" y="1557" type="curve" smooth="yes"/>
      <point x="278.667" y="1557"/>
      <point x="174" y="1444"/>
      <point x="174" y="1236" type="curve" smooth="yes"/>
    </contour>
  </outline>
</glyph>
<glyph name="Schwa" format="2">
  <advance width="1415"/>
  <unicode hex="018F"/>
  <note>
uni018F
</note>
  <outline>
    <contour>
      <point x="754" y="-20" type="curve" smooth="yes"/>
      <point x="971.333" y="-20"/>
      <point x="1155.5" y="101.833"/>
      <point x="1253.5" y="310.5" type="curve" smooth="yes"/>
      <point x="1302.5" y="414.833"/>
      <point x="1327" y="532.333"/>
      <point x="1327" y="663" type="curve" smooth="yes"/>
      <point x="1327" y="825" type="line" smooth="yes"/>
      <point x="1327" y="1235.667"/>
      <point x="1096" y="1476"/>
      <point x="728" y="1476" type="curve" smooth="yes"/>
      <point x="556.667" y="1476"/>
      <point x="416" y="1437.333"/>
      <point x="243" y="1311" type="curve"/>
      <point x="273" y="1268" type="line"/>
      <point x="381" y="1358.667"/>
      <point x="532" y="1422"/>
      <point x="728" y="1422" type="curve" smooth="yes"/>
      <point x="1072" y="1422"/>
      <point x="1273" y="1201.667"/>
      <point x="1273" y="711" type="curve"/>
      <point x="156" y="711" type="line"/>
      <point x="156" y="217"/>
      <point x="388.667" y="-20"/>
    </contour>
    <contour>
      <point x="754" y="34" type="curve" smooth="yes"/>
      <point x="272.008" y="35.685"/>
      <point x="210" y="504"/>
      <point x="210" y="584" type="curve" smooth="yes"/>
      <point x="210" y="656" type="line"/>
      <point x="1273" y="656" type="line"/>
      <point x="1271" y="324"/>
      <point x="1086" y="34"/>
    </contour>
  </outline>
</glyph>
<glyph name="florin" format="2">
  <advance width="697"/>
  <unicode hex="0192"/>
  <note>
uni0192
</note>
  <outline>
    <contour>
      <point x="22" y="-437" type="curve" smooth="yes"/>
      <point x="202" y="-437"/>
      <point x="307" y="-315.667"/>
      <point x="307" y="-89" type="curve" smooth="yes"/>
      <point x="307" y="1027" type="line"/>
      <point x="593" y="1027" type="line"/>
      <point x="593" y="1082" type="line"/>
      <point x="307" y="1082" type="line"/>
      <point x="307" y="1236" type="line" smooth="yes"/>
      <point x="307" y="1406.667"/>
      <point x="394.333" y="1503"/>
      <point x="537" y="1503" type="curve" smooth="yes"/>
      <point x="581.667" y="1503"/>
      <point x="621.333" y="1498"/>
      <point x="656" y="1488" type="curve"/>
      <point x="664" y="1540" type="line"/>
      <point x="628" y="1551.333"/>
      <point x="585.333" y="1557"/>
      <point x="536" y="1557" type="curve" smooth="yes"/>
      <point x="358.667" y="1557"/>
      <point x="254.333" y="1440"/>
      <point x="253" y="1240" type="curve" smooth="yes"/>
      <point x="253" y="1082" type="line"/>
      <point x="65" y="1082" type="line"/>
      <point x="65" y="1027" type="line"/>
      <point x="253" y="1027" type="line"/>
      <point x="253" y="-89" type="line" smooth="yes"/>
      <point x="253" y="-278.333"/>
      <point x="171.333" y="-383"/>
      <point x="22" y="-383" type="curve" smooth="yes"/>
      <point x="-12" y="-383"/>
      <point x="-45" y="-377"/>
      <point x="-77" y="-365" type="curve"/>
      <point x="-90" y="-417" type="line"/>
      <point x="-51.333" y="-430.333"/>
      <point x="-14" y="-437"/>
    </contour>
  </outline>
</glyph>
<glyph name="jdotless" format="2">
  <advance width="515"/>
  <unicode hex="0237"/>
  <note>
uni0237
</note>
  <outline>
    <contour>
      <point x="-45" y="-437" type="curve" smooth="yes"/>
      <point x="135" y="-437"/>
      <point x="240" y="-315.667"/>
      <point x="240" y="-89" type="curve" smooth="yes"/>
      <point x="240" y="1082" type="line"/>
      <point x="186" y="1082" type="line"/>
      <point x="186" y="-89" type="line" smooth="yes"/>
      <point x="186" y="-278.333"/>
      <point x="104.333" y="-383"/>
      <point x="-45" y="-383" type="curve" smooth="yes"/>
      <point x="-79" y="-383"/>
      <point x="-112" y="-377"/>
      <point x="-144" y="-365" type="curve"/>
      <point x="-157" y="-417" type="line"/>
      <point x="-118.333" y="-430.333"/>
      <point x="-81" y="-437"/>
    </contour>
  </outline>
</glyph>
<glyph name="ring" format="2">
  <advance width="685"/>
  <unicode hex="02DA"/>
  <note>
uni02DA
</note>
  <outline>
    <contour>
      <point x="285" y="1212" type="curve" smooth="yes"/>
      <point x="381" y="1212"/>
      <point x="456" y="1286"/>
      <point x="456" y="1382" type="curve" smooth="yes"/>
      <point x="456" y="1478"/>
      <point x="381" y="1556"/>
      <point x="285" y="1556" type="curve" smooth="yes"/>
      <point x="191.667" y="1556"/>
      <point x="114" y="1482"/>
      <point x="114" y="1382" type="curve" smooth="yes"/>
      <point x="114" y="1282"/>
      <point x="193" y="1212"/>
    </contour>
    <contour>
      <point x="285" y="1266" type="curve" smooth="yes"/>
      <point x="217" y="1266"/>
      <point x="168" y="1312.667"/>
      <point x="168" y="1382" type="curve" smooth="yes"/>
      <point x="168" y="1454"/>
      <point x="217" y="1502"/>
      <point x="285" y="1502" type="curve" smooth="yes"/>
      <point x="353" y="1502"/>
      <point x="402" y="1454"/>
      <point x="402" y="1382" type="curve" smooth="yes"/>
      <point x="402" y="1312.667"/>
      <point x="353" y="1266"/>
    </contour>
  </outline>
</glyph>
<glyph name="lowringmod" format="2">
  <advance width="602"/>
  <unicode hex="02F3"/>
  <note>
uni02F3
</note>
  <outline>
    <contour>
      <point x="323" y="-335" type="curve" smooth="yes"/>
      <point x="395" y="-335"/>
      <point x="456" y="-284.333"/>
      <point x="456" y="-219" type="curve" smooth="yes"/>
      <point x="456" y="-155"/>
      <point x="397.667" y="-99"/>
      <point x="323" y="-99" type="curve" smooth="yes"/>
      <point x="247" y="-99"/>
      <point x="189" y="-155"/>
      <point x="189" y="-219" type="curve" smooth="yes"/>
      <point x="189" y="-284.333"/>
      <point x="249.667" y="-335"/>
    </contour>
    <contour>
      <point x="328" y="-279" type="curve" smooth="yes"/>
      <point x="288" y="-281"/>
      <point x="247" y="-261"/>
      <point x="247" y="-219" type="curve" smooth="yes"/>
      <point x="247" y="-177"/>
      <point x="287" y="-156"/>
      <point x="326" y="-157" type="curve" smooth="yes"/>
      <point x="363" y="-158"/>
      <point x="399" y="-179"/>
      <point x="399" y="-219" type="curve" smooth="yes"/>
      <point x="399" y="-258"/>
      <point x="364" y="-278"/>
    </contour>
  </outline>
</glyph>
<glyph name="acutecomb" format="2">
  <unicode hex="0301"/>
  <note>
uni0301
</note>
  <outline>
    <contour>
      <point x="-574" y="1270" type="line"/>
      <point x="-514" y="1270" type="line"/>
      <point x="-319" y="1536" type="line"/>
      <point x="-385" y="1536" type="line"/>
    </contour>
  </outline>
</glyph>
<glyph name="hookabovecomb" format="2">
  <unicode hex="0309"/>
  <note>
uni0309
</note>
  <outline>
    <contour>
      <point x="-598" y="1227" type="line"/>
      <point x="-550" y="1227" type="line"/>
      <point x="-550" y="1281" type="line"/>
      <point x="-420.667" y="1290.333"/>
      <point x="-353" y="1346.667"/>
      <point x="-353" y="1440" type="curve" smooth="yes"/>
      <point x="-353" y="1540"/>
      <point x="-472.667" y="1599"/>
      <point x="-638" y="1599" type="curve"/>
      <point x="-645" y="1550" type="line"/>
      <point x="-501" y="1550"/>
      <point x="-409" y="1508"/>
      <point x="-409" y="1440" type="curve" smooth="yes"/>
      <point x="-409" y="1365.333"/>
      <point x="-466" y="1336.667"/>
      <point x="-598" y="1326" type="curve"/>
    </contour>
  </outline>
</glyph>
<glyph name="dotbelowcomb" format="2">
  <unicode hex="0323"/>
  <note>
uni0323
</note>
  <outline>
    <contour>
      <point x="-579" y="-272" type="curve" smooth="yes"/>
      <point x="-548" y="-272"/>
      <point x="-523" y="-248"/>
      <point x="-523" y="-217" type="curve" smooth="yes"/>
      <point x="-523" y="-186"/>
      <point x="-548" y="-161"/>
      <point x="-579" y="-161" type="curve" smooth="yes"/>
      <point x="-610" y="-161"/>
      <point x="-634" y="-186"/>
      <point x="-634" y="-217" type="curve" smooth="yes"/>
      <point x="-634" y="-248"/>
      <point x="-610" y="-272"/>
    </contour>
  </outline>
</glyph>
<glyph name="dieresistonos" format="2">
  <advance width="928"/>
  <unicode hex="0385"/>
  <note>
uni0385
</note>
  <outline>
    <contour>
      <point x="443" y="1417" type="line"/>
      <point x="502" y="1417" type="line"/>
      <point x="545" y="1657" type="line"/>
      <point x="466" y="1657" type="line"/>
    </contour>
    <contour>
      <point x="249" y="1366" type="curve" smooth="yes"/>
      <point x="279.667" y="1366"/>
      <point x="305" y="1390.333"/>
      <point x="305" y="1421" type="curve" smooth="yes"/>
      <point x="305" y="1451.667"/>
      <point x="279.667" y="1477"/>
      <point x="249" y="1477" type="curve" smooth="yes"/>
      <point x="218.333" y="1477"/>
      <point x="194" y="1451.667"/>
      <point x="194" y="1421" type="curve" smooth="yes"/>
      <point x="194" y="1390.333"/>
      <point x="218.333" y="1366"/>
    </contour>
    <contour>
      <point x="694" y="1366" type="curve" smooth="yes"/>
      <point x="724.667" y="1366"/>
      <point x="750" y="1390.333"/>
      <point x="750" y="1421" type="curve" smooth="yes"/>
      <point x="750" y="1451.667"/>
      <point x="724.667" y="1477"/>
      <point x="694" y="1477" type="curve" smooth="yes"/>
      <point x="663.333" y="1477"/>
      <point x="639" y="1451.667"/>
      <point x="639" y="1421" type="curve" smooth="yes"/>
      <point x="639" y="1390.333"/>
      <point x="663.333" y="1366"/>
    </contour>
  </outline>
</glyph>
<glyph name="Gamma" format="2">
  <advance width="1139"/>
  <unicode hex="0393"/>
  <note>
uni0393
</note>
  <outline>
    <contour>
      <point x="193" y="0" type="line"/>
      <point x="247" y="0" type="line"/>
      <point x="247" y="1402" type="line"/>
      <point x="1055" y="1402" type="line"/>
      <point x="1055" y="1456" type="line"/>
      <point x="193" y="1456" type="line"/>
    </contour>
  </outline>
</glyph>
<glyph name="Theta" format="2">
  <advance width="1393"/>
  <unicode hex="0398"/>
  <note>
uni0398
</note>
  <outline>
    <contour>
      <point x="679" y="-20" type="curve" smooth="yes"/>
      <point x="1035" y="-20"/>
      <point x="1227" y="263"/>
      <point x="1227" y="619" type="curve" smooth="yes"/>
      <point x="1227" y="837" type="line" smooth="yes"/>
      <point x="1227" y="1193"/>
      <point x="1033" y="1476"/>
      <point x="677" y="1476" type="curve" smooth="yes"/>
      <point x="322" y="1476"/>
      <point x="129" y="1189"/>
      <point x="129" y="837" type="curve" smooth="yes"/>
      <point x="129" y="627" type="line" smooth="yes"/>
      <point x="129" y="231"/>
      <point x="351" y="-20"/>
    </contour>
    <contour>
      <point x="679" y="34" type="curve" smooth="yes"/>
      <point x="351" y="34"/>
      <point x="184" y="297"/>
      <point x="184" y="619" type="curve" smooth="yes"/>
      <point x="184" y="832" type="line" smooth="yes"/>
      <point x="184" y="1196"/>
      <point x="377" y="1422"/>
      <point x="677" y="1422" type="curve" smooth="yes"/>
      <point x="981" y="1422"/>
      <point x="1173" y="1191"/>
      <point x="1173" y="839" type="curve" smooth="yes"/>
      <point x="1173" y="627" type="line" smooth="yes"/>
      <point x="1173" y="260"/>
      <point x="983" y="34"/>
    </contour>
    <contour>
      <point x="439" y="699" type="line"/>
      <point x="956" y="699" type="line"/>
      <point x="956" y="741" type="line"/>
      <point x="439" y="741" type="line"/>
    </contour>
  </outline>
</glyph>
<glyph name="Lambda" format="2">
  <advance width="1342"/>
  <unicode hex="039B"/>
  <note>
uni039B
</note>
  <outline>
    <contour>
      <point x="87" y="0" type="line"/>
      <point x="146" y="0" type="line"/>
      <point x="653" y="1386" type="line"/>
      <point x="1162" y="0" type="line"/>
      <point x="1221" y="0" type="line"/>
      <point x="686" y="1456" type="line"/>
      <point x="621" y="1456" type="line"/>
    </contour>
  </outline>
</glyph>
<glyph name="Xi" format="2">
  <advance width="1169"/>
  <unicode hex="039E"/>
  <note>
uni039E
</note>
  <outline>
    <contour>
      <point x="112" y="0" type="line"/>
      <point x="1017" y="0" type="line"/>
      <point x="1017" y="54" type="line"/>
      <point x="112" y="54" type="line"/>
    </contour>
    <contour>
      <point x="220" y="687" type="line"/>
      <point x="901" y="687" type="line"/>
      <point x="901" y="741" type="line"/>
      <point x="220" y="741" type="line"/>
    </contour>
    <contour>
      <point x="133" y="1403" type="line"/>
      <point x="978" y="1403" type="line"/>
      <point x="978" y="1456" type="line"/>
      <point x="133" y="1456" type="line"/>
    </contour>
  </outline>
</glyph>
<glyph name="Pi" format="2">
  <advance width="1461"/>
  <unicode hex="03A0"/>
  <note>
uni03A0
</note>
  <outline>
    <contour>
      <point x="200" y="0" type="line"/>
      <point x="254" y="0" type="line"/>
      <point x="254" y="1402" type="line"/>
      <point x="1184" y="1402" type="line"/>
      <point x="1184" y="0" type="line"/>
      <point x="1238" y="0" type="line"/>
      <point x="1238" y="1456" type="line"/>
      <point x="200" y="1456" type="line"/>
    </contour>
  </outline>
</glyph>
<glyph name="Sigma" format="2">
  <advance width="1169"/>
  <unicode hex="03A3"/>
  <note>
uni03A3
</note>
  <outline>
    <contour>
      <point x="57" y="0" type="line"/>
      <point x="1049" y="0" type="line"/>
      <point x="1049" y="54" type="line"/>
      <point x="133" y="54" type="line"/>
      <point x="656" y="768" type="line"/>
      <point x="656" y="815" type="line"/>
      <point x="140" y="1403" type="line"/>
      <point x="989" y="1403" type="line"/>
      <point x="989" y="1456" type="line"/>
      <point x="57" y="1456" type="line"/>
      <point x="57" y="1412" type="line"/>
      <point x="604" y="787" type="line"/>
      <point x="57" y="44" type="line"/>
    </contour>
  </outline>
</glyph>
<glyph name="Phi" format="2">
  <advance width="1467"/>
  <unicode hex="03A6"/>
  <note>
uni03A6
</note>
  <outline>
    <contour>
      <point x="702" y="0" type="line"/>
      <point x="757" y="0" type="line"/>
      <point x="757" y="209" type="line"/>
      <point x="994" y="212"/>
      <point x="1186" y="308"/>
      <point x="1287" y="469" type="curve" smooth="yes"/>
      <point x="1337" y="550"/>
      <point x="1362" y="640"/>
      <point x="1362" y="739" type="curve" smooth="yes"/>
      <point x="1362" y="936"/>
      <point x="1256" y="1107"/>
      <point x="1073" y="1197" type="curve" smooth="yes"/>
      <point x="981" y="1242"/>
      <point x="876" y="1265"/>
      <point x="757" y="1266" type="curve"/>
      <point x="757" y="1456" type="line"/>
      <point x="702" y="1456" type="line"/>
      <point x="702" y="1265" type="line"/>
      <point x="522" y="1262"/>
      <point x="377" y="1212"/>
      <point x="266" y="1114" type="curve" smooth="yes"/>
      <point x="168" y="1026"/>
      <point x="113" y="916"/>
      <point x="102" y="783" type="curve"/>
      <point x="101" y="574"/>
      <point x="186" y="412"/>
      <point x="331" y="315" type="curve" smooth="yes"/>
      <point x="430" y="248"/>
      <point x="556" y="211"/>
      <point x="702" y="209" type="curve"/>
    </contour>
    <contour>
      <point x="702" y="263" type="line"/>
      <point x="370" y="268"/>
      <point x="155" y="458"/>
      <point x="155" y="737" type="curve" smooth="yes"/>
      <point x="155" y="1040"/>
      <point x="407" y="1207"/>
      <point x="702" y="1211" type="curve"/>
    </contour>
    <contour>
      <point x="757" y="263" type="curve"/>
      <point x="757" y="1212" type="line"/>
      <point x="1069" y="1206"/>
      <point x="1307" y="1034"/>
      <point x="1307" y="739" type="curve" smooth="yes"/>
      <point x="1307" y="459"/>
      <point x="1089" y="265.667"/>
    </contour>
  </outline>
</glyph>
<glyph name="Psi" format="2">
  <advance width="1417"/>
  <unicode hex="03A8"/>
  <note>
uni03A8
</note>
  <outline>
    <contour>
      <point x="686" y="0" type="line"/>
      <point x="741" y="0" type="line"/>
      <point x="741" y="416" type="line"/>
      <point x="1134.921" y="423.874"/>
      <point x="1274" y="688"/>
      <point x="1274" y="939" type="curve" smooth="yes"/>
      <point x="1274" y="1456" type="line"/>
      <point x="1220" y="1456" type="line"/>
      <point x="1220" y="938" type="line" smooth="yes"/>
      <point x="1220" y="661"/>
      <point x="1019.667" y="476.333"/>
      <point x="741" y="471" type="curve"/>
      <point x="741" y="1456" type="line"/>
      <point x="686" y="1456" type="line"/>
      <point x="686" y="471" type="line"/>
      <point x="402" y="479"/>
      <point x="211" y="667"/>
      <point x="211" y="951" type="curve" smooth="yes"/>
      <point x="211" y="1456" type="line"/>
      <point x="156" y="1456" type="line"/>
      <point x="156" y="941" type="line" smooth="yes"/>
      <point x="156" y="625"/>
      <point x="366" y="424"/>
      <point x="686" y="416" type="curve"/>
    </contour>
  </outline>
</glyph>
<glyph name="alpha" format="2">
  <advance width="1157"/>
  <unicode hex="03B1"/>
  <note>
uni03B1
</note>
  <outline>
    <contour>
      <point x="534" y="-21" type="curve" smooth="yes"/>
      <point x="697" y="-21"/>
      <point x="831" y="64"/>
      <point x="903" y="217" type="curve"/>
      <point x="910" y="46"/>
      <point x="967" y="-21"/>
      <point x="1082" y="-21" type="curve" smooth="yes"/>
      <point x="1112" y="-21"/>
      <point x="1136" y="-16"/>
      <point x="1155" y="-7" type="curve"/>
      <point x="1144" y="42" type="line"/>
      <point x="1115" y="35"/>
      <point x="1094" y="32"/>
      <point x="1079" y="32" type="curve" smooth="yes"/>
      <point x="1000" y="32"/>
      <point x="959" y="100"/>
      <point x="956" y="236" type="curve" smooth="yes"/>
      <point x="956" y="1082" type="line"/>
      <point x="908" y="1082" type="line"/>
      <point x="902" y="837" type="line"/>
      <point x="829" y="1009"/>
      <point x="701" y="1102"/>
      <point x="536" y="1102" type="curve" smooth="yes"/>
      <point x="284" y="1102"/>
      <point x="128" y="890"/>
      <point x="128" y="542" type="curve" smooth="yes"/>
      <point x="129" y="477" type="line" smooth="yes"/>
      <point x="142" y="166"/>
      <point x="295" y="-21"/>
    </contour>
    <contour>
      <point x="533" y="33" type="curve" smooth="yes"/>
      <point x="309" y="33"/>
      <point x="184" y="216"/>
      <point x="184" y="521" type="curve" smooth="yes"/>
      <point x="184" y="864"/>
      <point x="315" y="1048"/>
      <point x="535" y="1048" type="curve" smooth="yes"/>
      <point x="710" y="1048"/>
      <point x="843" y="919"/>
      <point x="902" y="694" type="curve"/>
      <point x="902" y="343" type="line"/>
      <point x="850" y="146"/>
      <point x="721" y="33"/>
    </contour>
  </outline>
</glyph>
<glyph name="beta" format="2">
  <advance width="1213"/>
  <unicode hex="03B2"/>
  <note>
uni03B2
</note>
  <outline>
    <contour>
      <point x="195" y="-413" type="line"/>
      <point x="249" y="-413" type="line"/>
      <point x="249" y="148" type="line"/>
      <point x="326.333" y="44"/>
      <point x="479.333" y="-21"/>
      <point x="634" y="-21" type="curve" smooth="yes"/>
      <point x="908.667" y="-21"/>
      <point x="1079" y="137"/>
      <point x="1079" y="385" type="curve" smooth="yes"/>
      <point x="1079" y="586.333"/>
      <point x="958.667" y="728.667"/>
      <point x="760" y="770" type="curve"/>
      <point x="900" y="828.667"/>
      <point x="974" y="954"/>
      <point x="974" y="1102" type="curve" smooth="yes"/>
      <point x="974" y="1324.667"/>
      <point x="815" y="1476"/>
      <point x="583" y="1476" type="curve" smooth="yes"/>
      <point x="443" y="1476"/>
      <point x="317.5" y="1400.667"/>
      <point x="247.5" y="1270" type="curve" smooth="yes"/>
      <point x="212.5" y="1204.667"/>
      <point x="195" y="1132.667"/>
      <point x="195" y="1054" type="curve" smooth="yes"/>
    </contour>
    <contour>
      <point x="634" y="33" type="curve" smooth="yes"/>
      <point x="458" y="33"/>
      <point x="302.333" y="118.667"/>
      <point x="249" y="244" type="curve"/>
      <point x="249" y="1049" type="line" smooth="yes"/>
      <point x="249" y="1265"/>
      <point x="393.667" y="1422"/>
      <point x="583" y="1422" type="curve" smooth="yes"/>
      <point x="787" y="1422"/>
      <point x="920" y="1292.333"/>
      <point x="920" y="1107" type="curve" smooth="yes"/>
      <point x="920" y="896.333"/>
      <point x="805.333" y="791"/>
      <point x="576" y="791" type="curve" smooth="yes"/>
      <point x="476" y="791" type="line"/>
      <point x="476" y="735" type="line"/>
      <point x="622" y="735" type="line" smooth="yes"/>
      <point x="878" y="733.667"/>
      <point x="1024" y="603.667"/>
      <point x="1024" y="381" type="curve" smooth="yes"/>
      <point x="1024" y="159.667"/>
      <point x="883.333" y="33"/>
    </contour>
  </outline>
</glyph>
<glyph name="delta" format="2">
  <advance width="1160"/>
  <unicode hex="03B4"/>
  <note>
uni03B4
</note>
  <outline>
    <contour>
      <point x="562" y="-20" type="curve" smooth="yes"/>
      <point x="851" y="-20"/>
      <point x="1034" y="206"/>
      <point x="1034" y="532" type="curve" smooth="yes"/>
      <point x="1034" y="796"/>
      <point x="853.667" y="1005"/>
      <point x="587" y="1061" type="curve" smooth="yes"/>
      <point x="373.667" y="1106.333"/>
      <point x="269" y="1177"/>
      <point x="269" y="1309" type="curve" smooth="yes"/>
      <point x="269" y="1429"/>
      <point x="390.333" y="1509"/>
      <point x="569" y="1509" type="curve" smooth="yes"/>
      <point x="651.667" y="1509"/>
      <point x="723.667" y="1496"/>
      <point x="857" y="1437" type="curve"/>
      <point x="875" y="1486" type="line"/>
      <point x="791" y="1537.333"/>
      <point x="688.667" y="1563"/>
      <point x="568" y="1563" type="curve" smooth="yes"/>
      <point x="365.333" y="1563"/>
      <point x="215" y="1451.667"/>
      <point x="215" y="1309" type="curve" smooth="yes"/>
      <point x="215" y="1192.333"/>
      <point x="296" y="1102.667"/>
      <point x="458" y="1029" type="curve"/>
      <point x="241" y="998"/>
      <point x="87" y="786"/>
      <point x="87" y="542" type="curve" smooth="yes"/>
      <point x="87" y="190.667"/>
      <point x="282" y="-20"/>
    </contour>
    <contour>
      <point x="562" y="34" type="curve" smooth="yes"/>
      <point x="184.066" y="33.319"/>
      <point x="141" y="457"/>
      <point x="141" y="530" type="curve" smooth="yes"/>
      <point x="141" y="804.667"/>
      <point x="328.333" y="997"/>
      <point x="583" y="997" type="curve"/>
      <point x="795" y="963"/>
      <point x="980" y="776"/>
      <point x="980" y="542" type="curve" smooth="yes"/>
      <point x="980" y="229.667"/>
      <point x="808.667" y="34"/>
    </contour>
  </outline>
</glyph>
<glyph name="epsilon" format="2">
  <advance width="1104"/>
  <unicode hex="03B5"/>
  <note>
uni03B5
</note>
  <outline>
    <contour>
      <point x="550" y="-20" type="curve" smooth="yes"/>
      <point x="806" y="-20"/>
      <point x="997" y="107.667"/>
      <point x="997" y="301" type="curve"/>
      <point x="942" y="301" type="line"/>
      <point x="942" y="147.667"/>
      <point x="783.333" y="35"/>
      <point x="550" y="35" type="curve" smooth="yes"/>
      <point x="311.333" y="35"/>
      <point x="170" y="129.667"/>
      <point x="170" y="287" type="curve" smooth="yes"/>
      <point x="170" y="452.333"/>
      <point x="301" y="522.333"/>
      <point x="541" y="525" type="curve" smooth="yes"/>
      <point x="718" y="525" type="line"/>
      <point x="718" y="580" type="line"/>
      <point x="558" y="580" type="line" smooth="yes"/>
      <point x="313.333" y="580"/>
      <point x="191" y="655"/>
      <point x="191" y="805" type="curve" smooth="yes"/>
      <point x="191" y="955.667"/>
      <point x="318" y="1048"/>
      <point x="550" y="1048" type="curve" smooth="yes"/>
      <point x="768.667" y="1048"/>
      <point x="925" y="943"/>
      <point x="925" y="799" type="curve"/>
      <point x="979" y="799" type="line"/>
      <point x="979" y="973.667"/>
      <point x="795.333" y="1102"/>
      <point x="550" y="1102" type="curve" smooth="yes"/>
      <point x="287.333" y="1102"/>
      <point x="135" y="987.333"/>
      <point x="135" y="802" type="curve" smooth="yes"/>
      <point x="135" y="688.667"/>
      <point x="221" y="595.333"/>
      <point x="365" y="554" type="curve"/>
      <point x="199" y="518"/>
      <point x="116" y="430"/>
      <point x="116" y="290" type="curve" smooth="yes"/>
      <point x="116" y="103.333"/>
      <point x="287.333" y="-20"/>
    </contour>
  </outline>
</glyph>
<glyph name="zeta" format="2">
  <advance width="1061"/>
  <unicode hex="03B6"/>
  <note>
uni03B6
</note>
  <outline>
    <contour>
      <point x="716" y="-392" type="line"/>
      <point x="796" y="-357.333"/>
      <point x="871" y="-242.667"/>
      <point x="871" y="-136" type="curve" smooth="yes"/>
      <point x="871" y="-49.333"/>
      <point x="825.333" y="2"/>
      <point x="680" y="42" type="curve" smooth="yes"/>
      <point x="320" y="133.667"/>
      <point x="226" y="207.667"/>
      <point x="226" y="341" type="curve" smooth="yes"/>
      <point x="226" y="483.667"/>
      <point x="286.667" y="627.333"/>
      <point x="416" y="802" type="curve" smooth="yes"/>
      <point x="887" y="1419" type="line"/>
      <point x="887" y="1456" type="line"/>
      <point x="38" y="1456" type="line"/>
      <point x="38" y="1403" type="line"/>
      <point x="806" y="1403" type="line"/>
      <point x="357" y="812" type="line" smooth="yes"/>
      <point x="230" y="645"/>
      <point x="173" y="485"/>
      <point x="173" y="341" type="curve" smooth="yes"/>
      <point x="173" y="191.667"/>
      <point x="264.333" y="101.667"/>
      <point x="515" y="31" type="curve" smooth="yes"/>
      <point x="783.667" y="-41.333"/>
      <point x="818" y="-73.667"/>
      <point x="818" y="-135" type="curve" smooth="yes"/>
      <point x="818" y="-224.333"/>
      <point x="747" y="-330.333"/>
      <point x="679" y="-361" type="curve"/>
    </contour>
  </outline>
</glyph>
<glyph name="eta" format="2">
  <advance width="1160"/>
  <unicode hex="03B7"/>
  <note>
uni03B7
</note>
  <outline>
    <contour>
      <point x="900" y="-416" type="line"/>
      <point x="954" y="-416" type="line"/>
      <point x="954" y="688" type="line" smooth="yes"/>
      <point x="951.333" y="970.667"/>
      <point x="838.667" y="1102"/>
      <point x="600" y="1102" type="curve" smooth="yes"/>
      <point x="409.333" y="1102"/>
      <point x="288.667" y="1007.667"/>
      <point x="226" y="857" type="curve"/>
      <point x="226" y="1082" type="line"/>
      <point x="172" y="1082" type="line"/>
      <point x="172" y="0" type="line"/>
      <point x="226" y="0" type="line"/>
      <point x="226" y="667" type="line"/>
      <point x="256.667" y="916.333"/>
      <point x="389" y="1048"/>
      <point x="601" y="1048" type="curve" smooth="yes"/>
      <point x="805" y="1048"/>
      <point x="897.333" y="929.333"/>
      <point x="900" y="692" type="curve" smooth="yes"/>
    </contour>
  </outline>
</glyph>
<glyph name="theta" format="2">
  <advance width="1166"/>
  <unicode hex="03B8"/>
  <note>
uni03B8
</note>
  <outline>
    <contour>
      <point x="592" y="-20" type="curve" smooth="yes"/>
      <point x="866.667" y="-20"/>
      <point x="1026" y="203.333"/>
      <point x="1026" y="594" type="curve" smooth="yes"/>
      <point x="1026" y="858" type="line" smooth="yes"/>
      <point x="1026" y="1250"/>
      <point x="866" y="1477"/>
      <point x="590" y="1477" type="curve" smooth="yes"/>
      <point x="315.333" y="1477"/>
      <point x="155" y="1248.667"/>
      <point x="155" y="862" type="curve" smooth="yes"/>
      <point x="155" y="598" type="line" smooth="yes"/>
      <point x="155" y="206"/>
      <point x="318.667" y="-20"/>
    </contour>
    <contour>
      <point x="592" y="34" type="curve" smooth="yes"/>
      <point x="350.667" y="34"/>
      <point x="209" y="244"/>
      <point x="209" y="596" type="curve" smooth="yes"/>
      <point x="209" y="695" type="line"/>
      <point x="972" y="695" type="line"/>
      <point x="972" y="601" type="line" smooth="yes"/>
      <point x="972" y="242.333"/>
      <point x="834.667" y="34"/>
    </contour>
    <contour>
      <point x="209" y="749" type="line"/>
      <point x="209" y="857" type="line" smooth="yes"/>
      <point x="209" y="1215.667"/>
      <point x="344.667" y="1423"/>
      <point x="590" y="1423" type="curve" smooth="yes"/>
      <point x="834" y="1423"/>
      <point x="972" y="1215.333"/>
      <point x="972" y="862" type="curve" smooth="yes"/>
      <point x="972" y="749" type="line"/>
    </contour>
  </outline>
</glyph>
<glyph name="iota" format="2">
  <advance width="663"/>
  <unicode hex="03B9"/>
  <note>
uni03B9
</note>
  <outline>
    <contour>
      <point x="391" y="-8" type="curve" smooth="yes"/>
      <point x="444.333" y="-8"/>
      <point x="482" y="-4"/>
      <point x="504" y="4" type="curve"/>
      <point x="495" y="55" type="line"/>
      <point x="453" y="49"/>
      <point x="417.333" y="46"/>
      <point x="388" y="46" type="curve" smooth="yes"/>
      <point x="272" y="46"/>
      <point x="226.333" y="116.333"/>
      <point x="225" y="263" type="curve" smooth="yes"/>
      <point x="225" y="1082" type="line"/>
      <point x="170" y="1082" type="line"/>
      <point x="170" y="264" type="line" smooth="yes"/>
      <point x="171.333" y="76"/>
      <point x="233.667" y="-8"/>
    </contour>
  </outline>
</glyph>
<glyph name="lambda" format="2">
  <advance width="1134"/>
  <unicode hex="03BB"/>
  <note>
uni03BB
</note>
  <outline>
    <contour>
      <point x="1030" y="-6" type="curve" smooth="yes"/>
      <point x="1056" y="-6"/>
      <point x="1075" y="-2.667"/>
      <point x="1087" y="4" type="curve"/>
      <point x="1078" y="48" type="line"/>
      <point x="1030" y="48" type="line" smooth="yes"/>
      <point x="968" y="48"/>
      <point x="923" y="85"/>
      <point x="880" y="202" type="curve" smooth="yes"/>
      <point x="467" y="1330" type="line" smooth="yes"/>
      <point x="423" y="1450"/>
      <point x="304" y="1529"/>
      <point x="188" y="1508" type="curve"/>
      <point x="197" y="1458" type="line"/>
      <point x="316" y="1473"/>
      <point x="373" y="1422"/>
      <point x="406" y="1334" type="curve" smooth="yes"/>
      <point x="503" y="1075" type="line"/>
      <point x="62" y="0" type="line"/>
      <point x="121" y="0" type="line"/>
      <point x="530" y="1001" type="line"/>
      <point x="843" y="140" type="line" smooth="yes"/>
      <point x="873" y="58"/>
      <point x="935" y="-6"/>
    </contour>
  </outline>
</glyph>
<glyph name="xi" format="2">
  <advance width="1004"/>
  <unicode hex="03BE"/>
  <note>
uni03BE
</note>
  <outline>
    <contour>
      <point x="758" y="-370" type="line"/>
      <point x="846" y="-323.333"/>
      <point x="910" y="-234"/>
      <point x="910" y="-150" type="curve" smooth="yes"/>
      <point x="910" y="-68.667"/>
      <point x="865" y="-24"/>
      <point x="725" y="16" type="curve" smooth="yes"/>
      <point x="600" y="50" type="line" smooth="yes"/>
      <point x="364" y="117"/>
      <point x="192" y="201"/>
      <point x="192" y="445" type="curve" smooth="yes"/>
      <point x="192" y="689"/>
      <point x="369" y="835"/>
      <point x="685" y="835" type="curve" smooth="yes"/>
      <point x="799" y="835" type="line"/>
      <point x="799" y="891" type="line"/>
      <point x="669" y="891" type="line" smooth="yes"/>
      <point x="405.667" y="893"/>
      <point x="274" y="978.667"/>
      <point x="274" y="1148" type="curve" smooth="yes"/>
      <point x="274" y="1324"/>
      <point x="414.667" y="1423"/>
      <point x="652" y="1423" type="curve" smooth="yes"/>
      <point x="748.667" y="1423"/>
      <point x="839" y="1407.667"/>
      <point x="923" y="1377" type="curve"/>
      <point x="929" y="1427" type="line"/>
      <point x="844.333" y="1459.667"/>
      <point x="752.667" y="1476"/>
      <point x="654" y="1476" type="curve" smooth="yes"/>
      <point x="378" y="1476"/>
      <point x="219" y="1354.667"/>
      <point x="219" y="1144" type="curve" smooth="yes"/>
      <point x="219" y="1010.667"/>
      <point x="314.667" y="907.667"/>
      <point x="480" y="861" type="curve"/>
      <point x="260" y="803.667"/>
      <point x="137" y="657"/>
      <point x="137" y="449" type="curve" smooth="yes"/>
      <point x="137" y="317"/>
      <point x="186" y="212"/>
      <point x="283" y="135" type="curve" smooth="yes"/>
      <point x="323" y="102"/>
      <point x="372" y="75"/>
      <point x="429" y="52" type="curve" smooth="yes"/>
      <point x="542" y="6"/>
      <point x="857" y="-28"/>
      <point x="857" y="-149" type="curve" smooth="yes"/>
      <point x="857" y="-217"/>
      <point x="806.333" y="-290.333"/>
      <point x="725" y="-337" type="curve"/>
    </contour>
  </outline>
</glyph>
<glyph name="pi" format="2">
  <advance width="1220"/>
  <unicode hex="03C0"/>
  <note>
uni03C0
</note>
  <outline>
    <contour>
      <point x="1081" y="-8" type="curve" smooth="yes"/>
      <point x="1134.333" y="-8"/>
      <point x="1172" y="-4"/>
      <point x="1194" y="4" type="curve"/>
      <point x="1185" y="55" type="line"/>
      <point x="1143" y="49"/>
      <point x="1107.333" y="46"/>
      <point x="1078" y="46" type="curve" smooth="yes"/>
      <point x="960.667" y="46"/>
      <point x="915" y="117.667"/>
      <point x="915" y="271" type="curve" smooth="yes"/>
      <point x="915" y="1027" type="line"/>
      <point x="1130" y="1027" type="line"/>
      <point x="1130" y="1082" type="line"/>
      <point x="62" y="1082" type="line"/>
      <point x="62" y="1027" type="line"/>
      <point x="257" y="1027" type="line"/>
      <point x="257" y="0" type="line"/>
      <point x="311" y="0" type="line"/>
      <point x="311" y="1027" type="line"/>
      <point x="860" y="1027" type="line"/>
      <point x="860" y="264" type="line" smooth="yes"/>
      <point x="861.333" y="76"/>
      <point x="923.667" y="-8"/>
    </contour>
  </outline>
</glyph>
<glyph name="sigmafinal" format="2">
  <advance width="1101"/>
  <unicode hex="03C2"/>
  <note>
uni03C2
</note>
  <outline>
    <contour>
      <point x="693" y="-379" type="line"/>
      <point x="756" y="-352"/>
      <point x="832" y="-240"/>
      <point x="832" y="-163" type="curve" smooth="yes"/>
      <point x="832" y="-44"/>
      <point x="775" y="0"/>
      <point x="619" y="35" type="curve" smooth="yes"/>
      <point x="332" y="98"/>
      <point x="177" y="264"/>
      <point x="177" y="554" type="curve" smooth="yes"/>
      <point x="177" y="861"/>
      <point x="329" y="1048"/>
      <point x="572" y="1048" type="curve" smooth="yes"/>
      <point x="775" y="1048"/>
      <point x="911" y="921"/>
      <point x="911" y="720" type="curve"/>
      <point x="965" y="720" type="line"/>
      <point x="965" y="955"/>
      <point x="804" y="1102"/>
      <point x="572" y="1102" type="curve" smooth="yes"/>
      <point x="258" y="1102"/>
      <point x="121" y="847"/>
      <point x="121" y="509" type="curve" smooth="yes"/>
      <point x="125" y="236"/>
      <point x="282" y="55"/>
      <point x="602" y="-16" type="curve" smooth="yes"/>
      <point x="746" y="-48"/>
      <point x="778" y="-76"/>
      <point x="778" y="-163" type="curve" smooth="yes"/>
      <point x="778" y="-234"/>
      <point x="721" y="-318"/>
      <point x="658" y="-347" type="curve"/>
    </contour>
  </outline>
</glyph>
<glyph name="sigma" format="2">
  <advance width="1160"/>
  <unicode hex="03C3"/>
  <note>
uni03C3
</note>
  <outline>
    <contour>
      <point x="595" y="-20" type="curve" smooth="yes"/>
      <point x="778" y="-20"/>
      <point x="929" y="77"/>
      <point x="1008" y="241" type="curve" smooth="yes"/>
      <point x="1047" y="323"/>
      <point x="1067" y="416"/>
      <point x="1067" y="521" type="curve" smooth="yes"/>
      <point x="1067" y="775"/>
      <point x="970" y="943"/>
      <point x="805" y="1027" type="curve"/>
      <point x="1150" y="1027" type="line"/>
      <point x="1150" y="1082" type="line"/>
      <point x="587" y="1082" type="line" smooth="yes"/>
      <point x="164" y="1077"/>
      <point x="120" y="612"/>
      <point x="120" y="562" type="curve" smooth="yes"/>
      <point x="124" y="140"/>
      <point x="439" y="-20"/>
    </contour>
    <contour>
      <point x="595" y="34" type="curve" smooth="yes"/>
      <point x="330" y="34"/>
      <point x="174" y="265"/>
      <point x="174" y="520" type="curve" smooth="yes"/>
      <point x="174" y="828"/>
      <point x="346" y="1027"/>
      <point x="593" y="1027" type="curve" smooth="yes"/>
      <point x="961" y="1027"/>
      <point x="1013" y="611"/>
      <point x="1013" y="531" type="curve" smooth="yes"/>
      <point x="1013" y="239"/>
      <point x="842" y="34"/>
    </contour>
  </outline>
</glyph>
<glyph name="tau" format="2">
  <advance width="1068"/>
  <unicode hex="03C4"/>
  <note>
uni03C4
</note>
  <outline>
    <contour>
      <point x="706" y="-21" type="curve" smooth="yes"/>
      <point x="753.333" y="-21"/>
      <point x="791" y="-16.667"/>
      <point x="819" y="-8" type="curve"/>
      <point x="810" y="42" type="line"/>
      <point x="766.667" y="36"/>
      <point x="731" y="33"/>
      <point x="703" y="33" type="curve" smooth="yes"/>
      <point x="573.667" y="33"/>
      <point x="518" y="113.667"/>
      <point x="518" y="279" type="curve" smooth="yes"/>
      <point x="518" y="1027" type="line"/>
      <point x="954" y="1027" type="line"/>
      <point x="954" y="1082" type="line"/>
      <point x="73" y="1082" type="line"/>
      <point x="73" y="1027" type="line"/>
      <point x="463" y="1027" type="line"/>
      <point x="463" y="268" type="line" smooth="yes"/>
      <point x="465.667" y="69.333"/>
      <point x="536.667" y="-21"/>
    </contour>
  </outline>
</glyph>
<glyph name="upsilon" format="2">
  <advance width="1117"/>
  <unicode hex="03C5"/>
  <note>
uni03C5
</note>
  <outline>
    <contour>
      <point x="504" y="-20" type="curve" smooth="yes"/>
      <point x="769.333" y="-20"/>
      <point x="929" y="193.667"/>
      <point x="929" y="523" type="curve" smooth="yes"/>
      <point x="929" y="720.333"/>
      <point x="908.667" y="859.333"/>
      <point x="830" y="1082" type="curve"/>
      <point x="764" y="1082" type="line"/>
      <point x="838.667" y="898.667"/>
      <point x="876" y="711.333"/>
      <point x="876" y="520" type="curve" smooth="yes"/>
      <point x="876" y="224"/>
      <point x="732.667" y="34"/>
      <point x="502" y="34" type="curve" smooth="yes"/>
      <point x="324.667" y="34"/>
      <point x="224.667" y="152.333"/>
      <point x="222" y="375" type="curve" smooth="yes"/>
      <point x="222" y="1082" type="line"/>
      <point x="168" y="1082" type="line"/>
      <point x="168" y="387" type="line" smooth="yes"/>
      <point x="168" y="121.667"/>
      <point x="284" y="-20"/>
    </contour>
  </outline>
</glyph>
<glyph name="psi" format="2">
  <advance width="1434"/>
  <unicode hex="03C8"/>
  <note>
uni03C8
</note>
  <outline>
    <contour>
      <point x="653" y="-415" type="line"/>
      <point x="707" y="-415" type="line"/>
      <point x="707" y="-19" type="line"/>
      <point x="1048.333" y="-12.333"/>
      <point x="1234" y="203.333"/>
      <point x="1234" y="590" type="curve" smooth="yes"/>
      <point x="1234" y="738"/>
      <point x="1204" y="870.667"/>
      <point x="1095" y="1082" type="curve"/>
      <point x="1028" y="1082" type="line"/>
      <point x="1129.333" y="920.667"/>
      <point x="1180" y="756"/>
      <point x="1180" y="588" type="curve" smooth="yes"/>
      <point x="1180" y="234.667"/>
      <point x="1017.667" y="40.667"/>
      <point x="707" y="34" type="curve"/>
      <point x="707" y="1082" type="line"/>
      <point x="653" y="1082" type="line"/>
      <point x="653" y="35" type="line"/>
      <point x="365" y="47"/>
      <point x="206" y="235.333"/>
      <point x="202" y="574" type="curve" smooth="yes"/>
      <point x="202" y="1082" type="line"/>
      <point x="148" y="1082" type="line"/>
      <point x="148" y="580" type="line" smooth="yes"/>
      <point x="150.667" y="201.333"/>
      <point x="329" y="-7"/>
      <point x="653" y="-19" type="curve"/>
    </contour>
  </outline>
</glyph>
<glyph name="omega" format="2">
  <advance width="1687"/>
  <unicode hex="03C9"/>
  <note>
uni03C9
</note>
  <outline>
    <contour>
      <point x="517" y="-20" type="curve" smooth="yes"/>
      <point x="687.667" y="-20"/>
      <point x="799.333" y="76.333"/>
      <point x="846" y="251" type="curve"/>
      <point x="892.667" y="76.333"/>
      <point x="1004.333" y="-20"/>
      <point x="1175" y="-20" type="curve" smooth="yes"/>
      <point x="1400.333" y="-20"/>
      <point x="1541" y="185.667"/>
      <point x="1541" y="503" type="curve" smooth="yes"/>
      <point x="1541" y="677.667"/>
      <point x="1510.667" y="834.667"/>
      <point x="1402" y="1082" type="curve"/>
      <point x="1336" y="1082" type="line"/>
      <point x="1445.333" y="867.333"/>
      <point x="1488" y="685.333"/>
      <point x="1488" y="500" type="curve" smooth="yes"/>
      <point x="1488" y="220"/>
      <point x="1366" y="34"/>
      <point x="1174" y="34" type="curve" smooth="yes"/>
      <point x="982" y="34"/>
      <point x="878" y="189.333"/>
      <point x="874" y="468" type="curve" smooth="yes"/>
      <point x="874" y="770" type="line"/>
      <point x="819" y="770" type="line"/>
      <point x="819" y="473" type="line" smooth="yes"/>
      <point x="816.333" y="187.667"/>
      <point x="708.333" y="34"/>
      <point x="519" y="34" type="curve" smooth="yes"/>
      <point x="325.667" y="34"/>
      <point x="205" y="221.333"/>
      <point x="205" y="500" type="curve" smooth="yes"/>
      <point x="205" y="694.667"/>
      <point x="255.667" y="888.667"/>
      <point x="357" y="1082" type="curve"/>
      <point x="291" y="1082" type="line"/>
      <point x="182" y="832.333"/>
      <point x="152" y="675.667"/>
      <point x="152" y="503" type="curve" smooth="yes"/>
      <point x="152" y="189.667"/>
      <point x="289" y="-20"/>
    </contour>
  </outline>
</glyph>
<glyph name="thetaSymbol" format="2">
  <advance width="1185"/>
  <unicode hex="03D1"/>
  <note>
uni03D1
</note>
  <outline>
    <contour>
      <point x="547" y="-20" type="curve" smooth="yes"/>
      <point x="815" y="-20"/>
      <point x="946" y="123"/>
      <point x="950" y="407" type="curve" smooth="yes"/>
      <point x="950" y="685" type="line"/>
      <point x="1014" y="687.667"/>
      <point x="1101" y="705.333"/>
      <point x="1137" y="720" type="curve"/>
      <point x="1126" y="772" type="line"/>
      <point x="1075" y="753"/>
      <point x="1016" y="742"/>
      <point x="950" y="739" type="curve"/>
      <point x="950" y="1074" type="line" smooth="yes"/>
      <point x="950" y="1346"/>
      <point x="837" y="1497"/>
      <point x="641" y="1497" type="curve" smooth="yes"/>
      <point x="486" y="1497"/>
      <point x="374" y="1363"/>
      <point x="374" y="1161" type="curve" smooth="yes"/>
      <point x="374" y="871.667"/>
      <point x="565.333" y="698"/>
      <point x="896" y="686" type="curve"/>
      <point x="896" y="401" type="line" smooth="yes"/>
      <point x="890.667" y="150.333"/>
      <point x="788.333" y="34"/>
      <point x="547" y="34" type="curve" smooth="yes"/>
      <point x="328.333" y="34"/>
      <point x="202.667" y="165"/>
      <point x="200" y="413" type="curve" smooth="yes"/>
      <point x="200" y="748" type="line"/>
      <point x="146" y="746" type="line"/>
      <point x="146" y="410" type="line" smooth="yes"/>
      <point x="150" y="134"/>
      <point x="301.667" y="-20"/>
    </contour>
    <contour>
      <point x="896" y="740" type="line"/>
      <point x="593.333" y="752"/>
      <point x="428" y="895.333"/>
      <point x="428" y="1154" type="curve" smooth="yes"/>
      <point x="430.667" y="1343"/>
      <point x="518.333" y="1443"/>
      <point x="641" y="1443" type="curve"/>
      <point x="814.333" y="1443"/>
      <point x="894.667" y="1320"/>
      <point x="896" y="1084" type="curve" smooth="yes"/>
    </contour>
  </outline>
</glyph>
<glyph name="UpsilonhookSymbol" format="2">
  <advance width="1090"/>
  <unicode hex="03D2"/>
  <note>
uni03D2
</note>
  <outline>
    <contour>
      <point x="535" y="0" type="line"/>
      <point x="590" y="0" type="line"/>
      <point x="590" y="617" type="line"/>
      <point x="865" y="1235" type="line" smooth="yes"/>
      <point x="923" y="1366"/>
      <point x="1012" y="1437"/>
      <point x="1078" y="1419" type="curve" smooth="yes"/>
      <point x="1154" y="1398" type="line"/>
      <point x="1177" y="1439" type="line"/>
      <point x="1147" y="1457.667"/>
      <point x="1113" y="1467"/>
      <point x="1075" y="1467" type="curve" smooth="yes"/>
      <point x="957.667" y="1467"/>
      <point x="888" y="1412"/>
      <point x="812" y="1239" type="curve" smooth="yes"/>
      <point x="560" y="669" type="line"/>
      <point x="308" y="1239" type="line" smooth="yes"/>
      <point x="233" y="1408"/>
      <point x="163.333" y="1467"/>
      <point x="46" y="1467" type="curve" smooth="yes"/>
      <point x="9.333" y="1467"/>
      <point x="-25" y="1457.667"/>
      <point x="-57" y="1439" type="curve"/>
      <point x="-34" y="1398" type="line"/>
      <point x="50" y="1420" type="line" smooth="yes"/>
      <point x="139" y="1443"/>
      <point x="197" y="1362"/>
      <point x="264" y="1215" type="curve" smooth="yes"/>
      <point x="535" y="623" type="line"/>
    </contour>
  </outline>
</glyph>
<glyph name="ho-ethiopic" format="2">
  <advance width="1129"/>
  <unicode hex="1206"/>
  <outline>
    <contour>
      <point x="760" y="783" type="curve" smooth="yes"/>
      <point x="856" y="783"/>
      <point x="931" y="857"/>
      <point x="931" y="953" type="curve" smooth="yes"/>
      <point x="931" y="1049"/>
      <point x="856" y="1127"/>
      <point x="760" y="1127" type="curve" smooth="yes"/>
      <point x="667" y="1127"/>
      <point x="589" y="1053"/>
      <point x="589" y="953" type="curve" smooth="yes"/>
      <point x="589" y="853"/>
      <point x="668" y="783"/>
    </contour>
    <contour>
      <point x="760" y="837" type="curve" smooth="yes"/>
      <point x="692" y="837"/>
      <point x="643" y="884"/>
      <point x="643" y="953" type="curve" smooth="yes"/>
      <point x="643" y="1025"/>
      <point x="692" y="1073"/>
      <point x="760" y="1073" type="curve" smooth="yes"/>
      <point x="828" y="1073"/>
      <point x="877" y="1025"/>
      <point x="877" y="953" type="curve" smooth="yes"/>
      <point x="877" y="884"/>
      <point x="828" y="837"/>
    </contour>
    <component base="ha.base"/>
  </outline>
</glyph>
<glyph name="lo-ethiopic" format="2">
  <advance width="1280"/>
  <unicode hex="120E"/>
  <anchor x="924" y="-122" name="_hee"/>
  <anchor x="917" y="12" name="haa"/>
  <anchor x="99" y="585" name="he"/>
  <anchor x="924" y="-122" name="hee"/>
  <anchor x="996" y="43" name="hi"/>
  <anchor x="1039" y="667" name="hu"/>
  <anchor x="917" y="2" name="hwa"/>
  <outline>
    <contour>
      <point x="1064" y="534" type="curve" smooth="yes"/>
      <point x="1160" y="534"/>
      <point x="1235" y="608"/>
      <point x="1235" y="704" type="curve" smooth="yes"/>
      <point x="1235" y="800"/>
      <point x="1160" y="878"/>
      <point x="1064" y="878" type="curve" smooth="yes"/>
      <point x="971" y="878"/>
      <point x="893" y="804"/>
      <point x="893" y="704" type="curve" smooth="yes"/>
      <point x="893" y="604"/>
      <point x="972" y="534"/>
    </contour>
    <contour>
      <point x="1064" y="588" type="curve" smooth="yes"/>
      <point x="996" y="588"/>
      <point x="947" y="635"/>
      <point x="947" y="704" type="curve" smooth="yes"/>
      <point x="947" y="776"/>
      <point x="996" y="824"/>
      <point x="1064" y="824" type="curve" smooth="yes"/>
      <point x="1132" y="824"/>
      <point x="1181" y="776"/>
      <point x="1181" y="704" type="curve" smooth="yes"/>
      <point x="1181" y="635"/>
      <point x="1132" y="588"/>
    </contour>
    <component base="la.base"/>
  </outline>
</glyph>
<glyph name="ro-ethiopic" format="2">
  <advance width="949"/>
  <unicode hex="122E"/>
  <anchor x="558" y="1278" name="hat"/>
  <anchor x="767" y="-26" name="hwa"/>
  <anchor x="768" y="-15" name="leg"/>
  <outline>
    <contour>
      <point x="775" y="760" type="curve" smooth="yes"/>
      <point x="871" y="760"/>
      <point x="946" y="834"/>
      <point x="946" y="930" type="curve" smooth="yes"/>
      <point x="946" y="1026"/>
      <point x="871" y="1104"/>
      <point x="775" y="1104" type="curve" smooth="yes"/>
      <point x="682" y="1104"/>
      <point x="604" y="1030"/>
      <point x="604" y="930" type="curve" smooth="yes"/>
      <point x="604" y="830"/>
      <point x="683" y="760"/>
    </contour>
    <contour>
      <point x="775" y="814" type="curve" smooth="yes"/>
      <point x="707" y="814"/>
      <point x="658" y="861"/>
      <point x="658" y="930" type="curve" smooth="yes"/>
      <point x="658" y="1002"/>
      <point x="707" y="1050"/>
      <point x="775" y="1050" type="curve" smooth="yes"/>
      <point x="843" y="1050"/>
      <point x="892" y="1002"/>
      <point x="892" y="930" type="curve" smooth="yes"/>
      <point x="892" y="861"/>
      <point x="843" y="814"/>
    </contour>
    <component base="re-ethiopic"/>
  </outline>
</glyph>
<glyph name="qwaa-ethiopic" format="2">
  <advance width="1437"/>
  <unicode hex="124B"/>
  <anchor x="737.716" y="11.0" name="haa"/>
  <anchor x="711" y="1331" name="hat"/>
  <anchor x="916" y="-95" name="hee"/>
  <anchor x="1369.935" y="657.0" name="hu"/>
  <anchor x="704.187" y="-25.0" name="hwa"/>
  <anchor x="705" y="-25" name="leg"/>
  <anchor x="711" y="1102" name="neck"/>
  <outline>
    <contour>
      <point x="786" y="-340" type="line"/>
      <point x="786" y="-516" type="line"/>
      <point x="830" y="-516" type="line"/>
      <point x="830" y="-340" type="line"/>
    </contour>
    <component base="wa.base"/>
    <component base="_smart.neck" xOffset="710" yOffset="1126"/>
    <component base="_smart.leg" xOffset="703" yOffset="-312"/>
    <component base="_smart.hwa" xOffset="704" yOffset="-393"/>
  </outline>
</glyph>
<glyph name="qhwaa-ethiopic" format="2">
  <advance width="1437"/>
  <unicode hex="125B"/>
  <anchor x="737.716" y="11.0" name="haa"/>
  <anchor x="711" y="1331" name="hat"/>
  <anchor x="916" y="-95" name="hee"/>
  <anchor x="1369.935" y="657.0" name="hu"/>
  <anchor x="704.187" y="-25.0" name="hwa"/>
  <anchor x="705" y="-25" name="leg"/>
  <anchor x="711" y="1102" name="neck"/>
  <outline>
    <contour>
      <point x="810" y="-344" type="line"/>
      <point x="810" y="-496" type="line"/>
      <point x="844" y="-496" type="line"/>
      <point x="844" y="-344" type="line"/>
    </contour>
    <component base="wa.base"/>
    <component base="_smart.neck" xOffset="710" yOffset="1126"/>
    <component base="_smart.leg" xOffset="703" yOffset="-312"/>
    <component base="_smart.hwa" xOffset="704" yOffset="-393"/>
    <component base="_smart.hat" xOffset="140" yOffset="1219"/>
  </outline>
</glyph>
<glyph name="xe-ethiopic" format="2">
  <advance width="943"/>
  <unicode hex="1285"/>
  <anchor x="810" y="21" name="haa"/>
  <anchor x="684" y="0" name="haa.acute"/>
  <anchor x="457" y="1367" name="hat"/>
  <anchor x="351" y="1176" name="hat.left"/>
  <anchor x="862" y="91" name="he.left.outer"/>
  <anchor x="692" y="40" name="hee"/>
  <anchor x="749" y="50" name="hi"/>
  <anchor x="510" y="868" name="ho.ring"/>
  <anchor x="120" y="1093" name="ho.ring.uniq"/>
  <anchor x="741" y="638" name="hu"/>
  <anchor x="714" y="0" name="hwa"/>
  <anchor x="364" y="1102" name="neck"/>
  <anchor x="204" y="1041" name="neck.left"/>
  <anchor x="116" y="1235" name="nose"/>
  <anchor x="578" y="1010" name="ring"/>
  <anchor x="512" y="1" name="xwaa"/>
  <outline>
    <contour>
      <point x="-1" y="1061" type="line"/>
      <point x="-1" y="797" type="line"/>
      <point x="40" y="797" type="line"/>
      <point x="40" y="1061" type="line"/>
    </contour>
    <component base="ga.base" xOffset="60"/>
    <component base="_smart.neck.left" xOffset="115" yOffset="1065"/>
    <component base="_smart.nose" xOffset="-197" yOffset="1134"/>
  </outline>
</glyph>
<glyph name="xoa-ethiopic" format="2">
  <advance width="949"/>
  <unicode hex="1287"/>
  <anchor x="558" y="1278" name="hat"/>
  <anchor x="767" y="-26" name="hwa"/>
  <anchor x="768" y="-15" name="leg"/>
  <outline>
    <contour>
      <point x="484" y="-344" type="line"/>
      <point x="484" y="-408" type="line"/>
      <point x="838" y="-408" type="line"/>
      <point x="838" y="-344" type="line"/>
    </contour>
    <component base="xo-ethiopic"/>
  </outline>
</glyph>
<glyph name="xwi-ethiopic" format="2">
  <advance width="1015"/>
  <unicode hex="128A"/>
  <anchor x="184" y="1277" name="hat"/>
  <anchor x="257.55" y="1173.0" name="hat.002"/>
  <anchor x="600" y="-56" name="hee"/>
  <anchor x="639" y="45" name="hi"/>
  <anchor x="631" y="681" name="hu"/>
  <anchor x="569" y="3" name="hwa"/>
  <anchor x="225" y="1058" name="neck"/>
  <anchor x="-12" y="1235" name="nose"/>
  <anchor x="115" y="1043" name="shoulder"/>
  <outline>
    <contour>
      <point x="585" y="613" type="line"/>
      <point x="585" y="572" type="line"/>
      <point x="716" y="572" type="line"/>
      <point x="716" y="613" type="line"/>
    </contour>
    <contour>
      <point x="671" y="766" type="line"/>
      <point x="671" y="371" type="line"/>
      <point x="717" y="371" type="line"/>
      <point x="717" y="766" type="line"/>
    </contour>
    <contour>
      <point x="692" y="421" type="line"/>
      <point x="692" y="371" type="line"/>
      <point x="828" y="371" type="line"/>
      <point x="828" y="421" type="line"/>
    </contour>
    <component base="ga.base"/>
    <component base="_smart.shoulder" xOffset="53" yOffset="1116"/>
    <component base="_smart.nose" xOffset="-255" yOffset="1134"/>
  </outline>
</glyph>
<glyph name="xwaa-ethiopic" format="2">
  <advance width="1015"/>
  <unicode hex="128B"/>
  <anchor x="184" y="1277" name="hat"/>
  <anchor x="257.55" y="1173.0" name="hat.002"/>
  <anchor x="600" y="-56" name="hee"/>
  <anchor x="639" y="45" name="hi"/>
  <anchor x="631" y="681" name="hu"/>
  <anchor x="569" y="3" name="hwa"/>
  <anchor x="225" y="1058" name="neck"/>
  <anchor x="-12" y="1235" name="nose"/>
  <anchor x="115" y="1043" name="shoulder"/>
  <outline>
    <contour>
      <point x="650" y="-354" type="line"/>
      <point x="710" y="-354" type="line"/>
      <point x="712" y="-1" type="line"/>
      <point x="330" y="-1" type="line"/>
      <point x="330" y="-43" type="line"/>
      <point x="652" y="-43" type="line"/>
    </contour>
    <component base="ga.base"/>
    <component base="_smart.nose" xOffset="-255" yOffset="1134"/>
    <component base="_smart.shoulder" xOffset="53" yOffset="1116"/>
  </outline>
</glyph>
<glyph name="xwe-ethiopic" format="2">
  <advance width="1015"/>
  <unicode hex="128D"/>
  <anchor x="184" y="1277" name="hat"/>
  <anchor x="257.55" y="1173.0" name="hat.002"/>
  <anchor x="600" y="-56" name="hee"/>
  <anchor x="639" y="45" name="hi"/>
  <anchor x="631" y="681" name="hu"/>
  <anchor x="569" y="3" name="hwa"/>
  <anchor x="225" y="1058" name="neck"/>
  <anchor x="-12" y="1235" name="nose"/>
  <anchor x="115" y="1043" name="shoulder"/>
  <outline>
    <contour>
      <point x="583" y="635" type="line"/>
      <point x="583" y="566" type="line"/>
      <point x="768" y="566" type="line"/>
      <point x="768" y="635" type="line"/>
    </contour>
    <contour>
      <point x="768" y="740" type="line"/>
      <point x="768" y="431" type="line"/>
      <point x="810" y="431" type="line"/>
      <point x="810" y="740" type="line"/>
    </contour>
    <contour>
      <point x="766" y="483" type="line"/>
      <point x="766" y="431" type="line"/>
      <point x="903" y="431" type="line"/>
      <point x="903" y="483" type="line"/>
    </contour>
    <component base="ga.base"/>
    <component base="_smart.shoulder" xOffset="53" yOffset="1116"/>
    <component base="_smart.nose" xOffset="-255" yOffset="1134"/>
  </outline>
</glyph>
<glyph name="ne-ethiopic" format="2">
  <advance width="863"/>
  <unicode hex="1295"/>
  <outline>
    <contour>
      <point x="641" y="0" type="line"/>
      <point x="696" y="0" type="line"/>
      <point x="696" y="306" type="line" smooth="yes"/>
      <point x="696" y="449"/>
      <point x="662.676" y="552.993"/>
      <point x="596" y="618.373" type="curve"/>
      <point x="596" y="971"/>
      <point x="483" y="1102"/>
      <point x="251" y="1102" type="curve" smooth="yes"/>
      <point x="180" y="1102"/>
      <point x="114" y="1083"/>
      <point x="55" y="1049" type="curve"/>
      <point x="93" y="1012" type="line"/>
      <point x="140" y="1036"/>
      <point x="192" y="1049"/>
      <point x="248" y="1049" type="curve" smooth="yes"/>
      <point x="451" y="1049"/>
      <point x="541" y="940"/>
      <point x="541" y="659.429" type="curve"/>
      <point x="501.46" y="681.537"/>
      <point x="354" y="695"/>
      <point x="299" y="700" type="curve"/>
      <point x="301" y="646" type="line"/>
      <point x="557" y="628"/>
      <point x="641" y="519"/>
      <point x="641" y="308" type="curve" smooth="yes"/>
    </contour>
  </outline>
</glyph>
<glyph name="nye-ethiopic" format="2">
  <advance width="983"/>
  <unicode hex="129D"/>
  <outline>
    <contour>
      <point x="701" y="0" type="line"/>
      <point x="756" y="0" type="line"/>
      <point x="756" y="306" type="line" smooth="yes"/>
      <point x="756" y="449"/>
      <point x="723" y="553"/>
      <point x="656" y="618" type="curve"/>
      <point x="656" y="971"/>
      <point x="543" y="1102"/>
      <point x="311" y="1102" type="curve" smooth="yes"/>
      <point x="240" y="1102"/>
      <point x="174" y="1083"/>
      <point x="115" y="1049" type="curve"/>
      <point x="153" y="1012" type="line"/>
      <point x="200" y="1036"/>
      <point x="252" y="1049"/>
      <point x="308" y="1049" type="curve" smooth="yes"/>
      <point x="511" y="1049"/>
      <point x="601" y="940"/>
      <point x="601" y="659" type="curve"/>
      <point x="561" y="682"/>
      <point x="414" y="695"/>
      <point x="359" y="700" type="curve"/>
      <point x="361" y="646" type="line"/>
      <point x="617" y="628"/>
      <point x="701" y="519"/>
      <point x="701" y="308" type="curve" smooth="yes"/>
    </contour>
    <component base="_smart.hat.left" xOffset="393" yOffset="1164"/>
  </outline>
</glyph>
<glyph name="eGlottal-ethiopic" format="2">
  <advance width="1123"/>
  <unicode hex="12A5"/>
  <anchor x="259" y="721" name="aGl"/>
  <anchor x="928" y="2" name="haa"/>
  <anchor x="569.936" y="1382.0" name="hat"/>
  <anchor x="232" y="1232" name="hat.left"/>
  <anchor x="510" y="1154" name="he.acute.top"/>
  <anchor x="289" y="560" name="he.left.inner"/>
  <anchor x="132.058" y="634.0" name="he.left.outer"/>
  <anchor x="820" y="80" name="hee"/>
  <anchor x="1014" y="60" name="hi"/>
  <anchor x="200" y="10" name="ho"/>
  <anchor x="987.956" y="673.0" name="hu"/>
  <anchor x="925" y="0" name="hwa"/>
  <anchor x="541.142" y="1040.0" name="ka"/>
  <anchor x="584.83" y="1114.0" name="neck"/>
  <outline>
    <contour>
      <point x="92" y="1611" type="line"/>
      <point x="92" y="1405" type="line"/>
      <point x="135" y="1405" type="line"/>
      <point x="135" y="1611" type="line"/>
    </contour>
    <component base="ba.base"/>
    <component base="_smart.aGl" xOffset="1136" yOffset="-32"/>
  </outline>
</glyph>
<glyph name="ge-ethiopic" format="2">
  <advance width="771"/>
  <unicode hex="130D"/>
  <anchor x="184" y="1277" name="hat"/>
  <anchor x="257.55" y="1173.0" name="hat.002"/>
  <anchor x="600" y="-56" name="hee"/>
  <anchor x="639" y="45" name="hi"/>
  <anchor x="631" y="681" name="hu"/>
  <anchor x="569" y="3" name="hwa"/>
  <anchor x="225" y="1058" name="neck"/>
  <anchor x="-12" y="1235" name="nose"/>
  <anchor x="115" y="1043" name="shoulder"/>
  <outline>
    <contour>
      <point x="165" y="732" type="curve" smooth="yes"/>
      <point x="261" y="732"/>
      <point x="336" y="806"/>
      <point x="336" y="902" type="curve" smooth="yes"/>
      <point x="336" y="998"/>
      <point x="261" y="1076"/>
      <point x="165" y="1076" type="curve" smooth="yes"/>
      <point x="72" y="1076"/>
      <point x="-6" y="1002"/>
      <point x="-6" y="902" type="curve" smooth="yes"/>
      <point x="-6" y="802"/>
      <point x="73" y="732"/>
    </contour>
    <contour>
      <point x="165" y="786" type="curve" smooth="yes"/>
      <point x="97" y="786"/>
      <point x="48" y="833"/>
      <point x="48" y="902" type="curve" smooth="yes"/>
      <point x="48" y="974"/>
      <point x="97" y="1022"/>
      <point x="165" y="1022" type="curve" smooth="yes"/>
      <point x="233" y="1022"/>
      <point x="282" y="974"/>
      <point x="282" y="902" type="curve" smooth="yes"/>
      <point x="282" y="833"/>
      <point x="233" y="786"/>
    </contour>
    <component base="ga.base"/>
  </outline>
</glyph>
<glyph name="gwaa-ethiopic" format="2">
  <advance width="771"/>
  <unicode hex="1313"/>
  <anchor x="184" y="1277" name="hat"/>
  <anchor x="257.55" y="1173.0" name="hat.002"/>
  <anchor x="600" y="-56" name="hee"/>
  <anchor x="639" y="45" name="hi"/>
  <anchor x="631" y="681" name="hu"/>
  <anchor x="569" y="3" name="hwa"/>
  <anchor x="225" y="1058" name="neck"/>
  <anchor x="-12" y="1235" name="nose"/>
  <anchor x="115" y="1043" name="shoulder"/>
  <outline>
    <contour>
      <point x="657" y="-340" type="line"/>
      <point x="712" y="-340" type="line"/>
      <point x="712" y="-5" type="line"/>
      <point x="331" y="-5" type="line"/>
      <point x="331" y="-59" type="line"/>
      <point x="658" y="-59" type="line"/>
    </contour>
    <component base="ga.base"/>
  </outline>
</glyph>
<glyph name="paa-ethiopic" format="2">
  <advance width="679"/>
  <unicode hex="1353"/>
  <anchor x="393" y="42" name="haa"/>
  <anchor x="262" y="1" name="haa.acute"/>
  <anchor x="263" y="1339" name="hat"/>
  <anchor x="196" y="1167" name="he.acute.top"/>
  <anchor x="312" y="0" name="hee"/>
  <anchor x="325" y="50" name="hi"/>
  <anchor x="472" y="1275" name="ho.ring"/>
  <anchor x="314" y="669" name="hu"/>
  <anchor x="265" y="20" name="hwa"/>
  <anchor x="235" y="1082" name="neck"/>
  <outline>
    <contour>
      <point x="151" y="0" type="line"/>
      <point x="408" y="0" type="line"/>
      <point x="408" y="45" type="line"/>
      <point x="151" y="45" type="line"/>
    </contour>
    <component base="pa.base"/>
  </outline>
</glyph>
<glyph name="po-ethiopic" format="2">
  <advance width="679"/>
  <unicode hex="1356"/>
  <outline>
    <contour>
      <point x="190" y="0" type="line"/>
      <point x="420" y="1027" type="line"/>
      <point x="666" y="1027" type="line"/>
      <point x="666" y="1082" type="line"/>
      <point x="165" y="1082" type="line"/>
      <point x="165" y="1027" type="line"/>
      <point x="365" y="1027" type="line"/>
      <point x="135" y="1" type="line"/>
    </contour>
  </outline>
</glyph>
<glyph name="rya-ethiopic" format="2">
  <advance width="1014"/>
  <unicode hex="1358"/>
  <anchor x="695" y="71" name="fa"/>
  <anchor x="593.84" y="-13.0" name="haa"/>
  <anchor x="568.453" y="-11.0" name="haa.acute"/>
  <anchor x="445" y="1051" name="hat"/>
  <anchor x="882" y="590" name="hee"/>
  <anchor x="703" y="985" name="ho.ring"/>
  <anchor x="636" y="4" name="hwa"/>
  <outline>
    <contour>
      <point x="34" y="1082" type="line"/>
      <point x="456" y="1082" type="line"/>
      <point x="456" y="1126" type="line"/>
      <point x="34" y="1126" type="line"/>
    </contour>
    <component base="ra.base"/>
    <component base="acute" xScale="-1" xOffset="1127" yOffset="-1000"/>
  </outline>
</glyph>
<glyph name="period-ethiopic" format="2">
  <advance width="965"/>
  <unicode hex="1362"/>
  <outline>
    <contour>
      <point x="623" y="457" type="curve" smooth="yes"/>
      <point x="654" y="457"/>
      <point x="679" y="481"/>
      <point x="679" y="512" type="curve" smooth="yes"/>
      <point x="679" y="543"/>
      <point x="654" y="568"/>
      <point x="623" y="568" type="curve" smooth="yes"/>
      <point x="592" y="568"/>
      <point x="568" y="543"/>
      <point x="568" y="512" type="curve" smooth="yes"/>
      <point x="568" y="481"/>
      <point x="592" y="457"/>
    </contour>
    <contour>
      <point x="222" y="-6" type="curve" smooth="yes"/>
      <point x="253" y="-6"/>
      <point x="278" y="18"/>
      <point x="278" y="49" type="curve" smooth="yes"/>
      <point x="278" y="80"/>
      <point x="253" y="105"/>
      <point x="222" y="105" type="curve" smooth="yes"/>
      <point x="191" y="105"/>
      <point x="167" y="80"/>
      <point x="167" y="49" type="curve" smooth="yes"/>
      <point x="167" y="18"/>
      <point x="191" y="-6"/>
    </contour>
    <contour>
      <point x="622" y="-6" type="curve" smooth="yes"/>
      <point x="653" y="-6"/>
      <point x="678" y="18"/>
      <point x="678" y="49" type="curve" smooth="yes"/>
      <point x="678" y="80"/>
      <point x="653" y="105"/>
      <point x="622" y="105" type="curve" smooth="yes"/>
      <point x="591" y="105"/>
      <point x="567" y="80"/>
      <point x="567" y="49" type="curve" smooth="yes"/>
      <point x="567" y="18"/>
      <point x="591" y="-6"/>
    </contour>
    <contour>
      <point x="223" y="457" type="curve" smooth="yes"/>
      <point x="254" y="457"/>
      <point x="279" y="481"/>
      <point x="279" y="512" type="curve" smooth="yes"/>
      <point x="279" y="543"/>
      <point x="254" y="568"/>
      <point x="223" y="568" type="curve" smooth="yes"/>
      <point x="192" y="568"/>
      <point x="168" y="543"/>
      <point x="168" y="512" type="curve" smooth="yes"/>
      <point x="168" y="481"/>
      <point x="192" y="457"/>
    </contour>
  </outline>
</glyph>
<glyph name="comma-ethiopic" format="2">
  <advance width="556"/>
  <unicode hex="1363"/>
  <outline>
    <contour>
      <point x="128" y="1382" type="line"/>
      <point x="447" y="1382" type="line"/>
      <point x="447" y="1439" type="line"/>
      <point x="128" y="1439" type="line"/>
    </contour>
    <component base="colon" xOffset="30"/>
  </outline>
</glyph>
<glyph name="colon-ethiopic" format="2">
  <advance width="556"/>
  <unicode hex="1365"/>
  <outline>
    <contour>
      <point x="154" y="512" type="line"/>
      <point x="383" y="512" type="line"/>
      <point x="383" y="551" type="line"/>
      <point x="154" y="551" type="line"/>
    </contour>
    <component base="colon" xOffset="30"/>
  </outline>
</glyph>
<glyph name="paragraphseparator-ethiopic" format="2">
  <advance width="1337"/>
  <unicode hex="1368"/>
  <outline>
    <contour>
      <point x="607" y="479" type="curve" smooth="yes"/>
      <point x="638" y="479"/>
      <point x="663" y="503"/>
      <point x="663" y="534" type="curve" smooth="yes"/>
      <point x="663" y="565"/>
      <point x="638" y="590"/>
      <point x="607" y="590" type="curve" smooth="yes"/>
      <point x="576" y="590"/>
      <point x="552" y="565"/>
      <point x="552" y="534" type="curve" smooth="yes"/>
      <point x="552" y="503"/>
      <point x="576" y="479"/>
    </contour>
    <component base="period" xScale="0.5" xyScale="-0.86602" yxScale="0.86602" yScale="0.5" xOffset="65" yOffset="482"/>
    <component base="period" xScale="0.5" xyScale="-0.86602" yxScale="0.86602" yScale="0.5" xOffset="830" yOffset="922"/>
    <component base="period" xScale="-0.32557" xyScale="-0.94552" yxScale="0.94552" yScale="-0.32557" xOffset="252" yOffset="965"/>
    <component base="period" xScale="-0.32557" xyScale="-0.94552" yxScale="0.94552" yScale="-0.32557" xOffset="1087" yOffset="677"/>
    <component base="period" xOffset="406"/>
    <component base="period" xOffset="407" yOffset="883"/>
  </outline>
</glyph>
<glyph name="two-ethiopic" format="2">
  <advance width="1428"/>
  <unicode hex="136A"/>
  <outline>
    <contour>
      <point x="234" y="1074" type="line"/>
      <point x="203" y="383" type="line"/>
      <point x="258" y="383" type="line"/>
      <point x="288" y="1074" type="line"/>
    </contour>
    <component base="_num.bar" xOffset="100"/>
    <component base="three" xOffset="100"/>
  </outline>
</glyph>
<glyph name="three-ethiopic" format="2">
  <advance width="1150"/>
  <unicode hex="136B"/>
  <outline>
    <contour>
      <point x="205" y="0" type="line"/>
      <point x="205" y="1402" type="line"/>
      <point x="1073" y="1402" type="line"/>
      <point x="1073" y="1456" type="line"/>
      <point x="143" y="1456" type="line"/>
      <point x="143" y="0" type="line"/>
    </contour>
    <component base="_num.bar"/>
  </outline>
</glyph>
<glyph name="four-ethiopic" format="2">
  <advance width="1485"/>
  <unicode hex="136C"/>
  <outline>
    <contour>
      <point x="742" y="-20" type="curve" smooth="yes"/>
      <point x="1017" y="-20"/>
      <point x="1176" y="203"/>
      <point x="1176" y="594" type="curve" smooth="yes"/>
      <point x="1176" y="858" type="line" smooth="yes"/>
      <point x="1176" y="1250"/>
      <point x="1016" y="1477"/>
      <point x="740" y="1477" type="curve" smooth="yes"/>
      <point x="465" y="1477"/>
      <point x="305" y="1249"/>
      <point x="305" y="862" type="curve" smooth="yes"/>
      <point x="305" y="598" type="line" smooth="yes"/>
      <point x="305" y="206"/>
      <point x="469" y="-20"/>
    </contour>
    <contour>
      <point x="742" y="34" type="curve" smooth="yes"/>
      <point x="501" y="34"/>
      <point x="359" y="244"/>
      <point x="359" y="596" type="curve" smooth="yes"/>
      <point x="359" y="857" type="line" smooth="yes"/>
      <point x="359" y="1216"/>
      <point x="495" y="1423"/>
      <point x="740" y="1423" type="curve" smooth="yes"/>
      <point x="984" y="1423"/>
      <point x="1122" y="1215"/>
      <point x="1122" y="862" type="curve" smooth="yes"/>
      <point x="1122" y="601" type="line" smooth="yes"/>
      <point x="1122" y="242"/>
      <point x="985" y="34"/>
    </contour>
    <component base="_num.bar" xOffset="125"/>
  </outline>
</glyph>
<glyph name="five-ethiopic" format="2">
  <advance width="1315"/>
  <unicode hex="136D"/>
  <outline>
    <contour>
      <point x="225" y="0" type="line"/>
      <point x="1155" y="0" type="line"/>
      <point x="1155" y="54" type="line"/>
      <point x="287" y="54" type="line"/>
      <point x="287" y="1456" type="line"/>
      <point x="225" y="1456" type="line"/>
    </contour>
    <component base="_num.bar" xOffset="82"/>
  </outline>
</glyph>
<glyph name="ten-ethiopic" format="2">
  <advance width="1150"/>
  <unicode hex="1372"/>
  <outline>
    <contour>
      <point x="605" y="0" type="line"/>
      <point x="659" y="0" type="line"/>
      <point x="659" y="1460" type="line" name="❌"/>
      <point x="648" y="1460" type="line" name="❌"/>
      <point x="605" y="1388" type="line"/>
    </contour>
    <component base="_num.bar"/>
  </outline>
</glyph>
<glyph name="twenty-ethiopic" format="2">
  <advance width="1150"/>
  <unicode hex="1373"/>
  <outline>
    <contour>
      <point x="128" y="3" type="line"/>
      <point x="182" y="3" type="line"/>
      <point x="182" y="493" type="line"/>
      <point x="182" y="621" type="line"/>
      <point x="222" y="782.333"/>
      <point x="398.333" y="903"/>
      <point x="585" y="903" type="curve" smooth="yes"/>
      <point x="817" y="903"/>
      <point x="959" y="738.667"/>
      <point x="959" y="480" type="curve"/>
      <point x="959" y="3" type="line"/>
      <point x="1013" y="3" type="line"/>
      <point x="1013" y="480" type="line"/>
      <point x="1013" y="766.667"/>
      <point x="848" y="957"/>
      <point x="592" y="957" type="curve" smooth="yes"/>
      <point x="417.333" y="957"/>
      <point x="260.333" y="870.333"/>
      <point x="183" y="733" type="curve"/>
      <point x="200.333" y="1169"/>
      <point x="432" y="1422"/>
      <point x="840" y="1422" type="curve"/>
      <point x="840" y="1476" type="line"/>
      <point x="378.667" y="1476"/>
      <point x="128" y="1177.333"/>
      <point x="128" y="660" type="curve" smooth="yes"/>
      <point x="128" y="481" type="line"/>
    </contour>
    <component base="_num.bar"/>
  </outline>
</glyph>
<glyph name="thirty-ethiopic" format="2">
  <advance width="1150"/>
  <unicode hex="1374"/>
  <outline>
    <contour>
      <point x="155" y="49" type="line"/>
      <point x="209" y="49" type="line"/>
      <point x="209" y="847" type="line" smooth="yes"/>
      <point x="209" y="1206"/>
      <point x="181" y="1413"/>
      <point x="360" y="1413" type="curve" smooth="yes"/>
      <point x="464" y="1413"/>
      <point x="542" y="1182"/>
      <point x="542" y="762" type="curve" smooth="yes"/>
      <point x="542" y="728" type="line" smooth="yes"/>
      <point x="542" y="353"/>
      <point x="552" y="59"/>
      <point x="808" y="59" type="curve" smooth="yes"/>
      <point x="1023" y="59"/>
      <point x="983" y="287"/>
      <point x="983" y="674" type="curve" smooth="yes"/>
      <point x="983" y="1477" type="line"/>
      <point x="929" y="1477" type="line"/>
      <point x="929" y="679" type="line" smooth="yes"/>
      <point x="929" y="320"/>
      <point x="957" y="113"/>
      <point x="778" y="113" type="curve" smooth="yes"/>
      <point x="674" y="113"/>
      <point x="596" y="304"/>
      <point x="596" y="724" type="curve" smooth="yes"/>
      <point x="596" y="758" type="line" smooth="yes"/>
      <point x="596" y="1133"/>
      <point x="586" y="1467"/>
      <point x="330" y="1467" type="curve" smooth="yes"/>
      <point x="115" y="1467"/>
      <point x="155" y="1239"/>
      <point x="155" y="852" type="curve" smooth="yes"/>
    </contour>
    <component base="_num.bar"/>
  </outline>
</glyph>
<glyph name="sixty-ethiopic" format="2">
  <advance width="1150"/>
  <unicode hex="1377"/>
  <outline>
    <contour>
      <point x="587" y="60" type="line"/>
      <point x="598" y="60" type="line"/>
      <point x="1059" y="230" type="line"/>
      <point x="1059" y="289" type="line"/>
      <point x="641" y="132" type="line"/>
      <point x="641" y="820" type="line"/>
      <point x="529" y="818" type="line"/>
      <point x="529" y="1460" type="line"/>
      <point x="518" y="1460" type="line"/>
      <point x="57" y="1290" type="line"/>
      <point x="57" y="1231" type="line"/>
      <point x="475" y="1388" type="line"/>
      <point x="475" y="700" type="line"/>
      <point x="587" y="700" type="line"/>
    </contour>
    <component base="_num.bar"/>
  </outline>
</glyph>
<glyph name="ninety-ethiopic" format="2">
  <advance width="1150"/>
  <unicode hex="137A"/>
  <outline>
    <contour>
      <point x="606" y="652" type="line"/>
      <point x="659" y="651" type="line"/>
      <point x="1007" y="1422" type="line"/>
      <point x="1007" y="1456" type="line"/>
      <point x="77" y="1456" type="line"/>
      <point x="77" y="1402" type="line"/>
      <point x="945" y="1402" type="line"/>
    </contour>
    <contour>
      <point x="647" y="684" type="line"/>
      <point x="608" y="647" type="line"/>
      <point x="860" y="-23" type="line"/>
      <point x="899" y="16" type="line"/>
    </contour>
    <component base="_num.bar"/>
  </outline>
</glyph>
<glyph name="hundred-ethiopic" format="2">
  <advance width="1477"/>
  <unicode hex="137B"/>
  <outline>
    <contour>
      <point x="256" y="-3" type="line"/>
      <point x="311" y="-3" type="line"/>
      <point x="311" y="710" type="line"/>
      <point x="388" y="573"/>
      <point x="545" y="486"/>
      <point x="720" y="486" type="curve" smooth="yes"/>
      <point x="976" y="486"/>
      <point x="1141" y="676"/>
      <point x="1141" y="963" type="curve" smooth="yes"/>
      <point x="1141" y="1226"/>
      <point x="988" y="1463"/>
      <point x="730" y="1463" type="curve" smooth="yes"/>
      <point x="592" y="1463"/>
      <point x="256" y="1396"/>
      <point x="256" y="962" type="curve" smooth="yes"/>
      <point x="256" y="783" type="line"/>
    </contour>
    <contour>
      <point x="713" y="540" type="curve" smooth="yes"/>
      <point x="526" y="540"/>
      <point x="350" y="661"/>
      <point x="310" y="822" type="curve"/>
      <point x="310" y="950" type="line" smooth="yes"/>
      <point x="310" y="1225"/>
      <point x="482" y="1410"/>
      <point x="730" y="1410" type="curve" smooth="yes"/>
      <point x="937" y="1410"/>
      <point x="1087" y="1188"/>
      <point x="1087" y="963" type="curve" smooth="yes"/>
      <point x="1087" y="704"/>
      <point x="945" y="540"/>
    </contour>
    <component base="_num.bar" yScale="-1" xOffset="128" yOffset="1443"/>
  </outline>
</glyph>
<glyph name="quotesinglbase" format="2">
  <advance width="300"/>
  <unicode hex="201A"/>
  <note>
uni201A
</note>
  <outline>
    <contour>
      <point x="84" y="-182" type="line"/>
      <point x="152" y="-109.333"/>
      <point x="187.333" y="-20"/>
      <point x="190" y="86" type="curve" smooth="yes"/>
      <point x="190" y="228" type="line"/>
      <point x="136" y="228" type="line"/>
      <point x="135" y="65" type="line"/>
      <point x="130.333" y="-9"/>
      <point x="101" y="-80.667"/>
      <point x="47" y="-150" type="curve"/>
    </contour>
  </outline>
</glyph>
<glyph name="quotereversed" format="2">
  <advance width="320"/>
  <unicode hex="201B"/>
  <note>
uni201B
</note>
  <outline>
    <contour>
      <point x="206" y="1151" type="curve"/>
      <point x="243" y="1183" type="line"/>
      <point x="189" y="1252.333"/>
      <point x="159.667" y="1324"/>
      <point x="155" y="1398" type="curve"/>
      <point x="154" y="1536" type="line"/>
      <point x="100" y="1536" type="line"/>
      <point x="100" y="1419" type="line" smooth="yes"/>
      <point x="102.667" y="1313"/>
      <point x="138" y="1223.667"/>
    </contour>
  </outline>
</glyph>
<glyph name="quotedblbase" format="2">
  <advance width="481"/>
  <unicode hex="201E"/>
  <note>
uni201E
</note>
  <outline>
    <contour>
      <point x="255" y="-182" type="line"/>
      <point x="323" y="-109.333"/>
      <point x="358.333" y="-20"/>
      <point x="361" y="86" type="curve" smooth="yes"/>
      <point x="361" y="228" type="line"/>
      <point x="307" y="228" type="line"/>
      <point x="306" y="65" type="line"/>
      <point x="301.333" y="-9"/>
      <point x="272" y="-80.667"/>
      <point x="218" y="-150" type="curve"/>
    </contour>
    <contour>
      <point x="84" y="-182" type="line"/>
      <point x="152" y="-109.333"/>
      <point x="187.333" y="-20"/>
      <point x="190" y="86" type="curve" smooth="yes"/>
      <point x="190" y="228" type="line"/>
      <point x="136" y="228" type="line"/>
      <point x="135" y="65" type="line"/>
      <point x="130.333" y="-9"/>
      <point x="101" y="-80.667"/>
      <point x="47" y="-150" type="curve"/>
    </contour>
  </outline>
</glyph>
<glyph name="perthousand" format="2">
  <advance width="2034"/>
  <unicode hex="2030"/>
  <note>
uni2030
</note>
  <outline>
    <contour>
      <point x="418" y="131" type="line"/>
      <point x="1129" y="1269" type="line"/>
      <point x="1084" y="1300" type="line"/>
      <point x="373" y="162" type="line"/>
    </contour>
    <contour>
      <point x="1142" y="34" type="curve" smooth="yes"/>
      <point x="1011.333" y="34"/>
      <point x="925" y="136.333"/>
      <point x="925" y="279" type="curve" smooth="yes"/>
      <point x="925" y="353" type="line" smooth="yes"/>
      <point x="925" y="505"/>
      <point x="1009.333" y="602"/>
      <point x="1140" y="602" type="curve" smooth="yes"/>
      <point x="1274.667" y="602"/>
      <point x="1358" y="503.667"/>
      <point x="1358" y="357" type="curve" smooth="yes"/>
      <point x="1358" y="284" type="line" smooth="yes"/>
      <point x="1358" y="134.667"/>
      <point x="1271.333" y="34"/>
    </contour>
    <contour>
      <point x="388" y="800" type="curve" smooth="yes"/>
      <point x="542.667" y="800"/>
      <point x="658" y="929.667"/>
      <point x="658" y="1099" type="curve" smooth="yes"/>
      <point x="658" y="1171" type="line" smooth="yes"/>
      <point x="658" y="1349.667"/>
      <point x="540.667" y="1477"/>
      <point x="386" y="1477" type="curve" smooth="yes"/>
      <point x="230" y="1477"/>
      <point x="115" y="1346.667"/>
      <point x="115" y="1176" type="curve" smooth="yes"/>
      <point x="115" y="1105" type="line" smooth="yes"/>
      <point x="115" y="925"/>
      <point x="233.333" y="800"/>
    </contour>
    <contour>
      <point x="388" y="855" type="curve" smooth="yes"/>
      <point x="256" y="855"/>
      <point x="170" y="957.667"/>
      <point x="170" y="1099" type="curve" smooth="yes"/>
      <point x="170" y="1169" type="line" smooth="yes"/>
      <point x="170" y="1321"/>
      <point x="258" y="1422"/>
      <point x="386" y="1422" type="curve" smooth="yes"/>
      <point x="516.667" y="1422"/>
      <point x="603" y="1320"/>
      <point x="603" y="1176" type="curve" smooth="yes"/>
      <point x="603" y="1104" type="line" smooth="yes"/>
      <point x="603" y="957.333"/>
      <point x="518.667" y="855"/>
    </contour>
    <contour>
      <point x="1142" y="-21" type="curve" smooth="yes"/>
      <point x="1254" y="-21"/>
      <point x="1346.333" y="47"/>
      <point x="1385" y="155" type="curve"/>
      <point x="1429" y="48.333"/>
      <point x="1525.333" y="-21"/>
      <point x="1640" y="-21" type="curve" smooth="yes"/>
      <point x="1793.333" y="-21"/>
      <point x="1910" y="107"/>
      <point x="1910" y="279" type="curve" smooth="yes"/>
      <point x="1910" y="350" type="line" smooth="yes"/>
      <point x="1910" y="531.333"/>
      <point x="1794" y="657"/>
      <point x="1638" y="657" type="curve" smooth="yes"/>
      <point x="1522" y="657"/>
      <point x="1427.667" y="585"/>
      <point x="1385" y="481" type="curve"/>
      <point x="1347.667" y="585"/>
      <point x="1256" y="657"/>
      <point x="1140" y="657" type="curve" smooth="yes"/>
      <point x="986.667" y="657"/>
      <point x="870" y="529"/>
      <point x="870" y="357" type="curve" smooth="yes"/>
      <point x="870" y="284" type="line" smooth="yes"/>
      <point x="870" y="104"/>
      <point x="988.667" y="-21"/>
    </contour>
    <contour>
      <point x="1630" y="34" type="curve" smooth="yes"/>
      <point x="1496.667" y="34"/>
      <point x="1413" y="137.667"/>
      <point x="1413" y="279" type="curve" smooth="yes"/>
      <point x="1413" y="353" type="line" smooth="yes"/>
      <point x="1413" y="503.667"/>
      <point x="1494.667" y="602"/>
      <point x="1628" y="602" type="curve" smooth="yes"/>
      <point x="1762.667" y="602"/>
      <point x="1844" y="506.333"/>
      <point x="1844" y="357" type="curve" smooth="yes"/>
      <point x="1844" y="284" type="line" smooth="yes"/>
      <point x="1844" y="137.333"/>
      <point x="1762" y="34"/>
    </contour>
  </outline>
</glyph>
<glyph name="guilsinglright" format="2">
  <advance width="604"/>
  <unicode hex="203A"/>
  <note>
uni203A
</note>
  <outline>
    <contour>
      <point x="106" y="171" type="line"/>
      <point x="176" y="171" type="line"/>
      <point x="470" y="541" type="line"/>
      <point x="470" y="560" type="line"/>
      <point x="176" y="940" type="line"/>
      <point x="106" y="940" type="line"/>
      <point x="399" y="550" type="line"/>
    </contour>
  </outline>
</glyph>
<glyph name="fraction" format="2">
  <advance width="905"/>
  <unicode hex="2044"/>
  <note>
uni2044
</note>
  <outline>
    <contour>
      <point x="110" y="131" type="line"/>
      <point x="821" y="1269" type="line"/>
      <point x="776" y="1300" type="line"/>
      <point x="65" y="162" type="line"/>
    </contour>
  </outline>
</glyph>
<glyph name="euro" format="2">
  <advance width="1121"/>
  <unicode hex="20AC"/>
  <note>
uni20AC
</note>
  <outline>
    <contour>
      <point x="812" y="-21" type="curve" smooth="yes"/>
      <point x="888.667" y="-21"/>
      <point x="962" y="-10.667"/>
      <point x="1032" y="10" type="curve"/>
      <point x="1032" y="67" type="line"/>
      <point x="964" y="44.333"/>
      <point x="890.667" y="33"/>
      <point x="812" y="33" type="curve" smooth="yes"/>
      <point x="513.333" y="33"/>
      <point x="331" y="215.333"/>
      <point x="331" y="584" type="curve"/>
      <point x="786" y="584" type="line"/>
      <point x="786" y="639" type="line"/>
      <point x="331" y="639" type="line"/>
      <point x="331" y="830" type="line"/>
      <point x="786" y="830" type="line"/>
      <point x="786" y="886" type="line"/>
      <point x="331" y="886" type="line"/>
      <point x="332.333" y="1243"/>
      <point x="504.667" y="1422"/>
      <point x="810" y="1422" type="curve" smooth="yes"/>
      <point x="883.333" y="1422"/>
      <point x="957.333" y="1410.333"/>
      <point x="1032" y="1387" type="curve"/>
      <point x="1032" y="1445" type="line"/>
      <point x="948" y="1465.667"/>
      <point x="874" y="1476"/>
      <point x="810" y="1476" type="curve" smooth="yes"/>
      <point x="478" y="1476"/>
      <point x="279.667" y="1270.667"/>
      <point x="277" y="886" type="curve"/>
      <point x="72" y="886" type="line"/>
      <point x="72" y="830" type="line"/>
      <point x="277" y="830" type="line"/>
      <point x="277" y="639" type="line"/>
      <point x="72" y="639" type="line"/>
      <point x="72" y="584" type="line"/>
      <point x="277" y="584" type="line"/>
      <point x="277" y="186.333"/>
      <point x="480" y="-21"/>
    </contour>
  </outline>
</glyph>
<glyph name="Ohm" format="2">
  <advance width="1266"/>
  <unicode hex="2126"/>
  <outline>
    <contour>
      <point x="122" y="0" type="line"/>
      <point x="557" y="0" type="line"/>
      <point x="557" y="78" type="line"/>
      <point x="314" y="199"/>
      <point x="192" y="417"/>
      <point x="192" y="732" type="curve" smooth="yes"/>
      <point x="192" y="842" type="line" smooth="yes"/>
      <point x="192" y="1183"/>
      <point x="379" y="1422"/>
      <point x="655" y="1422" type="curve" smooth="yes"/>
      <point x="956" y="1422"/>
      <point x="1120" y="1149"/>
      <point x="1120" y="851" type="curve" smooth="yes"/>
      <point x="1120" y="727" type="line" smooth="yes"/>
      <point x="1119" y="414"/>
      <point x="999" y="197"/>
      <point x="761" y="78" type="curve"/>
      <point x="761" y="0" type="line"/>
      <point x="1195" y="0" type="line"/>
      <point x="1195" y="54" type="line"/>
      <point x="827" y="54" type="line"/>
      <point x="1056" y="190"/>
      <point x="1174" y="428"/>
      <point x="1174" y="732" type="curve" smooth="yes"/>
      <point x="1174" y="850" type="line" smooth="yes"/>
      <point x="1174" y="1095"/>
      <point x="1083" y="1294"/>
      <point x="925" y="1398" type="curve" smooth="yes"/>
      <point x="846" y="1450"/>
      <point x="756" y="1476"/>
      <point x="655" y="1476" type="curve" smooth="yes"/>
      <point x="454" y="1476"/>
      <point x="290" y="1369"/>
      <point x="203" y="1178" type="curve" smooth="yes"/>
      <point x="160" y="1083"/>
      <point x="138" y="973"/>
      <point x="138" y="849" type="curve" smooth="yes"/>
      <point x="138" y="707" type="line" smooth="yes"/>
      <point x="143" y="414"/>
      <point x="267" y="181"/>
      <point x="488" y="54" type="curve"/>
      <point x="122" y="54" type="line"/>
    </contour>
  </outline>
</glyph>
<glyph name="summation" format="2">
  <advance width="1166"/>
  <unicode hex="2211"/>
  <note>
uni2211
</note>
  <outline>
    <contour>
      <point x="57" y="-270" type="line"/>
      <point x="1164" y="-270" type="line"/>
      <point x="1164" y="-216" type="line"/>
      <point x="133" y="-216" type="line"/>
      <point x="716" y="590" type="line"/>
      <point x="132" y="1403" type="line"/>
      <point x="1106" y="1403" type="line"/>
      <point x="1106" y="1456" type="line"/>
      <point x="57" y="1456" type="line"/>
      <point x="57" y="1412" type="line"/>
      <point x="653" y="592" type="line"/>
      <point x="57" y="-227" type="line"/>
    </contour>
  </outline>
</glyph>
<glyph name="infinity" format="2">
  <advance width="2223"/>
  <unicode hex="221E"/>
  <note>
uni221E
</note>
  <outline>
    <contour>
      <point x="595" y="-21" type="curve" smooth="yes"/>
      <point x="813.667" y="-21"/>
      <point x="989.667" y="143.333"/>
      <point x="1103" y="458" type="curve"/>
      <point x="1211" y="150"/>
      <point x="1393" y="-21"/>
      <point x="1613" y="-21" type="curve" smooth="yes"/>
      <point x="1786.333" y="-21"/>
      <point x="1931.667" y="76.167"/>
      <point x="2009" y="243.5" type="curve" smooth="yes"/>
      <point x="2047.667" y="327.167"/>
      <point x="2067" y="418.333"/>
      <point x="2067" y="517" type="curve" smooth="yes"/>
      <point x="2067" y="729"/>
      <point x="2001" y="894"/>
      <point x="1893" y="994" type="curve" smooth="yes"/>
      <point x="1818" y="1064"/>
      <point x="1723" y="1102"/>
      <point x="1615" y="1102" type="curve" smooth="yes"/>
      <point x="1395" y="1102"/>
      <point x="1209.667" y="927"/>
      <point x="1103" y="623" type="curve"/>
      <point x="996.333" y="928.333"/>
      <point x="811.667" y="1102"/>
      <point x="593" y="1102" type="curve" smooth="yes"/>
      <point x="419.667" y="1102"/>
      <point x="275.333" y="1004.667"/>
      <point x="198" y="838" type="curve" smooth="yes"/>
      <point x="159.333" y="754.667"/>
      <point x="140" y="663.667"/>
      <point x="140" y="565" type="curve" smooth="yes"/>
      <point x="140" y="372"/>
      <point x="195" y="218"/>
      <point x="286" y="116" type="curve" smooth="yes"/>
      <point x="365" y="28"/>
      <point x="472" y="-21"/>
    </contour>
    <contour>
      <point x="595" y="33" type="curve" smooth="yes"/>
      <point x="325" y="33"/>
      <point x="194" y="272"/>
      <point x="194" y="550" type="curve" smooth="yes"/>
      <point x="194" y="842"/>
      <point x="359.667" y="1048"/>
      <point x="593" y="1048" type="curve" smooth="yes"/>
      <point x="802" y="1048"/>
      <point x="975" y="862"/>
      <point x="1069" y="562" type="curve"/>
      <point x="1069" y="521" type="line"/>
      <point x="974.333" y="220"/>
      <point x="800.333" y="33"/>
    </contour>
    <contour>
      <point x="1613" y="33" type="curve" smooth="yes"/>
      <point x="1407.667" y="33"/>
      <point x="1235.333" y="213.333"/>
      <point x="1138" y="520" type="curve"/>
      <point x="1138" y="562" type="line"/>
      <point x="1232.667" y="866"/>
      <point x="1405.667" y="1048"/>
      <point x="1615" y="1048" type="curve" smooth="yes"/>
      <point x="1869" y="1048"/>
      <point x="2013" y="809"/>
      <point x="2013" y="530" type="curve" smooth="yes"/>
      <point x="2013" y="240.667"/>
      <point x="1850.333" y="33"/>
    </contour>
  </outline>
</glyph>
<glyph name="notequal" format="2">
  <advance width="1142"/>
  <unicode hex="2260"/>
  <note>
uni2260
</note>
  <outline>
    <contour>
      <point x="292" y="152" type="line"/>
      <point x="453" y="436" type="line"/>
      <point x="981" y="436" type="line"/>
      <point x="981" y="490" type="line"/>
      <point x="483" y="490" type="line"/>
      <point x="683" y="843" type="line"/>
      <point x="981" y="843" type="line"/>
      <point x="981" y="897" type="line"/>
      <point x="714" y="897" type="line"/>
      <point x="861" y="1156" type="line"/>
      <point x="814" y="1180" type="line"/>
      <point x="653" y="897" type="line"/>
      <point x="147" y="897" type="line"/>
      <point x="147" y="843" type="line"/>
      <point x="623" y="843" type="line"/>
      <point x="423" y="490" type="line"/>
      <point x="147" y="490" type="line"/>
      <point x="147" y="436" type="line"/>
      <point x="392" y="436" type="line"/>
      <point x="245" y="176" type="line"/>
    </contour>
  </outline>
</glyph>
<glyph name="lozenge" format="2">
  <advance width="1036"/>
  <unicode hex="25CA"/>
  <note>
uni25CA
</note>
  <outline>
    <contour>
      <point x="489" y="0" type="line"/>
      <point x="540" y="0" type="line"/>
      <point x="960" y="727" type="line"/>
      <point x="540" y="1456" type="line"/>
      <point x="489" y="1456" type="line"/>
      <point x="68" y="727" type="line"/>
    </contour>
    <contour>
      <point x="514" y="62" type="line"/>
      <point x="137" y="727" type="line"/>
      <point x="514" y="1391" type="line"/>
      <point x="892" y="727" type="line"/>
    </contour>
  </outline>
</glyph>
<glyph name="_aa.neck" format="2">
  <outline>
    <contour>
      <point x="-962" y="1556" type="line"/>
      <point x="-962" y="1295" type="line"/>
      <point x="-726" y="1295" type="line"/>
      <point x="-953" y="1120" type="line"/>
      <point x="-966" y="751" type="line"/>
      <point x="-909" y="751" type="line"/>
      <point x="-904" y="1112" type="line"/>
      <point x="-650" y="1293" type="line"/>
      <point x="-650" y="1357" type="line"/>
      <point x="-910" y="1357" type="line"/>
      <point x="-910" y="1556" type="line"/>
    </contour>
  </outline>
</glyph>
<glyph name="_bar.part" format="2">
  <advance width="1102"/>
  <outline>
    <contour>
      <point x="322" y="199" type="line"/>
      <point x="657" y="199" type="line"/>
      <point x="657" y="253" type="line"/>
      <point x="322" y="253" type="line"/>
    </contour>
  </outline>
</glyph>
<glyph name="_da.arms.caps" format="2">
  <advance width="1292"/>
  <outline>
    <contour>
      <point x="1072" y="6" type="line"/>
      <point x="1076" y="157"/>
      <point x="973" y="342"/>
      <point x="808" y="342" type="curve" smooth="yes"/>
      <point x="210" y="342" type="line"/>
      <point x="210" y="307" type="line"/>
      <point x="728" y="307" type="line" smooth="yes"/>
      <point x="1008" y="307"/>
      <point x="1023" y="97"/>
      <point x="1023" y="2" type="curve" smooth="yes"/>
      <point x="1023" y="1" type="line"/>
    </contour>
  </outline>
</glyph>
<glyph name="_da.flat" format="2">
  <outline>
    <contour>
      <point x="-789" y="-1" type="line"/>
      <point x="-139" y="-1" type="line"/>
      <point x="-139" y="53" type="line"/>
      <point x="-789" y="53" type="line"/>
    </contour>
  </outline>
</glyph>
<glyph name="_hha.neck.cap" format="2">
  <advance width="1788"/>
  <outline>
    <contour>
      <point x="864" y="678" type="line"/>
      <point x="918" y="678" type="line"/>
      <point x="921" y="1572" type="line"/>
      <point x="861" y="1572" type="line"/>
    </contour>
  </outline>
</glyph>
<glyph name="_ka.hat.part" format="2">
  <outline>
    <contour>
      <point x="-1126" y="1402" type="line"/>
      <point x="-697" y="1412" type="line"/>
      <point x="-697" y="1474" type="line"/>
      <point x="-1064" y="1474" type="line"/>
      <point x="-1021" y="1732" type="line"/>
      <point x="-1127" y="1732" type="line"/>
      <point x="-1127" y="1443" type="line"/>
    </contour>
  </outline>
</glyph>
<glyph name="_ka.part" format="2">
  <outline>
    <contour>
      <point x="-695" y="1056" type="line"/>
      <point x="-604" y="1109" type="line"/>
      <point x="-1010" y="1106" type="line"/>
      <point x="-973" y="1324" type="line"/>
      <point x="-1079" y="1324" type="line"/>
      <point x="-1085" y="1058" type="line"/>
    </contour>
  </outline>
</glyph>
<glyph name="_kxa.hat.cap" format="2">
  <outline>
    <contour>
      <point x="-1294" y="1725" type="line"/>
      <point x="-1294" y="1682" type="line"/>
      <point x="-620" y="1682" type="line"/>
      <point x="-620" y="1725" type="line"/>
    </contour>
  </outline>
</glyph>
<glyph name="_nya.hat" format="2">
  <outline>
    <contour>
      <point x="-83" y="1492" type="line"/>
      <point x="392" y="1492" type="line"/>
      <point x="392" y="1548" type="line"/>
      <point x="-83" y="1548" type="line"/>
    </contour>
  </outline>
</glyph>
<glyph name="_smart.aGl" format="2">
  <anchor x="-877" y="753" name="_aGl"/>
  <outline>
    <contour>
      <point x="-964" y="714" type="line"/>
      <point x="-910" y="714" type="line"/>
      <point x="-910" y="1112" type="line"/>
      <point x="-650" y="1293" type="line"/>
      <point x="-650" y="1357" type="line"/>
      <point x="-910" y="1357" type="line"/>
      <point x="-910" y="1556" type="line"/>
      <point x="-962" y="1556" type="line"/>
      <point x="-962" y="1295" type="line"/>
      <point x="-726" y="1295" type="line"/>
      <point x="-964" y="1120" type="line"/>
    </contour>
  </outline>
</glyph>
<glyph name="_smart.cha" format="2">
  <anchor x="-5" y="34" name="_cha"/>
  <outline>
    <contour>
      <point x="-589" y="25" type="curve" smooth="yes"/>
      <point x="-558" y="25"/>
      <point x="-533" y="49"/>
      <point x="-533" y="80" type="curve" smooth="yes"/>
      <point x="-533" y="111"/>
      <point x="-558" y="136"/>
      <point x="-589" y="136" type="curve" smooth="yes"/>
      <point x="-620" y="136"/>
      <point x="-644" y="111"/>
      <point x="-644" y="80" type="curve" smooth="yes"/>
      <point x="-644" y="49"/>
      <point x="-620" y="25"/>
    </contour>
    <contour>
      <point x="643" y="27" type="curve" smooth="yes"/>
      <point x="674" y="27"/>
      <point x="699" y="51"/>
      <point x="699" y="82" type="curve" smooth="yes"/>
      <point x="699" y="113"/>
      <point x="674" y="138"/>
      <point x="643" y="138" type="curve" smooth="yes"/>
      <point x="612" y="138"/>
      <point x="588" y="113"/>
      <point x="588" y="82" type="curve" smooth="yes"/>
      <point x="588" y="51"/>
      <point x="612" y="27"/>
    </contour>
  </outline>
</glyph>
<glyph name="_smart.di" format="2">
  <anchor x="-173" y="224" name="_di"/>
  <outline>
    <contour>
      <point x="-209" y="-26" type="line"/>
      <point x="117" y="-26" type="line"/>
      <point x="155" y="23" type="line"/>
      <point x="-175" y="23" type="line"/>
    </contour>
    <contour>
      <point x="-223" y="327" type="line"/>
      <point x="-223" y="-26" type="line"/>
      <point x="-162" y="-26" type="line"/>
      <point x="-162" y="327" type="line"/>
    </contour>
  </outline>
</glyph>
<glyph name="_smart.fa" format="2">
  <anchor x="433" y="54" name="_fa"/>
  <outline>
    <contour>
      <point x="202" y="526" type="line"/>
      <point x="143" y="527" type="line"/>
      <point x="340" y="15" type="line"/>
      <point x="399" y="15" type="line"/>
    </contour>
  </outline>
</glyph>
<glyph name="_smart.haa.caps" format="2">
  <anchor x="8" y="338" name="_haa.caps"/>
  <outline>
    <contour>
      <point x="-20" y="-18" type="line"/>
      <point x="35" y="-18" type="line"/>
      <point x="38" y="336" type="line"/>
      <point x="-22" y="336" type="line"/>
    </contour>
  </outline>
</glyph>
<glyph name="_smart.haa" format="2">
  <anchor x="-1" y="355" name="_haa"/>
  <outline>
    <contour>
      <point x="-20" y="-18" type="line"/>
      <point x="35" y="-18" type="line"/>
      <point x="38" y="336" type="line"/>
      <point x="-22" y="336" type="line"/>
    </contour>
  </outline>
</glyph>
<glyph name="_smart.hat.001" format="2">
  <anchor x="628" y="188" name="_hat.001"/>
  <outline>
    <contour>
      <point x="312" y="109" type="line"/>
      <point x="827" y="109" type="line"/>
      <point x="827" y="153" type="line"/>
      <point x="312" y="153" type="line"/>
    </contour>
  </outline>
</glyph>
<glyph name="_smart.hat.002" format="2">
  <anchor x="541" y="8" name="_hat.002"/>
  <outline>
    <contour>
      <point x="312" y="109" type="line"/>
      <point x="827" y="109" type="line"/>
      <point x="827" y="153" type="line"/>
      <point x="312" y="153" type="line"/>
    </contour>
  </outline>
</glyph>
<glyph name="_smart.hat.cap" format="2">
  <advance width="600"/>
  <anchor x="289.157" y="1692" name="_hat.cap"/>
  <outline>
    <contour>
      <point x="-26" y="1723" type="line"/>
      <point x="-26" y="1689" type="line"/>
      <point x="579" y="1689" type="line"/>
      <point x="579" y="1723" type="line"/>
    </contour>
  </outline>
</glyph>
